<svg width="72" height="72" viewBox="0 0 72 72" fill="none" xmlns="http://www.w3.org/2000/svg">
<path d="M29.9115 16.731L31.7183 21.7485C33.7253 27.3173 38.1105 31.7025 43.6793 33.7095L48.6968 35.5163C49.149 35.6805 49.149 36.3218 48.6968 36.4838L43.6793 38.2905C38.1105 40.2975 33.7253 44.6828 31.7183 50.2515L29.9115 55.269C29.7473 55.7213 29.106 55.7213 28.944 55.269L27.1373 50.2515C25.1303 44.6828 20.745 40.2975 15.1763 38.2905L10.1588 36.4838C9.70652 36.3195 9.70652 35.6783 10.1588 35.5163L15.1763 33.7095C20.745 31.7025 25.1303 27.3173 27.1373 21.7485L28.944 16.731C29.106 16.2765 29.7473 16.2765 29.9115 16.731Z" fill="#2568EF"/>
<path d="M52.497 4.6732L53.4128 7.21345C54.4298 10.0327 56.6505 12.2535 59.4698 13.2705L62.01 14.1862C62.2395 14.2695 62.2395 14.5935 62.01 14.6767L59.4698 15.5925C56.6505 16.6095 54.4298 18.8302 53.4128 21.6495L52.497 24.1897C52.4138 24.4192 52.0898 24.4192 52.0065 24.1897L51.0908 21.6495C50.0738 18.8302 47.853 16.6095 45.0338 15.5925L42.4935 14.6767C42.264 14.5935 42.264 14.2695 42.4935 14.1862L45.0338 13.2705C47.853 12.2535 50.0738 10.0327 51.0908 7.21345L52.0065 4.6732C52.0898 4.44145 52.416 4.44145 52.497 4.6732Z" fill="#2568EF"/>
<path d="M52.497 47.8125L53.4128 50.3528C54.4298 53.172 56.6505 55.3928 59.4698 56.4098L62.01 57.3255C62.2395 57.4088 62.2395 57.7328 62.01 57.816L59.4698 58.7318C56.6505 59.7488 54.4298 61.9695 53.4128 64.7888L52.497 67.329C52.4138 67.5585 52.0898 67.5585 52.0065 67.329L51.0908 64.7888C50.0738 61.9695 47.853 59.7488 45.0338 58.7318L42.4935 57.816C42.264 57.7328 42.264 57.4088 42.4935 57.3255L45.0338 56.4098C47.853 55.3928 50.0738 53.172 51.0908 50.3528L52.0065 47.8125C52.0898 47.583 52.416 47.583 52.497 47.8125Z" fill="#2568EF"/>
</svg>
