<svg width="267" height="48" viewBox="0 0 267 48" fill="none" xmlns="http://www.w3.org/2000/svg">
<path d="M1 29.5C37.5 10.1667 136.5 -18.3 240.5 22.5" stroke="black" stroke-width="1.5" stroke-linecap="round" stroke-dasharray="6 6"/>
<g clip-path="url(#clip0_208_2)">
<path d="M256.001 36.8054L228.402 29.0155C227.965 28.8892 227.662 28.4824 227.674 28.024C227.685 27.5643 228.007 27.1727 228.455 27.0738L242.383 23.9624L243.295 9.7211C243.324 9.2629 243.662 8.88278 244.111 8.80081C244.417 8.7429 244.722 8.83271 244.946 9.02407C245.054 9.1165 245.142 9.23175 245.204 9.36616L257.182 35.422C257.346 35.7785 257.287 36.195 257.033 36.4918C256.78 36.7887 256.377 36.911 256.001 36.8054Z" fill="black"/>
</g>
<defs>
<clipPath id="clip0_208_2">
<rect width="28.0411" height="28.0411" fill="white" transform="matrix(0.759985 0.64994 0.64994 -0.759985 226.611 28.9215)"/>
</clipPath>
</defs>
</svg>
