<svg width="488" height="449" viewBox="0 0 488 449" fill="none" xmlns="http://www.w3.org/2000/svg">
<path d="M449.812 347.302C449.812 351.834 446.404 355.542 442.238 355.542H32.6558C28.4901 355.542 25.0816 351.834 25.0816 347.302L21.6734 90.9847C21.6734 86.4527 26.5767 77.6048 35.563 78.2697L435.852 66.9907C441.079 66.8434 446.133 69.0342 449.834 73.0519C453.535 77.0696 455.561 82.5625 455.437 88.2491L449.812 347.302Z" fill="url(#paint0_linear_12_155)"/>
<path d="M442.335 339.397C442.335 343.689 439.11 347.2 435.169 347.2H42.5331C38.5919 347.2 35.3674 343.689 35.3674 339.397L32.1513 106.709C32.5301 92.7069 43.8035 87.6742 50.6371 87.9713C50.6371 87.9713 363.5 78.8309 434.278 76.7631C437.95 76.6558 441.5 78.1964 444.101 81.0214C446.702 83.8464 448.132 87.7124 448.04 91.7116L442.335 339.397Z" fill="url(#paint1_linear_12_155)"/>
<path d="M39.6104 228.25C39.3157 228.25 39.0747 228.013 39.0709 227.717L38.8165 208.847C38.8125 208.548 39.0509 208.303 39.3488 208.299C39.6433 208.289 39.8918 208.534 39.896 208.832L40.1504 227.702C40.1544 228.001 39.916 228.246 39.618 228.25C39.6154 228.25 39.6132 228.25 39.6104 228.25Z" fill="white"/>
<path d="M38.9869 182.007C38.6922 182.007 38.4512 181.77 38.4474 181.475L37.4727 109.201C37.4938 104.164 38.9888 100.197 41.9165 97.3994C46.7751 92.7585 53.9873 93.0042 54.288 93.015L176.801 89.4348C177.114 89.4209 177.348 89.6606 177.357 89.9584C177.365 90.2565 177.131 90.505 176.833 90.5137L54.2859 94.0941C53.9559 94.0814 47.1925 93.8523 42.6622 98.1802C39.9547 100.767 38.5721 104.473 38.5522 109.196L39.5268 181.46C39.5309 181.758 39.2925 182.003 38.9945 182.007C38.9919 182.007 38.9895 182.007 38.9869 182.007Z" fill="white"/>
<path opacity="0.37" d="M52.6652 326.489C53.0764 307.257 52.9233 136.954 51.91 122.245C50.8967 107.537 71.9321 104.778 104.228 103.123C136.524 101.468 409.015 94.9148 416.031 94.2953C431.802 92.9027 435.066 118.572 433.489 174.298C432.303 216.165 430.339 285.133 429.435 316.85C429.166 326.294 422.077 333.787 413.401 333.813C347.828 334.009 96.5076 334.794 79.7768 335.336C60.5234 335.96 52.5024 334.114 52.6652 326.489Z" fill="white"/>
<path d="M481.733 376.82H1.46509C0.746261 376.82 0.158203 376.232 0.158203 375.513V355.606C0.158203 354.887 0.746261 354.299 1.46509 354.299H481.733C482.452 354.299 483.04 354.887 483.04 355.606V375.513C483.039 376.232 482.451 376.82 481.733 376.82Z" fill="url(#paint2_linear_12_155)"/>
<path d="M367.592 37.1222L358.382 57.2899C358.382 57.2899 363.484 90.9845 398.983 104.117C434.481 117.249 450.278 100.186 450.278 100.186L461.575 70.4598L367.592 37.1222Z" fill="url(#paint3_linear_12_155)"/>
<path d="M425.627 9.20118L351.366 23.3649C347.542 24.0941 346.056 28.8585 348.775 31.6793C362.034 45.4383 392.105 77.4138 402.976 95.397C404.139 97.3207 406.444 98.1872 408.567 97.5086L484.584 73.2111C488.023 72.1119 489.141 67.7321 486.657 65.0861C473.555 51.1324 440.168 16.1435 428.877 9.73213C427.89 9.17158 426.74 8.98909 425.627 9.20118Z" fill="url(#paint4_linear_12_155)"/>
<path d="M420.706 47.0876C420.706 47.0876 457.143 75.2832 459.587 81.2009C462.031 87.1185 453.839 112.299 453.839 112.299C458 134.599 456.816 158.307 445.455 169.753C445.455 169.753 435.318 140.012 442.038 128.456C448.758 116.9 451.374 112.151 451.374 112.151C451.374 112.151 458.74 85.1858 457.521 81.1286C457.521 81.1286 417.29 48.363 420.706 47.0876Z" fill="url(#paint5_linear_12_155)"/>
<path d="M360.452 31.1283L394.19 71.4876L402.624 81.5773L404.733 84.0999L405.787 85.3611C406.126 85.7606 406.488 86.1211 406.893 86.4434C408.514 87.7221 410.722 88.2154 412.736 87.7303L438.283 81.4873C438.461 81.4436 438.642 81.553 438.685 81.7318C438.729 81.9098 438.62 82.0893 438.443 82.1339L412.933 88.5497C410.677 89.1101 408.186 88.5738 406.349 87.1438C405.892 86.7873 405.473 86.3737 405.1 85.9396L404.038 84.6855L401.912 82.1773L393.41 72.1442L359.402 32.0124C359.157 31.7233 359.193 31.2902 359.482 31.0452C359.771 30.8002 360.204 30.8361 360.449 31.1252L360.452 31.1283Z" fill="white"/>
<path d="M449.797 125.191L449.713 125.268L449.616 125.366L449.42 125.563L449.042 125.997C448.793 126.29 448.568 126.613 448.329 126.92L447.685 127.909C447.484 128.248 447.3 128.6 447.106 128.945C446.903 129.285 446.745 129.651 446.579 130.012C446.417 130.375 446.239 130.731 446.089 131.1L445.672 132.223C445.536 132.599 445.382 132.968 445.284 133.358L444.951 134.513C444.843 134.899 444.717 135.281 444.648 135.677C444.487 136.465 444.311 137.25 444.161 138.04L443.839 140.437C443.814 140.637 443.779 140.836 443.763 141.037L443.725 141.642L443.647 142.851C443.494 144.462 443.573 146.084 443.56 147.704C443.551 148.109 443.582 148.514 443.611 148.918L443.693 150.132C443.751 150.941 443.793 151.752 443.864 152.56C444.078 154.169 444.259 155.785 444.501 157.392L445.393 162.19L445.395 162.203C445.419 162.333 445.334 162.457 445.204 162.481C445.077 162.505 444.954 162.422 444.927 162.295L443.92 157.492C443.639 155.88 443.42 154.256 443.167 152.637C443.076 151.823 443.015 151.005 442.937 150.189L442.827 148.963C442.788 148.554 442.748 148.146 442.748 147.735C442.722 146.093 442.606 144.45 442.723 142.805L442.774 141.571L442.799 140.954C442.811 140.748 442.842 140.544 442.862 140.339L443.137 137.878C443.271 137.064 443.434 136.252 443.582 135.437C443.645 135.028 443.764 134.63 443.867 134.228L444.184 133.025C444.277 132.62 444.427 132.23 444.561 131.836L444.969 130.656C445.117 130.266 445.295 129.887 445.457 129.502C445.623 129.118 445.78 128.731 445.987 128.364C446.184 127.993 446.37 127.617 446.577 127.251L447.245 126.174C447.497 125.831 447.732 125.478 448.003 125.144L448.418 124.646L448.647 124.403L448.764 124.281L448.903 124.15C449.179 123.89 449.613 123.903 449.873 124.179C450.133 124.455 450.12 124.889 449.844 125.149C449.842 125.151 449.84 125.153 449.837 125.155L449.797 125.191Z" fill="white"/>
<path d="M450.055 135.467L449.915 137.025L449.778 138.754L449.522 142.218L449.038 149.152L448.11 163.027C448.097 163.232 447.919 163.388 447.714 163.375C447.511 163.362 447.357 163.188 447.365 162.987L447.98 149.092L448.308 142.144L448.487 138.669L448.585 136.929L448.642 136.053L448.673 135.614C448.691 135.431 448.721 135.219 448.755 135.025C448.819 134.662 449.165 134.419 449.529 134.483C449.872 134.543 450.109 134.856 450.079 135.198L450.055 135.467Z" fill="white"/>
<path d="M251.141 330.161C270.716 330.161 286.585 314.292 286.585 294.716C286.585 275.141 270.716 259.271 251.141 259.271C231.565 259.271 215.696 275.141 215.696 294.716C215.696 314.292 231.565 330.161 251.141 330.161Z" fill="url(#paint6_linear_12_155)"/>
<path d="M216.021 292.637L224.962 287.974V289.961C224.962 290.112 224.925 290.249 224.849 290.374C224.774 290.498 224.65 290.605 224.477 290.695L220.379 292.795C220.205 292.885 220.023 292.963 219.831 293.027C219.639 293.091 219.434 293.149 219.216 293.202C219.434 293.254 219.639 293.313 219.831 293.377C220.023 293.441 220.205 293.518 220.379 293.608L224.477 295.719C224.65 295.809 224.774 295.917 224.849 296.041C224.925 296.165 224.962 296.303 224.962 296.453V298.44L216.021 293.766V292.637Z" fill="url(#paint7_linear_12_155)"/>
<path d="M229.037 300.81V284.034H231.826V290.481C232.278 290.052 232.774 289.706 233.316 289.442C233.858 289.179 234.494 289.047 235.224 289.047C235.856 289.047 236.417 289.154 236.906 289.369C237.395 289.583 237.804 289.885 238.131 290.272C238.458 290.66 238.707 291.123 238.876 291.661C239.046 292.199 239.13 292.792 239.13 293.439V300.81H236.342V293.439C236.342 292.731 236.178 292.184 235.851 291.796C235.523 291.409 235.032 291.215 234.377 291.215C233.895 291.215 233.444 291.324 233.022 291.542C232.601 291.76 232.202 292.058 231.826 292.434V300.81H229.037Z" fill="url(#paint8_linear_12_155)"/>
<path d="M245.678 300.991C244.677 300.991 243.906 300.707 243.364 300.139C242.822 299.571 242.551 298.786 242.551 297.785V291.316H241.377C241.226 291.316 241.096 291.267 240.987 291.169C240.878 291.072 240.824 290.925 240.824 290.729V289.623L242.686 289.318L243.273 286.157C243.303 286.007 243.373 285.89 243.482 285.807C243.591 285.724 243.729 285.683 243.894 285.683H245.339V289.33H248.388V291.317H245.339V297.594C245.339 297.955 245.43 298.237 245.611 298.44C245.791 298.643 246.032 298.745 246.333 298.745C246.506 298.745 246.651 298.724 246.767 298.683C246.884 298.642 246.986 298.598 247.072 298.553C247.159 298.508 247.236 298.465 247.304 298.423C247.372 298.382 247.439 298.361 247.507 298.361C247.59 298.361 247.658 298.382 247.71 298.423C247.763 298.465 247.819 298.527 247.88 298.61L248.715 299.964C248.309 300.303 247.842 300.559 247.315 300.732C246.788 300.905 246.242 300.991 245.678 300.991Z" fill="url(#paint9_linear_12_155)"/>
<path d="M250.611 300.811V289.228H252.316C252.677 289.228 252.914 289.397 253.027 289.736L253.208 290.594C253.411 290.368 253.624 290.161 253.846 289.973C254.068 289.785 254.305 289.623 254.557 289.487C254.809 289.352 255.08 289.245 255.37 289.166C255.659 289.087 255.977 289.047 256.324 289.047C257.054 289.047 257.654 289.245 258.124 289.64C258.595 290.035 258.947 290.56 259.18 291.215C259.361 290.831 259.586 290.502 259.857 290.227C260.128 289.952 260.426 289.728 260.749 289.555C261.073 289.382 261.417 289.254 261.782 289.171C262.147 289.089 262.514 289.047 262.883 289.047C263.522 289.047 264.091 289.145 264.588 289.341C265.084 289.536 265.502 289.822 265.841 290.198C266.18 290.575 266.437 291.034 266.614 291.576C266.791 292.118 266.879 292.738 266.879 293.439V300.811H264.091V293.439C264.091 292.701 263.929 292.146 263.606 291.774C263.282 291.401 262.807 291.215 262.183 291.215C261.897 291.215 261.632 291.264 261.387 291.362C261.142 291.459 260.928 291.601 260.744 291.785C260.559 291.969 260.414 292.201 260.309 292.479C260.203 292.758 260.151 293.078 260.151 293.439V300.811H257.351V293.439C257.351 292.664 257.195 292.099 256.883 291.745C256.57 291.392 256.109 291.215 255.5 291.215C255.101 291.215 254.727 291.315 254.376 291.514C254.027 291.713 253.701 291.986 253.4 292.333V300.811L250.611 300.811Z" fill="url(#paint10_linear_12_155)"/>
<path d="M272.592 284.034V300.81H269.803V284.034H272.592Z" fill="url(#paint11_linear_12_155)"/>
<path d="M276.837 298.44V296.453C276.837 296.302 276.874 296.165 276.949 296.041C277.025 295.917 277.149 295.809 277.322 295.719L281.42 293.608C281.751 293.443 282.139 293.307 282.583 293.201C282.364 293.149 282.16 293.091 281.967 293.026C281.776 292.963 281.593 292.885 281.42 292.795L277.322 290.695C277.149 290.605 277.024 290.498 276.949 290.373C276.874 290.249 276.836 290.112 276.836 289.961V287.974L285.778 292.637V293.766L276.837 298.44Z" fill="url(#paint12_linear_12_155)"/>
<path d="M104.592 211.269C126.58 211.269 144.404 193.445 144.404 171.457C144.404 149.47 126.58 131.645 104.592 131.645C82.6047 131.645 64.7802 149.47 64.7802 171.457C64.7802 193.445 82.6047 211.269 104.592 211.269Z" fill="url(#paint13_linear_12_155)"/>
<path d="M69.4094 169.643L77.9048 165.213V167.101C77.9048 167.244 77.8689 167.375 77.7971 167.493C77.7256 167.611 77.6075 167.712 77.4435 167.798L73.5496 169.793C73.3852 169.879 73.212 169.952 73.0295 170.013C72.8472 170.074 72.6523 170.129 72.4449 170.179C72.6523 170.229 72.8472 170.285 73.0295 170.345C73.2121 170.406 73.3852 170.479 73.5496 170.565L77.4435 172.571C77.6075 172.657 77.7256 172.759 77.7971 172.876C77.8687 172.995 77.9048 173.125 77.9048 173.268V175.156L69.4094 170.715V169.643Z" fill="url(#paint14_linear_12_155)"/>
<path d="M81.7766 177.409V161.47H84.426V167.594C84.8548 167.187 85.3268 166.858 85.8419 166.607C86.3565 166.357 86.9609 166.232 87.6543 166.232C88.2553 166.232 88.7876 166.334 89.2527 166.538C89.7175 166.741 90.1053 167.028 90.4165 167.396C90.7276 167.765 90.9633 168.204 91.1242 168.715C91.2851 169.227 91.3653 169.79 91.3653 170.405V177.409H88.7162V170.405C88.7162 169.732 88.5605 169.212 88.2494 168.844C87.9384 168.476 87.4718 168.292 86.8496 168.292C86.3918 168.292 85.9631 168.395 85.5626 168.603C85.1621 168.81 84.783 169.093 84.4257 169.45V177.409L81.7766 177.409Z" fill="url(#paint15_linear_12_155)"/>
<path d="M98.5199 166.232C99.2133 166.232 99.8515 166.343 100.434 166.565C101.017 166.786 101.52 167.11 101.941 167.535C102.363 167.96 102.692 168.483 102.928 169.101C103.164 169.72 103.282 170.426 103.282 171.22C103.282 171.42 103.273 171.586 103.255 171.718C103.237 171.851 103.205 171.954 103.159 172.03C103.112 172.104 103.049 172.158 102.971 172.19C102.892 172.222 102.792 172.238 102.671 172.238H95.8706C95.9491 173.368 96.2528 174.198 96.7822 174.727C97.3112 175.257 98.0119 175.521 98.8845 175.521C99.3136 175.521 99.6838 175.471 99.9948 175.37C100.306 175.271 100.577 175.16 100.81 175.038C101.042 174.917 101.246 174.806 101.421 174.706C101.596 174.606 101.766 174.556 101.931 174.556C102.038 174.556 102.131 174.577 102.209 174.62C102.288 174.663 102.356 174.724 102.413 174.802L103.186 175.768C102.892 176.111 102.563 176.399 102.199 176.631C101.834 176.863 101.453 177.049 101.056 177.189C100.659 177.328 100.255 177.426 99.8442 177.483C99.4332 177.541 99.0344 177.569 98.6484 177.569C97.8834 177.569 97.1719 177.442 96.514 177.189C95.8559 176.935 95.2839 176.559 94.7979 176.062C94.3115 175.566 93.9288 174.951 93.6501 174.217C93.3712 173.485 93.2319 172.635 93.2319 171.67C93.2319 170.919 93.3534 170.213 93.5963 169.552C93.8394 168.89 94.1879 168.314 94.642 167.825C95.0962 167.335 95.6504 166.947 96.3047 166.661C96.9591 166.375 97.6972 166.232 98.5199 166.232ZM98.5733 168.13C97.801 168.13 97.1966 168.349 96.7606 168.784C96.3245 169.221 96.0456 169.84 95.924 170.64H100.901C100.901 170.297 100.854 169.974 100.762 169.67C100.669 169.366 100.526 169.1 100.332 168.87C100.139 168.642 99.8964 168.461 99.603 168.329C99.3097 168.196 98.9665 168.13 98.5733 168.13Z" fill="url(#paint16_linear_12_155)"/>
<path d="M114.061 177.409H112.871C112.62 177.409 112.424 177.371 112.281 177.296C112.138 177.221 112.03 177.069 111.959 176.84L111.723 176.057C111.444 176.307 111.171 176.527 110.903 176.717C110.634 176.906 110.357 177.065 110.071 177.194C109.785 177.323 109.481 177.419 109.16 177.483C108.838 177.548 108.48 177.58 108.087 177.58C107.622 177.58 107.193 177.517 106.8 177.392C106.406 177.266 106.068 177.078 105.786 176.827C105.504 176.576 105.284 176.263 105.126 175.89C104.969 175.517 104.89 175.083 104.89 174.588C104.89 174.172 104.999 173.761 105.218 173.356C105.436 172.95 105.799 172.585 106.306 172.258C106.814 171.932 107.49 171.661 108.333 171.445C109.177 171.23 110.225 171.123 111.476 171.123V170.474C111.476 169.732 111.321 169.183 111.01 168.826C110.699 168.469 110.246 168.291 109.653 168.291C109.224 168.291 108.866 168.341 108.58 168.441C108.294 168.541 108.046 168.654 107.835 168.779C107.623 168.904 107.429 169.017 107.25 169.117C107.071 169.217 106.875 169.267 106.66 169.267C106.481 169.267 106.328 169.221 106.199 169.128C106.07 169.035 105.966 168.92 105.888 168.784L105.405 167.937C106.671 166.779 108.197 166.199 109.985 166.199C110.629 166.199 111.203 166.305 111.707 166.516C112.211 166.727 112.638 167.02 112.989 167.395C113.339 167.771 113.605 168.22 113.788 168.742C113.97 169.264 114.061 169.836 114.061 170.458L114.061 177.409ZM108.913 175.757C109.184 175.757 109.435 175.732 109.663 175.683C109.892 175.634 110.109 175.56 110.313 175.461C110.517 175.363 110.713 175.241 110.903 175.097C111.092 174.953 111.283 174.782 111.476 174.585V172.743C110.704 172.743 110.059 172.792 109.54 172.889C109.022 172.986 108.605 173.11 108.291 173.262C107.976 173.413 107.753 173.589 107.62 173.791C107.488 173.992 107.422 174.212 107.422 174.45C107.422 174.918 107.56 175.253 107.835 175.454C108.11 175.656 108.469 175.757 108.913 175.757Z" fill="url(#paint17_linear_12_155)"/>
<path d="M124.412 177.409C124.069 177.409 123.844 177.247 123.736 176.926L123.522 175.864C123.293 176.121 123.053 176.354 122.803 176.561C122.553 176.769 122.283 176.947 121.993 177.097C121.704 177.247 121.393 177.364 121.061 177.446C120.728 177.528 120.369 177.569 119.982 177.569C119.382 177.569 118.831 177.444 118.33 177.194C117.83 176.944 117.399 176.581 117.038 176.105C116.677 175.63 116.398 175.042 116.201 174.341C116.005 173.64 115.907 172.839 115.907 171.938C115.907 171.123 116.017 170.365 116.239 169.664C116.461 168.964 116.779 168.356 117.194 167.841C117.608 167.326 118.105 166.923 118.685 166.634C119.264 166.344 119.914 166.2 120.637 166.2C121.252 166.2 121.777 166.298 122.214 166.495C122.65 166.692 123.039 166.954 123.383 167.283V161.469H126.032V177.408H124.412V177.409ZM120.883 175.467C121.434 175.467 121.902 175.353 122.288 175.124C122.675 174.895 123.039 174.57 123.383 174.148V169.214C123.082 168.849 122.755 168.592 122.401 168.442C122.047 168.292 121.666 168.216 121.259 168.216C120.858 168.216 120.495 168.292 120.17 168.442C119.845 168.592 119.569 168.819 119.344 169.123C119.119 169.427 118.945 169.813 118.824 170.281C118.702 170.75 118.641 171.302 118.641 171.938C118.641 172.582 118.693 173.127 118.797 173.574C118.9 174.021 119.049 174.386 119.242 174.668C119.435 174.951 119.671 175.155 119.95 175.28C120.229 175.405 120.54 175.467 120.883 175.467Z" fill="url(#paint18_linear_12_155)"/>
<path d="M129.936 175.156V173.268C129.936 173.125 129.971 172.995 130.043 172.877C130.114 172.759 130.232 172.657 130.397 172.571L134.29 170.565C134.605 170.408 134.973 170.28 135.395 170.179C135.188 170.129 134.993 170.074 134.811 170.013C134.628 169.952 134.455 169.879 134.29 169.793L130.397 167.798C130.232 167.712 130.114 167.61 130.043 167.493C129.971 167.375 129.936 167.244 129.936 167.101V165.213L138.431 169.643V170.716L129.936 175.156Z" fill="url(#paint19_linear_12_155)"/>
<path d="M224.126 244.164C255.97 244.164 281.783 218.35 281.783 186.507C281.783 154.664 255.97 128.85 224.126 128.85C192.283 128.85 166.469 154.664 166.469 186.507C166.469 218.35 192.283 244.164 224.126 244.164Z" fill="white"/>
<path d="M193.645 186.602L210.309 177.913V181.615C210.309 181.896 210.237 182.152 210.098 182.384C209.957 182.615 209.726 182.815 209.403 182.983L201.766 186.897C201.444 187.065 201.104 187.209 200.746 187.328C200.388 187.447 200.005 187.556 199.599 187.654C200.005 187.752 200.388 187.861 200.746 187.98C201.104 188.099 201.444 188.243 201.766 188.411L209.403 192.346C209.726 192.514 209.957 192.714 210.098 192.946C210.237 193.176 210.309 193.433 210.309 193.713V197.416L193.645 188.706V186.602Z" fill="url(#paint20_linear_12_155)"/>
<path d="M219.712 201.897C219.586 202.22 219.424 202.5 219.228 202.739C219.032 202.978 218.808 203.178 218.555 203.339C218.303 203.5 218.036 203.623 217.756 203.707C217.475 203.792 217.201 203.833 216.935 203.833H214.747L227.034 172.4C227.273 171.811 227.616 171.358 228.065 171.043C228.514 170.728 229.054 170.569 229.685 170.569H231.895L219.712 201.897Z" fill="url(#paint21_linear_12_155)"/>
<path d="M236.229 197.417V193.713C236.229 193.433 236.298 193.177 236.438 192.946C236.578 192.714 236.81 192.514 237.133 192.346L244.77 188.411C245.387 188.103 246.109 187.85 246.937 187.654C246.53 187.556 246.148 187.448 245.791 187.328C245.433 187.209 245.092 187.065 244.77 186.897L237.133 182.984C236.81 182.815 236.578 182.615 236.438 182.384C236.298 182.152 236.229 181.896 236.229 181.615V177.913L252.892 186.602V188.706L236.229 197.417Z" fill="url(#paint22_linear_12_155)"/>
<path d="M142.722 304.576C162.218 304.576 178.023 288.771 178.023 269.275C178.023 249.779 162.218 233.975 142.722 233.975C123.226 233.975 107.422 249.779 107.422 269.275C107.422 288.771 123.226 304.576 142.722 304.576Z" fill="url(#paint23_linear_12_155)"/>
<path d="M122.773 273.367V279.425H119.572V262.217H125.177C126.327 262.217 127.323 262.352 128.164 262.622C129.005 262.892 129.699 263.269 130.246 263.752C130.794 264.236 131.198 264.815 131.46 265.49C131.722 266.164 131.853 266.902 131.853 267.703C131.853 268.536 131.714 269.299 131.436 269.994C131.159 270.688 130.742 271.285 130.187 271.785C129.632 272.285 128.937 272.673 128.105 272.951C127.272 273.229 126.296 273.367 125.177 273.367H122.773ZM122.773 270.869H125.177C125.764 270.869 126.275 270.795 126.712 270.648C127.148 270.502 127.509 270.291 127.795 270.018C128.081 269.744 128.295 269.411 128.438 269.018C128.58 268.625 128.652 268.187 128.652 267.703C128.652 267.243 128.58 266.827 128.438 266.453C128.295 266.081 128.081 265.763 127.795 265.501C127.509 265.24 127.148 265.039 126.712 264.9C126.275 264.762 125.764 264.692 125.177 264.692H122.773V270.869Z" fill="url(#paint24_linear_12_155)"/>
<path d="M148.858 279.425H145.633V271.904H137.565V279.425H134.34V262.218H137.565V269.619H145.633V262.218H148.858V279.425Z" fill="url(#paint25_linear_12_155)"/>
<path d="M155.641 273.367V279.425H152.44V262.217H158.045C159.195 262.217 160.191 262.352 161.032 262.622C161.873 262.892 162.567 263.269 163.115 263.752C163.662 264.236 164.067 264.815 164.329 265.49C164.59 266.164 164.721 266.902 164.721 267.703C164.721 268.536 164.582 269.299 164.305 269.994C164.027 270.688 163.61 271.285 163.055 271.785C162.5 272.285 161.806 272.673 160.973 272.951C160.14 273.229 159.164 273.367 158.045 273.367H155.641ZM155.641 270.869H158.045C158.632 270.869 159.144 270.795 159.58 270.648C160.016 270.502 160.378 270.291 160.663 270.018C160.949 269.744 161.163 269.411 161.306 269.018C161.449 268.625 161.52 268.187 161.52 267.703C161.52 267.243 161.448 266.827 161.306 266.453C161.163 266.081 160.949 265.763 160.663 265.501C160.378 265.24 160.016 265.039 159.58 264.9C159.144 264.762 158.632 264.692 158.045 264.692H155.641V270.869Z" fill="url(#paint26_linear_12_155)"/>
<path d="M359.7 241.949C384.485 241.949 404.578 221.857 404.578 197.071C404.578 172.286 384.485 152.193 359.7 152.193C334.914 152.193 314.822 172.286 314.822 197.071C314.822 221.857 334.914 241.949 359.7 241.949Z" fill="url(#paint27_linear_12_155)"/>
<path d="M338.892 191.364V203H336.767L331.704 195.676H331.619V203H329.159V191.364H331.318L336.341 198.682H336.443V191.364H338.892ZM344.502 203.17C343.62 203.17 342.856 202.983 342.212 202.608C341.572 202.229 341.078 201.703 340.729 201.028C340.381 200.35 340.207 199.564 340.207 198.67C340.207 197.769 340.381 196.981 340.729 196.307C341.078 195.629 341.572 195.102 342.212 194.727C342.856 194.348 343.62 194.159 344.502 194.159C345.385 194.159 346.146 194.348 346.786 194.727C347.43 195.102 347.926 195.629 348.275 196.307C348.623 196.981 348.798 197.769 348.798 198.67C348.798 199.564 348.623 200.35 348.275 201.028C347.926 201.703 347.43 202.229 346.786 202.608C346.146 202.983 345.385 203.17 344.502 203.17ZM344.514 201.295C344.915 201.295 345.25 201.182 345.519 200.955C345.788 200.723 345.991 200.409 346.127 200.011C346.267 199.614 346.337 199.161 346.337 198.653C346.337 198.146 346.267 197.693 346.127 197.295C345.991 196.898 345.788 196.583 345.519 196.352C345.25 196.121 344.915 196.006 344.514 196.006C344.108 196.006 343.767 196.121 343.491 196.352C343.218 196.583 343.012 196.898 342.872 197.295C342.735 197.693 342.667 198.146 342.667 198.653C342.667 199.161 342.735 199.614 342.872 200.011C343.012 200.409 343.218 200.723 343.491 200.955C343.767 201.182 344.108 201.295 344.514 201.295ZM353.267 203.142C352.605 203.142 352.004 202.972 351.466 202.631C350.932 202.286 350.508 201.78 350.194 201.114C349.883 200.443 349.728 199.621 349.728 198.648C349.728 197.648 349.889 196.816 350.211 196.153C350.533 195.487 350.961 194.989 351.495 194.659C352.033 194.326 352.622 194.159 353.262 194.159C353.75 194.159 354.158 194.242 354.483 194.409C354.813 194.572 355.078 194.777 355.279 195.023C355.483 195.265 355.639 195.504 355.745 195.739H355.819V191.364H358.233V203H355.847V201.602H355.745C355.631 201.845 355.47 202.085 355.262 202.324C355.057 202.559 354.79 202.754 354.461 202.909C354.135 203.064 353.737 203.142 353.267 203.142ZM354.034 201.216C354.425 201.216 354.754 201.11 355.023 200.898C355.296 200.682 355.504 200.381 355.648 199.994C355.796 199.608 355.87 199.155 355.87 198.636C355.87 198.117 355.798 197.667 355.654 197.284C355.51 196.902 355.302 196.606 355.029 196.398C354.756 196.189 354.425 196.085 354.034 196.085C353.637 196.085 353.302 196.193 353.029 196.409C352.756 196.625 352.55 196.924 352.409 197.307C352.269 197.689 352.199 198.133 352.199 198.636C352.199 199.144 352.269 199.593 352.409 199.983C352.553 200.369 352.76 200.672 353.029 200.892C353.302 201.108 353.637 201.216 354.034 201.216ZM363.881 203.17C362.983 203.17 362.21 202.989 361.562 202.625C360.919 202.258 360.422 201.739 360.074 201.068C359.725 200.394 359.551 199.597 359.551 198.676C359.551 197.778 359.725 196.991 360.074 196.312C360.422 195.634 360.913 195.106 361.545 194.727C362.182 194.348 362.928 194.159 363.784 194.159C364.36 194.159 364.896 194.252 365.392 194.438C365.892 194.619 366.328 194.894 366.699 195.261C367.074 195.629 367.366 196.091 367.574 196.648C367.782 197.201 367.886 197.848 367.886 198.591V199.256H360.517V197.756H365.608C365.608 197.407 365.532 197.098 365.381 196.83C365.229 196.561 365.019 196.35 364.75 196.199C364.485 196.044 364.176 195.966 363.824 195.966C363.456 195.966 363.131 196.051 362.847 196.222C362.566 196.388 362.347 196.614 362.188 196.898C362.028 197.178 361.947 197.491 361.943 197.835V199.261C361.943 199.693 362.023 200.066 362.182 200.381C362.345 200.695 362.574 200.938 362.869 201.108C363.165 201.278 363.515 201.364 363.92 201.364C364.189 201.364 364.436 201.326 364.659 201.25C364.883 201.174 365.074 201.061 365.233 200.909C365.392 200.758 365.513 200.572 365.597 200.352L367.835 200.5C367.722 201.038 367.489 201.508 367.136 201.909C366.788 202.307 366.337 202.617 365.784 202.841C365.235 203.061 364.6 203.17 363.881 203.17ZM377.234 191.364H379.665V199.477C379.665 200.227 379.497 200.879 379.16 201.432C378.826 201.985 378.362 202.411 377.768 202.71C377.173 203.009 376.482 203.159 375.694 203.159C374.993 203.159 374.357 203.036 373.785 202.79C373.217 202.54 372.766 202.161 372.432 201.653C372.099 201.142 371.934 200.5 371.938 199.727H374.387C374.395 200.034 374.457 200.297 374.574 200.517C374.696 200.733 374.86 200.9 375.069 201.017C375.281 201.131 375.531 201.188 375.819 201.188C376.122 201.188 376.378 201.123 376.586 200.994C376.798 200.862 376.959 200.669 377.069 200.415C377.179 200.161 377.234 199.848 377.234 199.477V191.364ZM387.692 194.71C387.647 194.252 387.451 193.896 387.107 193.642C386.762 193.388 386.294 193.261 385.703 193.261C385.302 193.261 384.963 193.318 384.686 193.432C384.41 193.542 384.198 193.695 384.05 193.892C383.906 194.089 383.834 194.312 383.834 194.562C383.826 194.771 383.87 194.953 383.965 195.108C384.063 195.263 384.198 195.398 384.368 195.511C384.539 195.621 384.736 195.718 384.959 195.801C385.183 195.881 385.421 195.949 385.675 196.006L386.72 196.256C387.228 196.369 387.694 196.521 388.118 196.71C388.542 196.9 388.91 197.133 389.22 197.409C389.531 197.686 389.772 198.011 389.942 198.386C390.116 198.761 390.205 199.191 390.209 199.676C390.205 200.388 390.023 201.006 389.664 201.528C389.308 202.047 388.792 202.451 388.118 202.739C387.448 203.023 386.639 203.165 385.692 203.165C384.753 203.165 383.934 203.021 383.237 202.733C382.544 202.445 382.003 202.019 381.612 201.455C381.226 200.886 381.023 200.184 381.004 199.347H383.385C383.412 199.737 383.523 200.062 383.72 200.324C383.921 200.581 384.188 200.777 384.522 200.909C384.859 201.038 385.239 201.102 385.664 201.102C386.08 201.102 386.442 201.042 386.749 200.92C387.059 200.799 387.3 200.631 387.47 200.415C387.641 200.199 387.726 199.951 387.726 199.67C387.726 199.409 387.648 199.189 387.493 199.011C387.342 198.833 387.118 198.682 386.823 198.557C386.531 198.432 386.173 198.318 385.749 198.216L384.482 197.898C383.501 197.659 382.726 197.286 382.158 196.778C381.59 196.271 381.308 195.587 381.311 194.727C381.308 194.023 381.495 193.407 381.874 192.881C382.256 192.354 382.781 191.943 383.448 191.648C384.114 191.352 384.872 191.205 385.72 191.205C386.584 191.205 387.338 191.352 387.982 191.648C388.629 191.943 389.133 192.354 389.493 192.881C389.853 193.407 390.039 194.017 390.05 194.71H387.692Z" fill="black"/>
<path d="M305.375 150.292C329.387 150.292 348.852 130.827 348.852 106.815C348.852 82.8032 329.387 63.3378 305.375 63.3378C281.363 63.3378 261.898 82.8032 261.898 106.815C261.898 130.827 281.363 150.292 305.375 150.292Z" fill="url(#paint28_linear_12_155)"/>
<path d="M283.231 94.1448C283.231 95.1022 283.113 95.9654 282.878 96.7342C282.642 97.5031 282.291 98.1582 281.824 98.6995C281.357 99.2408 280.775 99.6569 280.077 99.9468C279.378 100.237 278.566 100.382 277.64 100.382C277.217 100.382 276.801 100.357 276.393 100.306C275.985 100.255 275.557 100.174 275.11 100.064L275.275 98.1814C275.29 98.009 275.355 97.8695 275.469 97.7638C275.583 97.6578 275.749 97.6048 275.969 97.6048C276.103 97.6048 276.277 97.6324 276.493 97.6872C276.709 97.7421 276.981 97.7696 277.311 97.7696C277.758 97.7696 278.154 97.7048 278.499 97.5754C278.845 97.4459 279.133 97.2402 279.364 96.9574C279.596 96.6751 279.77 96.3084 279.889 95.857C280.006 95.4057 280.065 94.8587 280.065 94.2151V83.1758H283.231V94.1448Z" fill="url(#paint29_linear_12_155)"/>
<path d="M301.014 100.194H298.566C298.291 100.194 298.066 100.125 297.889 99.9884C297.713 99.8511 297.585 99.6803 297.507 99.4761L296.236 96.0043H289.186L287.915 99.4761C287.852 99.6568 287.728 99.8216 287.544 99.9706C287.36 100.12 287.134 100.194 286.868 100.194H284.408L291.093 83.1759H294.329L301.014 100.194ZM289.998 93.7681H295.423L293.352 88.1072C293.258 87.8563 293.154 87.5598 293.041 87.2185C292.927 86.8775 292.815 86.5066 292.705 86.1063C292.595 86.5066 292.487 86.8794 292.382 87.2246C292.276 87.5697 292.172 87.8716 292.07 88.1306L289.998 93.7681Z" fill="url(#paint30_linear_12_155)"/>
<path d="M299.108 83.1759H301.661C301.937 83.1759 302.16 83.2426 302.333 83.3758C302.505 83.5096 302.634 83.682 302.721 83.8937L306.722 94.2739C306.856 94.6114 306.983 94.9823 307.105 95.3861C307.226 95.7903 307.342 96.2159 307.452 96.6631C307.633 95.7609 307.856 94.9644 308.123 94.2741L312.113 83.8939C312.183 83.7135 312.309 83.5487 312.489 83.3997C312.67 83.2506 312.893 83.1759 313.16 83.1759H315.714L308.841 100.194H305.981L299.108 83.1759Z" fill="url(#paint31_linear_12_155)"/>
<path d="M330.46 100.194H328.012C327.738 100.194 327.512 100.125 327.336 99.9884C327.159 99.8511 327.031 99.6803 326.953 99.4761L325.682 96.0043H318.632L317.362 99.4761C317.298 99.6568 317.175 99.8216 316.991 99.9706C316.806 100.12 316.581 100.194 316.314 100.194H313.854L320.539 83.1759H323.775L330.46 100.194ZM319.445 93.7681H324.87L322.799 88.1072C322.705 87.8563 322.6 87.5598 322.487 87.2185C322.373 86.8775 322.261 86.5066 322.151 86.1063C322.042 86.5066 321.934 86.8794 321.828 87.2246C321.722 87.5697 321.618 87.8716 321.516 88.1306L319.445 93.7681Z" fill="url(#paint32_linear_12_155)"/>
<path d="M285.502 114.517C285.416 114.69 285.316 114.811 285.202 114.882C285.088 114.953 284.953 114.988 284.796 114.988C284.639 114.988 284.462 114.927 284.267 114.805C284.07 114.684 283.839 114.549 283.572 114.399C283.305 114.25 282.993 114.115 282.636 113.993C282.279 113.872 281.858 113.811 281.371 113.811C280.932 113.811 280.549 113.864 280.224 113.97C279.898 114.076 279.623 114.223 279.4 114.411C279.176 114.6 279.01 114.825 278.9 115.088C278.79 115.351 278.735 115.639 278.735 115.953C278.735 116.353 278.847 116.687 279.07 116.954C279.294 117.22 279.59 117.448 279.959 117.636C280.327 117.824 280.747 117.993 281.218 118.142C281.689 118.291 282.169 118.45 282.66 118.619C283.15 118.788 283.631 118.984 284.102 119.207C284.572 119.431 284.992 119.713 285.361 120.054C285.73 120.396 286.026 120.814 286.249 121.308C286.473 121.802 286.585 122.403 286.585 123.109C286.585 123.878 286.453 124.597 286.19 125.268C285.928 125.939 285.543 126.524 285.037 127.022C284.531 127.52 283.913 127.912 283.184 128.199C282.454 128.485 281.618 128.628 280.677 128.628C280.135 128.628 279.602 128.576 279.076 128.469C278.55 128.364 278.046 128.212 277.563 128.016C277.081 127.82 276.63 127.585 276.21 127.31C275.79 127.035 275.416 126.73 275.086 126.392L276.004 124.874C276.09 124.764 276.194 124.672 276.316 124.597C276.438 124.523 276.573 124.485 276.722 124.485C276.918 124.485 277.13 124.566 277.358 124.727C277.585 124.888 277.854 125.066 278.164 125.262C278.474 125.459 278.839 125.637 279.258 125.798C279.678 125.959 280.183 126.039 280.771 126.039C281.673 126.039 282.372 125.826 282.866 125.398C283.36 124.97 283.607 124.356 283.607 123.556C283.607 123.109 283.496 122.744 283.272 122.461C283.048 122.179 282.752 121.942 282.383 121.749C282.015 121.557 281.595 121.395 281.124 121.261C280.653 121.127 280.174 120.982 279.688 120.825C279.202 120.669 278.723 120.48 278.252 120.261C277.782 120.041 277.362 119.755 276.993 119.401C276.624 119.048 276.328 118.607 276.104 118.077C275.881 117.548 275.769 116.895 275.769 116.118C275.769 115.498 275.892 114.894 276.14 114.306C276.387 113.717 276.748 113.195 277.223 112.74C277.697 112.285 278.28 111.921 278.97 111.646C279.661 111.371 280.449 111.234 281.335 111.234C282.34 111.234 283.266 111.391 284.113 111.704C284.96 112.019 285.682 112.458 286.278 113.023L285.502 114.517Z" fill="url(#paint33_linear_12_155)"/>
<path d="M297.33 118.918C297.244 119.028 297.159 119.114 297.077 119.177C296.994 119.24 296.874 119.271 296.718 119.271C296.569 119.271 296.423 119.226 296.282 119.136C296.141 119.046 295.973 118.944 295.777 118.83C295.581 118.716 295.347 118.614 295.076 118.524C294.805 118.434 294.47 118.388 294.07 118.388C293.56 118.388 293.112 118.481 292.728 118.665C292.344 118.85 292.023 119.115 291.769 119.46C291.514 119.805 291.323 120.223 291.198 120.713C291.072 121.203 291.01 121.759 291.01 122.378C291.01 123.022 291.078 123.594 291.216 124.097C291.353 124.599 291.551 125.02 291.81 125.362C292.069 125.703 292.383 125.962 292.751 126.138C293.12 126.315 293.536 126.403 293.999 126.403C294.462 126.403 294.837 126.346 295.123 126.232C295.409 126.119 295.651 125.993 295.847 125.856C296.043 125.719 296.214 125.593 296.359 125.479C296.504 125.366 296.667 125.309 296.847 125.309C297.083 125.309 297.259 125.399 297.377 125.579L298.212 126.638C297.89 127.015 297.542 127.331 297.165 127.586C296.788 127.841 296.398 128.045 295.994 128.198C295.59 128.351 295.172 128.458 294.74 128.521C294.309 128.584 293.881 128.616 293.458 128.616C292.712 128.616 292.01 128.476 291.351 128.198C290.692 127.919 290.117 127.513 289.627 126.98C289.136 126.446 288.748 125.793 288.462 125.02C288.176 124.247 288.032 123.367 288.032 122.378C288.032 121.491 288.159 120.67 288.415 119.913C288.67 119.155 289.044 118.5 289.539 117.947C290.033 117.394 290.645 116.96 291.375 116.647C292.104 116.333 292.944 116.176 293.893 116.176C294.796 116.176 295.586 116.321 296.265 116.611C296.943 116.902 297.553 117.318 298.095 117.859L297.33 118.918Z" fill="url(#paint34_linear_12_155)"/>
<path d="M300.072 128.44V116.365H301.778C302.077 116.365 302.284 116.42 302.402 116.53C302.52 116.64 302.598 116.828 302.637 117.094L302.815 118.554C303.246 117.809 303.752 117.22 304.332 116.788C304.913 116.357 305.564 116.141 306.286 116.141C306.882 116.141 307.377 116.278 307.769 116.553L307.393 118.73C307.369 118.872 307.318 118.972 307.239 119.031C307.161 119.089 307.055 119.119 306.922 119.119C306.804 119.119 306.643 119.091 306.439 119.036C306.235 118.982 305.964 118.954 305.627 118.954C305.023 118.954 304.505 119.121 304.074 119.454C303.642 119.788 303.277 120.276 302.979 120.919V128.44H300.072Z" fill="url(#paint35_linear_12_155)"/>
<path d="M313.218 112.845C313.218 113.097 313.167 113.332 313.065 113.552C312.963 113.771 312.827 113.964 312.659 114.128C312.49 114.293 312.292 114.425 312.065 114.523C311.837 114.621 311.594 114.67 311.335 114.67C311.084 114.67 310.847 114.621 310.623 114.523C310.399 114.425 310.205 114.293 310.04 114.128C309.876 113.964 309.744 113.771 309.646 113.552C309.548 113.332 309.499 113.097 309.499 112.845C309.499 112.587 309.548 112.344 309.646 112.116C309.744 111.888 309.876 111.692 310.04 111.528C310.205 111.363 310.399 111.231 310.623 111.133C310.847 111.035 311.084 110.986 311.335 110.986C311.594 110.986 311.837 111.035 312.065 111.133C312.292 111.231 312.49 111.363 312.659 111.528C312.827 111.692 312.963 111.889 313.065 112.116C313.167 112.343 313.218 112.587 313.218 112.845ZM312.783 116.365V128.439H309.875V116.365H312.783Z" fill="url(#paint36_linear_12_155)"/>
<path d="M316.066 132.382V116.365H317.843C318.031 116.365 318.192 116.408 318.326 116.494C318.459 116.581 318.545 116.714 318.584 116.894L318.82 118.012C319.306 117.455 319.865 117.004 320.497 116.659C321.128 116.314 321.868 116.141 322.715 116.141C323.374 116.141 323.976 116.278 324.522 116.553C325.067 116.828 325.538 117.226 325.934 117.748C326.33 118.27 326.636 118.913 326.852 119.678C327.068 120.443 327.176 121.32 327.176 122.308C327.176 123.21 327.054 124.046 326.811 124.815C326.568 125.584 326.221 126.251 325.769 126.816C325.318 127.38 324.773 127.822 324.133 128.14C323.494 128.457 322.778 128.616 321.986 128.616C321.303 128.616 320.725 128.512 320.25 128.304C319.775 128.097 319.349 127.808 318.973 127.439V132.382H316.066ZM321.715 118.436C321.111 118.436 320.595 118.563 320.168 118.819C319.74 119.073 319.342 119.432 318.973 119.895V125.309C319.302 125.717 319.661 126.001 320.05 126.162C320.438 126.323 320.856 126.404 321.303 126.404C321.742 126.404 322.14 126.321 322.498 126.157C322.855 125.992 323.156 125.741 323.404 125.403C323.651 125.066 323.841 124.64 323.975 124.126C324.108 123.612 324.175 123.006 324.175 122.308C324.175 121.602 324.117 121.003 324.004 120.513C323.89 120.023 323.727 119.624 323.516 119.318C323.303 119.013 323.047 118.789 322.744 118.648C322.442 118.507 322.099 118.436 321.715 118.436Z" fill="url(#paint37_linear_12_155)"/>
<path d="M333.343 128.628C332.299 128.628 331.495 128.332 330.93 127.739C330.365 127.147 330.083 126.329 330.083 125.285V118.542H328.859C328.702 118.542 328.566 118.491 328.453 118.389C328.339 118.287 328.282 118.134 328.282 117.93V116.777L330.224 116.459L330.836 113.164C330.867 113.006 330.94 112.885 331.054 112.798C331.168 112.712 331.311 112.669 331.483 112.669H332.99V116.47H336.168V118.542H332.99V125.085C332.99 125.462 333.084 125.756 333.272 125.968C333.461 126.18 333.711 126.286 334.026 126.286C334.206 126.286 334.357 126.264 334.479 126.221C334.6 126.178 334.706 126.133 334.797 126.086C334.887 126.038 334.967 125.994 335.038 125.951C335.108 125.908 335.179 125.886 335.25 125.886C335.336 125.886 335.407 125.907 335.462 125.951C335.516 125.994 335.575 126.058 335.638 126.145L336.509 127.557C336.085 127.91 335.599 128.177 335.05 128.357C334.5 128.538 333.931 128.628 333.343 128.628Z" fill="url(#paint38_linear_12_155)"/>
<path d="M350.004 243.188C350.746 242.466 350.711 241.266 349.93 240.587L257.635 158.238C257.376 158.007 257.004 157.954 256.691 158.104C256.142 158.367 256.032 159.101 256.48 159.513L347.577 243.222C348.267 243.856 349.332 243.841 350.004 243.188Z" fill="url(#paint39_linear_12_155)"/>
<path d="M403.972 445.932C403.97 445.801 403.979 445.669 404.012 445.535C405.988 437.703 415.793 432.825 415.793 432.825L419.679 433.129C421.913 440.033 421.626 444.266 421.267 446.152C421.257 446.205 421.241 446.255 421.227 446.307C418.022 446.593 411.425 446.78 403.972 445.932Z" fill="url(#paint40_linear_12_155)"/>
<path d="M421.227 446.307C421.054 446.936 420.589 447.426 419.994 447.552C415.434 448.511 408.188 447.739 405.145 447.341C404.474 447.253 403.983 446.632 403.972 445.932C411.425 446.78 418.022 446.593 421.227 446.307Z" fill="url(#paint41_linear_12_155)"/>
<path d="M436.614 307.281C439.013 309.843 442.547 312.056 445.033 313.436C441.32 318.026 436.296 322.622 429.644 327.121L427.74 331.393L421.641 324.083C421.641 324.083 432.586 318.637 436.614 307.281Z" fill="url(#paint42_linear_12_155)"/>
<path d="M421.241 427.342L419.596 435.264C419.475 435.845 419.029 436.279 418.489 436.33C417.828 436.392 416.886 436.428 415.939 436.289C415.09 436.165 414.499 435.302 414.65 434.376L415.794 427.342H421.241Z" fill="url(#paint43_linear_12_155)"/>
<path d="M387.145 446.227C391.436 446.107 393.655 445.602 394.803 445.133C394.805 445.559 394.803 445.994 394.789 446.443C394.775 446.924 394.419 447.308 393.981 447.305L370.419 447.153C369.667 447.148 369.228 446.276 369.553 445.586C372.643 445.842 380.511 446.413 387.145 446.227Z" fill="url(#paint44_linear_12_155)"/>
<path d="M369.553 445.586C369.582 445.526 369.606 445.465 369.647 445.409C371.727 442.501 377.027 436.711 387.5 434.2L392.524 434.042C392.524 434.042 394.76 437.93 394.803 445.133C393.655 445.602 391.436 446.107 387.144 446.227C380.511 446.413 372.642 445.841 369.553 445.586Z" fill="url(#paint45_linear_12_155)"/>
<path d="M393.455 426.428C393.399 426.803 392.711 432.494 392.444 434.701C392.381 435.226 392.001 435.631 391.522 435.689C390.667 435.791 389.282 435.884 388.071 435.636C387.418 435.502 386.945 434.874 386.945 434.144V425.21L393.455 426.428Z" fill="url(#paint46_linear_12_155)"/>
<path d="M397.486 322.56C397.486 322.56 385.369 368.61 385.588 426.56C385.592 427.616 386.333 428.528 387.367 428.746C388.891 429.067 391.13 429.448 392.984 429.396C393.974 429.368 394.801 428.634 394.968 427.658C396.667 417.694 406.417 361.563 411.973 352.451C411.973 352.451 415.628 402.443 414.46 428.38C414.431 429.025 414.903 429.584 415.544 429.659C416.517 429.771 418.073 429.856 420.053 429.646C420.805 429.566 421.412 428.998 421.519 428.249C422.729 419.817 429.695 369.623 429.399 333.465C429.382 331.426 424.007 322.56 424.007 322.56H397.486V322.56Z" fill="url(#paint47_linear_12_155)"/>
<path d="M378.903 260.536C381.025 255.113 384.604 251.4 388.204 247.109C401.694 249.555 423.804 251.738 433.025 252.899C435.903 253.262 438.536 254.681 440.433 256.876C447.956 265.583 464.464 289.418 445.034 313.436C442.547 312.056 439.014 309.842 436.614 307.281C438.764 301.221 438.94 293.477 434.435 283.981C434.281 284.733 434.09 285.479 433.859 286.212C427.649 305.884 427.318 322.254 427.332 326.027C427.334 326.539 427.026 327.001 426.551 327.191C418.378 330.466 402.647 328.517 397.367 327.73C396.398 327.586 395.747 326.684 395.881 325.714C398.473 306.938 385.171 276.05 381.658 268.313C381.144 267.182 380.239 266.272 379.106 265.76C378.538 265.503 377.981 265.241 377.431 264.976C377.85 263.478 378.332 261.996 378.903 260.536Z" fill="url(#paint48_linear_12_155)"/>
<path d="M418.899 234.836L419.861 251.622C419.89 252.117 419.567 252.564 419.086 252.685C416.956 253.223 411.068 254.292 405.943 251.376C405.279 250.998 404.972 250.202 405.18 249.467L409.466 234.384L418.899 234.836Z" fill="url(#paint49_linear_12_155)"/>
<path d="M408.396 216.495C408.178 216.7 399.2 234.329 399.2 234.329L409.375 239.241L420.366 223.796C420.366 223.796 412.043 213.061 408.396 216.495Z" fill="url(#paint50_linear_12_155)"/>
<path d="M415.864 224.224C416.046 224.693 416.001 225.217 415.742 225.649L410.668 234.109C410.591 234.237 410.499 234.353 410.389 234.455C409.785 235.017 407.718 236.653 406.12 234.426C404.759 232.528 403.481 230.803 402.112 230.091C401.312 229.676 400.328 230.008 399.922 230.812C399.086 232.469 397.467 235.847 396.449 239.05C396.194 239.853 396.608 240.715 397.389 241.032C399.45 241.866 403.522 243.376 407.135 243.875C407.728 243.957 408.316 243.706 408.669 243.222C410.224 241.093 414.606 235.141 416.101 233.651C417.49 232.267 420.054 232.789 421.21 233.121C421.648 233.247 422.115 233.186 422.506 232.951C423.679 232.245 425.724 230.486 423.853 227.509C423.388 226.769 423.625 225.783 424.355 225.303C425.664 224.442 427.084 222.826 425.731 220.209C424.362 217.56 421.915 217.322 420.25 217.525C419.512 217.615 418.764 217.229 418.481 216.542C418.355 216.237 418.107 215.976 417.644 215.883C416.771 215.705 416.198 214.907 416.369 214.033C416.663 212.533 416.442 210.586 414.048 209.27C409.658 206.856 405.812 210.789 404.834 214.109C403.856 217.429 408.765 219.776 411.852 220.167C414.12 220.455 415.364 222.93 415.864 224.224Z" fill="url(#paint51_linear_12_155)"/>
<path d="M414.195 236.758C414.195 236.758 416.147 231.046 418.646 231.255C421.145 231.465 423.112 233.954 420.015 236.753C416.163 240.234 414.195 236.758 414.195 236.758Z" fill="url(#paint52_linear_12_155)"/>
<path d="M435.259 282.51C438.552 273.495 437.357 262.611 437.345 262.502L436.437 262.606C436.45 262.713 437.619 273.388 434.4 282.196L435.259 282.51Z" fill="url(#paint53_linear_12_155)"/>
<path d="M412.418 351.277C412.621 351.277 412.807 351.14 412.86 350.934C413.865 347.059 421.389 342.8 421.465 342.757C421.685 342.634 421.763 342.355 421.64 342.135C421.516 341.915 421.239 341.836 421.018 341.96C420.694 342.142 413.077 346.453 411.975 350.705C411.912 350.949 412.059 351.199 412.303 351.262C412.341 351.272 412.38 351.277 412.418 351.277Z" fill="url(#paint54_linear_12_155)"/>
<path d="M348.045 252.318C360.872 257.006 388.204 247.109 388.204 247.109L390.085 269.441C368.197 276.361 353.954 274.346 344.693 268.539C344.117 261.938 346.101 256.193 348.045 252.318Z" fill="url(#paint55_linear_12_155)"/>
<path d="M327.624 229.271L332.992 228.208C332.992 228.208 334.455 245.287 346.411 251.6C346.923 251.871 347.471 252.108 348.045 252.318C346.101 256.193 344.117 261.938 344.693 268.539C325.872 256.737 327.624 229.271 327.624 229.271Z" fill="url(#paint56_linear_12_155)"/>
<path d="M332.719 229.696L332.991 228.207C332.991 228.207 334.111 224.571 331.149 220.991C326.868 215.817 323.735 217.72 323.735 217.72C323.735 217.72 323.957 218.827 323.942 219.808C323.93 220.6 322.981 221.001 322.398 220.465L315.411 214.044C315.411 214.044 313.454 224.241 328.438 231.25L332.719 229.696Z" fill="url(#paint57_linear_12_155)"/>
<path d="M130.779 398.409C130.705 398.38 91.0227 328.887 85.6605 322.347C84.7583 321.247 83.3623 320.687 81.9495 320.855L70.8736 322.175L57.8617 350.325L79.5391 337.7C77.3941 352.535 105.242 374.582 114.792 382.627C115.762 383.443 115.841 384.905 114.966 385.822L111.153 389.813C117.413 396.158 124.636 400.232 132.789 402.117L130.779 398.409Z" fill="url(#paint58_linear_12_155)"/>
<path d="M113.358 387.659C113.358 387.659 110.925 388.445 110.101 390.612C109.707 391.649 110.132 392.823 111.033 393.469C115.041 396.34 128.258 405.608 134.357 407.424C134.857 407.572 135.333 407.12 135.22 406.611C134.907 405.194 133.895 402.364 130.633 398.222L130.926 398.814C131.296 399.563 130.48 400.343 129.753 399.932C125.673 397.63 117.364 392.589 113.358 387.659Z" fill="url(#paint59_linear_12_155)"/>
<path d="M115.322 415.465C115.256 415.422 109.302 401.078 109.235 401.035C103.777 367.8 90.4581 339.336 86.5305 331.846C85.8696 330.587 84.6159 329.756 83.1982 329.634L72.0843 328.685L53.6447 353.619L77.4286 345.643C72.3257 359.737 95.1354 386.963 102.86 396.774C103.644 397.77 103.426 399.218 102.384 399.938L97.8418 403.075C102.688 410.556 108.937 416.007 116.54 419.503L115.322 415.465Z" fill="url(#paint60_linear_12_155)"/>
<path d="M100.438 401.412C100.438 401.412 97.8957 401.689 96.6501 403.645C96.0542 404.581 96.2327 405.817 96.985 406.632C100.328 410.254 111.396 422.006 117.002 425.018C117.462 425.265 118.019 424.918 118.012 424.396C117.992 422.945 117.573 419.97 115.217 415.253L115.384 415.892C115.595 416.7 114.638 417.299 114.009 416.75C110.48 413.669 103.363 407.051 100.438 401.412Z" fill="url(#paint61_linear_12_155)"/>
<path d="M20.0614 323.434C20.0614 323.434 10.0075 338.388 9.18245 345.21C8.35757 352.031 11.9625 354.39 22.4857 355.26C53.8007 357.849 69.2379 348.463 69.2379 348.463C71.3801 334.805 72.9043 331.33 90.7952 323.904C90.7952 323.904 68.1663 325.7 63.6121 323.933C59.0579 322.166 20.0614 323.434 20.0614 323.434Z" fill="url(#paint62_linear_12_155)"/>
<path d="M60.1535 239.652C60.1535 239.652 53.151 231.367 45.7065 241.533C44.3582 243.374 39.1794 241.855 37.281 245.708C36.3008 247.698 34.1834 248.828 32.0022 248.426C26.5699 247.424 17.6904 247.339 13.3063 255.852C9.95994 262.35 12.5436 266.153 15.8887 268.321C18.3456 269.914 19.2226 273.146 17.7368 275.669C16.3119 278.089 16.0439 281.366 19.7234 285.309C27.9689 294.146 44.2912 279.701 44.2912 279.701L57.2509 249.077L60.1535 239.652Z" fill="url(#paint63_linear_12_155)"/>
<path d="M47.2515 321.455C47.2515 321.455 58.9594 310.306 64.7226 302.922C67.8379 298.931 68.8162 293.676 67.3755 288.822C64.7443 279.958 60.0683 270.776 59.6418 269.347C58.9881 267.157 45.8605 267.248 45.8605 267.248C45.8605 267.248 20.0278 284.014 9.87814 312.414L21.2769 315.962C21.2769 315.962 28.0219 304.647 34.6862 297.452C34.6862 297.452 23.1544 312.686 22.7483 318.922L47.2515 321.455Z" fill="url(#paint64_linear_12_155)"/>
<path d="M69.5588 325.854L60.7614 316.282L50.6015 319.018C50.6015 319.018 38.7566 320.853 31.9773 319.018C25.198 317.183 25.198 317.183 25.198 317.183L9.87824 312.414L7.47221 319.213C6.86117 320.94 7.47517 322.857 8.96786 323.917C10.2932 324.859 11.8468 325.894 12.8372 326.327C14.8547 327.21 59.3118 326.606 59.3118 326.606L69.5588 325.854Z" fill="url(#paint65_linear_12_155)"/>
<path d="M54.8828 251.464L46.0596 267.871C46.6423 271.453 55.6627 271.554 57.056 269.415C57.1979 269.198 57.2789 268.946 57.3328 268.692L62.6109 257.729C62.8375 256.66 59.9069 253.058 58.9424 252.545L55.4355 250.678C54.085 249.959 59.7199 249.903 54.8828 251.464Z" fill="url(#paint66_linear_12_155)"/>
<path d="M72.7393 247.614C72.7393 247.614 73.7351 253.157 69.3784 260.205C65.0216 267.253 60.6831 266.935 58.4789 264.421C56.2747 261.908 53.6345 257.721 54.8358 250.692C56.0372 243.663 71.2342 240.545 72.7393 247.614Z" fill="url(#paint67_linear_12_155)"/>
<path d="M60.1101 251.456C60.1101 251.456 67.1649 242.19 72.581 250.267L72.4896 253.058C72.4896 253.058 79.5329 252.729 78.7691 246.237C78.0054 239.745 72.2552 235.311 64.2836 237.529C56.312 239.747 51.6541 242.272 50.754 247.807C49.8537 253.342 54.373 252.437 54.373 252.437C54.373 252.437 56.0992 248.618 58.1838 248.358C60.2682 248.097 59.5151 251.117 59.5151 251.117L60.1101 251.456Z" fill="url(#paint68_linear_12_155)"/>
<path d="M58.4912 251.209C58.4912 251.209 62.1456 246.467 58.8191 245.483C55.4926 244.498 55.6169 250.129 55.8336 252.224L58.4912 251.209Z" fill="url(#paint69_linear_12_155)"/>
<path d="M40.4385 329.642C40.4693 329.644 40.5003 329.644 40.5315 329.644L80.9954 329.6C81.9956 329.599 82.8057 328.787 82.8047 327.787C82.8036 326.786 81.9888 325.96 80.9914 325.978L40.5274 326.022C39.5272 326.023 38.7171 326.835 38.7182 327.835C38.7194 328.804 39.4816 329.595 40.4385 329.642Z" fill="url(#paint70_linear_12_155)"/>
<path d="M117.371 292.904H83.672C81.1861 292.904 78.9233 294.338 77.863 296.587L62.2841 329.621H104.162C105.764 329.621 107.204 328.642 107.793 327.152L119.873 296.584C120.571 294.818 119.27 292.904 117.371 292.904Z" fill="url(#paint71_linear_12_155)"/>
<path d="M93.6297 309.841C92.8996 312.11 93.4389 314.313 94.8347 314.762C96.2304 315.212 97.9539 313.736 98.6842 311.468C99.4145 309.199 98.875 306.995 97.4792 306.546C96.0835 306.097 94.3599 307.572 93.6297 309.841Z" fill="url(#paint72_linear_12_155)"/>
<path d="M73.7157 12.8557C73.7236 12.6304 73.7305 12.4237 73.7363 12.2445C73.7523 11.7388 73.5473 11.2547 73.1709 10.9167C70.9647 8.93576 62.703 2.14168 51.0271 0.0252317C50.3979 -0.0888273 49.8522 0.195364 49.5457 0.644634C50.5189 0.762524 51.8232 1.01102 53.5808 1.47265C59.3523 2.9885 67.7437 7.02254 73.7157 12.8557Z" fill="url(#paint73_linear_12_155)"/>
<path d="M53.581 1.47194C51.8236 1.0103 50.5192 0.761985 49.5459 0.643921C49.2377 1.0958 49.1719 1.71451 49.5083 2.26304C49.6976 2.57161 49.9306 2.9056 50.2169 3.26397C52.0441 5.55194 66.812 20.7038 66.812 20.7038C66.812 20.7038 71.5005 21.2759 72.9336 20.4453C73.398 20.176 73.6286 15.3095 73.7158 12.855C67.7438 7.02217 59.3524 2.98814 53.581 1.47194Z" fill="url(#paint74_linear_12_155)"/>
<path d="M73.154 28.5934V19.5686C73.154 18.8043 72.6687 18.1177 71.9409 17.8842C70.8209 17.5248 69.0989 17.1884 67.533 17.775C66.6143 18.1193 65.9968 18.9908 65.9186 19.9688L65.2461 28.3975L73.154 28.5934Z" fill="url(#paint75_linear_12_155)"/>
<path d="M37.3625 20.6023C37.2545 20.2469 37.0461 19.9496 36.7788 19.7274C34.8849 20.1015 30.9395 21.1451 22.857 23.999C13.4867 27.3076 10.7439 30.1965 9.95367 31.7416C13.9687 32.9172 23.0934 34.7144 36.1831 32.1564L38.7691 30.9439C38.7691 30.9439 38.5879 24.6373 37.3625 20.6023Z" fill="url(#paint76_linear_12_155)"/>
<path d="M22.857 23.9989C30.9396 21.145 34.8849 20.1014 36.7788 19.7274C36.3621 19.3808 35.7998 19.2212 35.2328 19.3392C30.5794 20.3076 16.5181 23.6176 9.16936 29.5751C8.43572 30.1699 8.65043 31.3436 9.55315 31.6215C9.6801 31.6606 9.81436 31.7008 9.95349 31.7415C10.7439 30.1964 13.4867 27.3075 22.857 23.9989Z" fill="url(#paint77_linear_12_155)"/>
<path d="M43.6121 36.3943L38.1046 29.7944C37.5684 29.1518 36.6962 28.8976 35.9011 29.1586C35.0196 29.448 33.8482 30.0455 32.7149 31.2776C32.1862 31.8523 32.0824 32.7038 32.4403 33.3978L36.4468 41.1619L43.6121 36.3943Z" fill="url(#paint78_linear_12_155)"/>
<path d="M64.0395 25.4513C64.0395 25.4513 70.7601 24.1609 74.4894 25.4513C74.4894 25.4513 79.4044 54.9494 78.5598 64.4342L64.0393 67.3855C64.0393 67.3855 63.627 34.1506 64.0395 25.4513Z" fill="url(#paint79_linear_12_155)"/>
<path d="M123.633 77.1354C123.633 77.1354 76.1502 79.8012 56.8784 78.4715C54.9906 78.3411 53.3163 77.2244 52.4707 75.5316C48.34 67.2626 35.9529 42.4491 34.8661 40.081C34.8661 40.081 39.8974 35.8776 43.6122 35.297C43.6122 35.297 61.1989 54.8618 61.9345 64.8437C61.9345 64.8437 102.661 53.1302 106.684 53.2413C110.706 53.3523 123.041 58.8563 123.041 58.8563L123.633 77.1354Z" fill="url(#paint80_linear_12_155)"/>
<path d="M186.929 40.1245C186.929 40.1245 185.187 36.5026 186.698 34.591C188.209 32.6793 193.657 26.763 193.657 26.763L194.29 22.6743L196.528 29.3343L191.724 39.3816C191.724 39.3816 188.912 42.4236 186.929 40.1245Z" fill="url(#paint81_linear_12_155)"/>
<path d="M199.13 56.974C197.37 50.7911 194.949 44.906 191.724 39.3817L186.93 40.1248L189.296 56.7474C191.105 57.2947 196.043 58.5427 199.13 56.974Z" fill="url(#paint82_linear_12_155)"/>
<path d="M202.235 73.1594C201.622 67.5745 200.608 62.1695 199.129 56.9736C196.043 58.5424 191.105 57.2944 189.295 56.7471L189.975 61.5201L188.157 55.0922C185.947 47.2739 181.245 40.3908 174.765 35.4882L170.253 32.0737C165.819 28.7185 158.728 29.8776 154.204 33.1109C144.16 40.2898 129.251 52.3256 124.16 56.4655C123.066 57.3557 121.566 57.5545 120.276 56.9834L119.427 56.6072C118.625 56.2518 117.739 56.9012 117.836 57.7736L119.997 77.5335L154.502 77.1352C158.64 77.1352 170.625 76.7088 172.531 73.0369L175.722 65.2055C183.199 71.5644 192.79 75.9328 197.928 77.2059C200.297 77.7928 202.517 75.7249 202.235 73.1594Z" fill="url(#paint83_linear_12_155)"/>
<path d="M178.001 21.474L167.393 31.7781C166.686 32.4651 166.62 33.5864 167.254 34.3416C170.525 38.24 173.333 40.2843 175.668 40.4381C176.658 40.5034 177.596 39.9806 178.127 39.1425L183.765 30.2523L178.001 21.474Z" fill="url(#paint84_linear_12_155)"/>
<path d="M199.41 72.248L208.535 68.6969L219.143 77.1355L200.147 77.2062L199.41 72.248Z" fill="url(#paint85_linear_12_155)"/>
<path d="M195.787 19.091C195.787 19.091 194.34 29.2693 190.43 32.3994C186.52 35.5295 178.902 33.1725 176.329 25.4996L181.456 12.38L195.787 19.091Z" fill="url(#paint86_linear_12_155)"/>
<path d="M180.879 20.8697C181.176 20.9655 181.487 20.775 181.534 20.4659C181.675 19.5264 182.027 17.6668 182.74 16.4003C182.74 16.4003 182.367 15.065 186.115 17.0822C189.863 19.0994 195.492 22.0627 198.807 20.2982C202.038 18.5777 205.311 9.91951 196.771 11.5236C196.446 11.5848 196.148 11.3258 196.172 10.9962C196.277 9.57315 196.136 6.2994 192.82 5.24849C189.718 4.26514 188.02 5.66572 187.32 6.51097C187.114 6.75964 186.732 6.75459 186.535 6.49843C185.606 5.28505 183.082 2.70263 179.367 4.34003C176.306 5.68871 175.831 7.57372 175.881 8.74844C175.897 9.12893 175.511 9.38683 175.165 9.22767C174.228 8.79581 172.72 8.5717 171.276 10.381C169.28 12.8824 172.133 15.0516 172.989 15.6204C173.129 15.7135 173.216 15.868 173.217 16.0364C173.225 17.3373 173.428 23.0119 176.272 26.2127C176.518 26.4899 176.973 26.4086 177.117 26.0668L179.307 20.8491C179.408 20.6067 179.678 20.4826 179.929 20.5632L180.879 20.8697Z" fill="url(#paint87_linear_12_155)"/>
<path d="M180.925 21.9293C180.925 21.9293 179.588 16.4827 177.556 18.2512C175.525 20.0196 178.086 23.9115 180.413 24.6533L180.925 21.9293Z" fill="url(#paint88_linear_12_155)"/>
<path d="M165.648 44.9038C165.648 44.9038 166.057 32.3034 160.881 32.0502C154.453 31.7357 144.121 36.3942 150.272 54.8618C153.67 65.0648 158.791 72.6353 172.85 75.8427C173.534 70.6723 175.877 67.0694 177.61 65.0376C171.882 61.0015 167.029 54.7122 165.648 44.9038Z" fill="url(#paint89_linear_12_155)"/>
<path d="M176.965 65.0738C176.864 65.0738 176.763 65.0438 176.675 64.9818C170.079 60.3343 166.417 53.9763 165.15 44.9747C165.146 44.9461 165.144 44.9172 165.145 44.8881C165.253 41.5207 164.694 32.7415 160.856 32.5536C159.001 32.4646 157.054 32.8129 155.375 33.5399C155.12 33.6499 154.823 33.5329 154.713 33.2776C154.603 33.0224 154.72 32.7258 154.975 32.615C156.793 31.8281 158.899 31.4529 160.906 31.5472C166.404 31.8163 166.18 43.906 166.153 44.8765C167.384 53.5613 170.913 59.6895 177.255 64.1585C177.483 64.3189 177.537 64.6332 177.377 64.8605C177.279 64.9994 177.123 65.0738 176.965 65.0738Z" fill="url(#paint90_linear_12_155)"/>
<path d="M168.375 75.0804C168.32 75.0804 168.265 75.0715 168.211 75.0529C156.548 71.0279 152.467 63.0464 149.794 55.0215C149.189 53.2035 148.722 51.4524 148.405 49.8161C148.352 49.543 148.531 49.2788 148.804 49.2263C149.077 49.1731 149.341 49.3522 149.394 49.6252C149.702 51.2184 150.158 52.9266 150.75 54.7028C153.341 62.4832 157.29 70.2183 168.539 74.1007C168.802 74.1918 168.942 74.478 168.851 74.7412C168.779 74.9494 168.584 75.0804 168.375 75.0804Z" fill="url(#paint91_linear_12_155)"/>
<path d="M201.993 77.1352L201.971 72.2477C201.971 72.2477 188.272 72.5509 177.61 65.0375C175.878 67.0693 173.534 70.6722 172.85 75.8426C179.964 77.4656 189.364 77.9725 201.993 77.1352Z" fill="url(#paint92_linear_12_155)"/>
<path d="M184.432 78.8408C184.466 78.8423 184.499 78.8434 184.532 78.843L228.104 78.7955C229.181 78.7946 230.053 77.9205 230.052 76.8434C230.051 75.7659 229.174 74.8759 228.099 74.8952L184.528 74.9427C183.451 74.9436 182.579 75.8178 182.58 76.8948C182.581 77.9384 183.402 78.7897 184.432 78.8408Z" fill="url(#paint93_linear_12_155)"/>
<path d="M267.272 39.2805H230.986C228.309 39.2805 225.873 40.8253 224.731 43.2465L207.956 78.8172H253.05C254.775 78.8172 256.325 77.7631 256.959 76.1588L269.967 43.2433C270.719 41.3416 269.317 39.2805 267.272 39.2805Z" fill="url(#paint94_linear_12_155)"/>
<path d="M241.708 57.5191C240.922 59.9623 241.503 62.3348 243.006 62.8186C244.509 63.3023 246.364 61.7141 247.151 59.2711C247.937 56.828 247.356 54.4554 245.853 53.9716C244.35 53.4879 242.494 55.0762 241.708 57.5191Z" fill="url(#paint95_linear_12_155)"/>
<path d="M178.192 132.546C197.423 132.546 213.012 116.956 213.012 97.7257C213.012 78.4951 197.423 62.9055 178.192 62.9055C158.961 62.9055 143.372 78.4951 143.372 97.7257C143.372 116.956 158.961 132.546 178.192 132.546Z" fill="url(#paint96_linear_12_155)"/>
<path d="M147.42 96.1388L154.851 92.2644V93.9156C154.851 94.0408 154.819 94.1546 154.756 94.2579C154.694 94.3612 154.591 94.45 154.447 94.525L151.042 96.2701C150.898 96.3451 150.746 96.4094 150.587 96.4625C150.427 96.5156 150.257 96.5642 150.075 96.6079C150.257 96.6519 150.427 96.7002 150.587 96.7533C150.746 96.8064 150.898 96.8705 151.042 96.9457L154.447 98.7001C154.591 98.775 154.694 98.8642 154.756 98.9673C154.819 99.0705 154.851 99.1847 154.851 99.3099V100.961L147.42 97.077V96.1388Z" fill="url(#paint97_linear_12_155)"/>
<path d="M158.237 102.931V88.9906H160.554V94.347C160.929 93.9909 161.342 93.7033 161.792 93.484C162.242 93.2653 162.771 93.1559 163.377 93.1559C163.903 93.1559 164.369 93.2448 164.775 93.4232C165.182 93.6012 165.521 93.8516 165.793 94.1736C166.065 94.4961 166.271 94.8806 166.412 95.3276C166.553 95.7749 166.623 96.2672 166.623 96.8053V102.931H164.306V96.8053C164.306 96.2172 164.17 95.7622 163.898 95.4403C163.626 95.1181 163.218 94.9572 162.674 94.9572C162.273 94.9572 161.898 95.0476 161.548 95.229C161.198 95.4105 160.866 95.6577 160.554 95.9705V102.931L158.237 102.931Z" fill="url(#paint98_linear_12_155)"/>
<path d="M172.881 93.1559C173.487 93.1559 174.046 93.2527 174.555 93.4467C175.065 93.6403 175.504 93.9237 175.873 94.2956C176.242 94.6676 176.53 95.1243 176.736 95.6652C176.943 96.2061 177.046 96.8237 177.046 97.518C177.046 97.6933 177.038 97.8386 177.022 97.954C177.007 98.07 176.979 98.1604 176.938 98.2264C176.898 98.2917 176.843 98.3387 176.774 98.3669C176.705 98.3949 176.618 98.409 176.511 98.409H170.564C170.633 99.3973 170.898 100.123 171.361 100.586C171.824 101.049 172.437 101.28 173.2 101.28C173.575 101.28 173.899 101.236 174.171 101.148C174.443 101.061 174.681 100.964 174.884 100.858C175.087 100.751 175.265 100.655 175.418 100.567C175.572 100.479 175.72 100.435 175.864 100.435C175.958 100.435 176.039 100.454 176.108 100.492C176.177 100.529 176.236 100.583 176.286 100.651L176.962 101.496C176.705 101.796 176.417 102.048 176.099 102.251C175.779 102.454 175.446 102.617 175.099 102.739C174.752 102.86 174.399 102.946 174.039 102.996C173.68 103.046 173.331 103.071 172.993 103.071C172.324 103.071 171.702 102.96 171.127 102.739C170.551 102.517 170.051 102.188 169.626 101.753C169.2 101.319 168.866 100.781 168.622 100.14C168.378 99.4993 168.256 98.7563 168.256 97.9119C168.256 97.2554 168.362 96.6379 168.575 96.0591C168.787 95.4806 169.092 94.9772 169.49 94.5486C169.887 94.1203 170.371 93.7812 170.944 93.5308C171.516 93.2809 172.161 93.1559 172.881 93.1559ZM172.928 94.8159C172.252 94.8159 171.723 95.0071 171.342 95.3881C170.961 95.7698 170.717 96.3111 170.61 97.0113H174.963C174.963 96.711 174.923 96.4282 174.841 96.1623C174.76 95.8966 174.635 95.6636 174.466 95.4634C174.297 95.2633 174.085 95.1055 173.828 94.9897C173.572 94.8739 173.272 94.8159 172.928 94.8159Z" fill="url(#paint99_linear_12_155)"/>
<path d="M186.474 102.931H185.432C185.214 102.931 185.041 102.898 184.916 102.832C184.791 102.767 184.697 102.634 184.635 102.434L184.429 101.749C184.185 101.968 183.946 102.16 183.711 102.326C183.477 102.492 183.234 102.631 182.984 102.743C182.733 102.856 182.468 102.94 182.187 102.997C181.905 103.053 181.592 103.081 181.248 103.081C180.842 103.081 180.466 103.026 180.122 102.917C179.779 102.807 179.483 102.642 179.236 102.422C178.989 102.203 178.797 101.93 178.659 101.604C178.521 101.277 178.453 100.897 178.453 100.464C178.453 100.101 178.548 99.7413 178.739 99.3868C178.93 99.0322 179.247 98.7122 179.691 98.4269C180.135 98.1412 180.726 97.9045 181.464 97.7159C182.202 97.5279 183.118 97.4338 184.213 97.4338V96.8665C184.213 96.2175 184.077 95.7369 183.805 95.4252C183.533 95.1131 183.137 94.9573 182.618 94.9573C182.243 94.9573 181.93 95.001 181.68 95.0886C181.43 95.176 181.212 95.2746 181.028 95.3843C180.843 95.4936 180.673 95.592 180.517 95.6796C180.36 95.7672 180.188 95.8109 180.001 95.8109C179.844 95.8109 179.71 95.7703 179.597 95.689C179.485 95.6077 179.394 95.5076 179.325 95.3884L178.903 94.6477C180.01 93.6344 181.345 93.1278 182.909 93.1278C183.471 93.1278 183.974 93.2203 184.414 93.4049C184.855 93.5893 185.229 93.8456 185.536 94.1738C185.842 94.5024 186.075 94.8948 186.234 95.3514C186.394 95.8079 186.474 96.3081 186.474 96.8522L186.474 102.931ZM181.971 101.486C182.208 101.486 182.427 101.465 182.627 101.422C182.828 101.379 183.017 101.314 183.195 101.228C183.373 101.141 183.545 101.035 183.711 100.909C183.877 100.783 184.044 100.633 184.213 100.461V98.8499C183.537 98.8499 182.973 98.8926 182.519 98.9776C182.066 99.0625 181.702 99.1712 181.427 99.3037C181.151 99.4359 180.956 99.5902 180.84 99.7667C180.724 99.943 180.667 100.135 180.667 100.343C180.667 100.752 180.787 101.045 181.028 101.221C181.269 101.398 181.583 101.486 181.971 101.486Z" fill="url(#paint100_linear_12_155)"/>
<path d="M195.527 102.931C195.227 102.931 195.029 102.79 194.936 102.509L194.748 101.58C194.548 101.805 194.338 102.008 194.12 102.19C193.901 102.371 193.665 102.527 193.411 102.659C193.158 102.79 192.886 102.892 192.595 102.964C192.304 103.036 191.99 103.072 191.652 103.072C191.127 103.072 190.645 102.962 190.207 102.743C189.77 102.524 189.393 102.207 189.077 101.791C188.761 101.375 188.518 100.861 188.345 100.248C188.174 99.635 188.088 98.9346 188.088 98.1465C188.088 97.4337 188.185 96.7708 188.379 96.1579C188.572 95.5449 188.851 95.0133 189.213 94.5631C189.576 94.1123 190.011 93.7605 190.517 93.5077C191.024 93.2542 191.593 93.1276 192.225 93.1276C192.762 93.1276 193.222 93.2137 193.604 93.3856C193.985 93.5578 194.326 93.7875 194.626 94.0752V88.9906H196.943V102.931H195.527ZM192.44 101.233C192.922 101.233 193.331 101.133 193.669 100.933C194.007 100.733 194.326 100.448 194.626 100.079V95.764C194.363 95.4448 194.077 95.2198 193.768 95.0885C193.458 94.9572 193.125 94.8912 192.769 94.8912C192.418 94.8912 192.101 94.9572 191.816 95.0885C191.532 95.2198 191.291 95.4183 191.094 95.684C190.897 95.9499 190.746 96.2878 190.639 96.6973C190.533 97.1073 190.48 97.5903 190.48 98.1467C190.48 98.7098 190.525 99.1868 190.616 99.5774C190.706 99.9686 190.836 100.287 191.005 100.534C191.174 100.781 191.38 100.96 191.624 101.069C191.868 101.178 192.14 101.233 192.44 101.233Z" fill="url(#paint101_linear_12_155)"/>
<path d="M200.358 100.961V99.3099C200.358 99.1847 200.389 99.0705 200.452 98.9673C200.514 98.864 200.617 98.7748 200.761 98.7001L204.166 96.9457C204.442 96.8083 204.763 96.6958 205.133 96.6079C204.951 96.5642 204.781 96.5156 204.621 96.4625C204.462 96.4094 204.31 96.3453 204.166 96.2701L200.761 94.525C200.617 94.45 200.514 94.361 200.452 94.2579C200.389 94.1546 200.358 94.0408 200.358 93.9156V92.2644L207.788 96.1388V97.0768L200.358 100.961Z" fill="url(#paint102_linear_12_155)"/>
<defs>
<linearGradient id="paint0_linear_12_155" x1="198.004" y1="332.391" x2="300.399" y2="25.2057" gradientUnits="userSpaceOnUse">
<stop stop-color="#2B3582"/>
<stop offset="1" stop-color="#150E42"/>
</linearGradient>
<linearGradient id="paint1_linear_12_155" x1="422.301" y1="9.5598" x2="-130.607" y2="641.074" gradientUnits="userSpaceOnUse">
<stop stop-color="#FDF53F"/>
<stop offset="1" stop-color="#D93C65"/>
</linearGradient>
<linearGradient id="paint2_linear_12_155" x1="425.311" y1="320.873" x2="-5.88984" y2="425.759" gradientUnits="userSpaceOnUse">
<stop stop-color="#2B3582"/>
<stop offset="1" stop-color="#150E42"/>
</linearGradient>
<linearGradient id="paint3_linear_12_155" x1="389.014" y1="118.805" x2="400.564" y2="89.4116" gradientUnits="userSpaceOnUse">
<stop stop-color="#53D8FF"/>
<stop offset="1" stop-color="#3840F7"/>
</linearGradient>
<linearGradient id="paint4_linear_12_155" x1="391.591" y1="98.6991" x2="445.201" y2="-1.71646" gradientUnits="userSpaceOnUse">
<stop stop-color="#53D8FF"/>
<stop offset="1" stop-color="#3840F7"/>
</linearGradient>
<linearGradient id="paint5_linear_12_155" x1="448.473" y1="152.417" x2="442.366" y2="90.9404" gradientUnits="userSpaceOnUse">
<stop stop-color="#53D8FF"/>
<stop offset="1" stop-color="#3840F7"/>
</linearGradient>
<linearGradient id="paint6_linear_12_155" x1="275.008" y1="262.425" x2="174.701" y2="398.135" gradientUnits="userSpaceOnUse">
<stop stop-color="#53D8FF"/>
<stop offset="1" stop-color="#3840F7"/>
</linearGradient>
<linearGradient id="paint7_linear_12_155" x1="216.021" y1="293.207" x2="224.962" y2="293.207" gradientUnits="userSpaceOnUse">
<stop stop-color="#2B3582"/>
<stop offset="1" stop-color="#150E42"/>
</linearGradient>
<linearGradient id="paint8_linear_12_155" x1="229.037" y1="292.422" x2="239.13" y2="292.422" gradientUnits="userSpaceOnUse">
<stop stop-color="#2B3582"/>
<stop offset="1" stop-color="#150E42"/>
</linearGradient>
<linearGradient id="paint9_linear_12_155" x1="240.824" y1="293.337" x2="248.715" y2="293.337" gradientUnits="userSpaceOnUse">
<stop stop-color="#2B3582"/>
<stop offset="1" stop-color="#150E42"/>
</linearGradient>
<linearGradient id="paint10_linear_12_155" x1="250.611" y1="294.929" x2="266.879" y2="294.929" gradientUnits="userSpaceOnUse">
<stop stop-color="#2B3582"/>
<stop offset="1" stop-color="#150E42"/>
</linearGradient>
<linearGradient id="paint11_linear_12_155" x1="269.803" y1="292.422" x2="272.592" y2="292.422" gradientUnits="userSpaceOnUse">
<stop stop-color="#2B3582"/>
<stop offset="1" stop-color="#150E42"/>
</linearGradient>
<linearGradient id="paint12_linear_12_155" x1="276.837" y1="293.207" x2="285.778" y2="293.207" gradientUnits="userSpaceOnUse">
<stop stop-color="#2B3582"/>
<stop offset="1" stop-color="#150E42"/>
</linearGradient>
<linearGradient id="paint13_linear_12_155" x1="120.05" y1="134.758" x2="23.8726" y2="363.104" gradientUnits="userSpaceOnUse">
<stop stop-color="#53D8FF"/>
<stop offset="1" stop-color="#3840F7"/>
</linearGradient>
<linearGradient id="paint14_linear_12_155" x1="69.4093" y1="170.185" x2="77.9046" y2="170.185" gradientUnits="userSpaceOnUse">
<stop stop-color="#2B3582"/>
<stop offset="1" stop-color="#150E42"/>
</linearGradient>
<linearGradient id="paint15_linear_12_155" x1="81.7765" y1="169.439" x2="91.3653" y2="169.439" gradientUnits="userSpaceOnUse">
<stop stop-color="#2B3582"/>
<stop offset="1" stop-color="#150E42"/>
</linearGradient>
<linearGradient id="paint16_linear_12_155" x1="93.2319" y1="171.901" x2="103.282" y2="171.901" gradientUnits="userSpaceOnUse">
<stop stop-color="#2B3582"/>
<stop offset="1" stop-color="#150E42"/>
</linearGradient>
<linearGradient id="paint17_linear_12_155" x1="104.891" y1="171.89" x2="114.061" y2="171.89" gradientUnits="userSpaceOnUse">
<stop stop-color="#2B3582"/>
<stop offset="1" stop-color="#150E42"/>
</linearGradient>
<linearGradient id="paint18_linear_12_155" x1="115.906" y1="169.52" x2="126.032" y2="169.52" gradientUnits="userSpaceOnUse">
<stop stop-color="#2B3582"/>
<stop offset="1" stop-color="#150E42"/>
</linearGradient>
<linearGradient id="paint19_linear_12_155" x1="129.936" y1="170.184" x2="138.431" y2="170.184" gradientUnits="userSpaceOnUse">
<stop stop-color="#2B3582"/>
<stop offset="1" stop-color="#150E42"/>
</linearGradient>
<linearGradient id="paint20_linear_12_155" x1="193.645" y1="187.665" x2="210.309" y2="187.665" gradientUnits="userSpaceOnUse">
<stop stop-color="#2B3582"/>
<stop offset="1" stop-color="#150E42"/>
</linearGradient>
<linearGradient id="paint21_linear_12_155" x1="214.747" y1="187.201" x2="231.895" y2="187.201" gradientUnits="userSpaceOnUse">
<stop stop-color="#2B3582"/>
<stop offset="1" stop-color="#150E42"/>
</linearGradient>
<linearGradient id="paint22_linear_12_155" x1="236.229" y1="187.665" x2="252.892" y2="187.665" gradientUnits="userSpaceOnUse">
<stop stop-color="#2B3582"/>
<stop offset="1" stop-color="#150E42"/>
</linearGradient>
<linearGradient id="paint23_linear_12_155" x1="106.744" y1="368.908" x2="292.898" y2="-146.597" gradientUnits="userSpaceOnUse">
<stop stop-color="#53D8FF"/>
<stop offset="1" stop-color="#3840F7"/>
</linearGradient>
<linearGradient id="paint24_linear_12_155" x1="119.572" y1="270.821" x2="131.853" y2="270.821" gradientUnits="userSpaceOnUse">
<stop stop-color="#2B3582"/>
<stop offset="1" stop-color="#150E42"/>
</linearGradient>
<linearGradient id="paint25_linear_12_155" x1="134.34" y1="270.821" x2="148.858" y2="270.821" gradientUnits="userSpaceOnUse">
<stop stop-color="#2B3582"/>
<stop offset="1" stop-color="#150E42"/>
</linearGradient>
<linearGradient id="paint26_linear_12_155" x1="152.44" y1="270.821" x2="164.721" y2="270.821" gradientUnits="userSpaceOnUse">
<stop stop-color="#2B3582"/>
<stop offset="1" stop-color="#150E42"/>
</linearGradient>
<linearGradient id="paint27_linear_12_155" x1="359.795" y1="196.866" x2="282.69" y2="364.144" gradientUnits="userSpaceOnUse">
<stop stop-color="#53D8FF"/>
<stop offset="1" stop-color="#3840F7"/>
</linearGradient>
<linearGradient id="paint28_linear_12_155" x1="320.669" y1="62.542" x2="242.194" y2="289.709" gradientUnits="userSpaceOnUse">
<stop stop-color="#53D8FF"/>
<stop offset="1" stop-color="#3840F7"/>
</linearGradient>
<linearGradient id="paint29_linear_12_155" x1="275.11" y1="91.7792" x2="283.231" y2="91.7792" gradientUnits="userSpaceOnUse">
<stop stop-color="#2B3582"/>
<stop offset="1" stop-color="#150E42"/>
</linearGradient>
<linearGradient id="paint30_linear_12_155" x1="284.408" y1="91.685" x2="301.014" y2="91.685" gradientUnits="userSpaceOnUse">
<stop stop-color="#2B3582"/>
<stop offset="1" stop-color="#150E42"/>
</linearGradient>
<linearGradient id="paint31_linear_12_155" x1="299.107" y1="91.685" x2="315.714" y2="91.685" gradientUnits="userSpaceOnUse">
<stop stop-color="#2B3582"/>
<stop offset="1" stop-color="#150E42"/>
</linearGradient>
<linearGradient id="paint32_linear_12_155" x1="313.854" y1="91.685" x2="330.46" y2="91.685" gradientUnits="userSpaceOnUse">
<stop stop-color="#2B3582"/>
<stop offset="1" stop-color="#150E42"/>
</linearGradient>
<linearGradient id="paint33_linear_12_155" x1="275.087" y1="119.931" x2="286.585" y2="119.931" gradientUnits="userSpaceOnUse">
<stop stop-color="#2B3582"/>
<stop offset="1" stop-color="#150E42"/>
</linearGradient>
<linearGradient id="paint34_linear_12_155" x1="288.032" y1="122.396" x2="298.212" y2="122.396" gradientUnits="userSpaceOnUse">
<stop stop-color="#2B3582"/>
<stop offset="1" stop-color="#150E42"/>
</linearGradient>
<linearGradient id="paint35_linear_12_155" x1="300.072" y1="122.29" x2="307.769" y2="122.29" gradientUnits="userSpaceOnUse">
<stop stop-color="#2B3582"/>
<stop offset="1" stop-color="#150E42"/>
</linearGradient>
<linearGradient id="paint36_linear_12_155" x1="309.499" y1="119.713" x2="313.218" y2="119.713" gradientUnits="userSpaceOnUse">
<stop stop-color="#2B3582"/>
<stop offset="1" stop-color="#150E42"/>
</linearGradient>
<linearGradient id="paint37_linear_12_155" x1="316.066" y1="124.262" x2="327.176" y2="124.262" gradientUnits="userSpaceOnUse">
<stop stop-color="#2B3582"/>
<stop offset="1" stop-color="#150E42"/>
</linearGradient>
<linearGradient id="paint38_linear_12_155" x1="328.282" y1="120.649" x2="336.509" y2="120.649" gradientUnits="userSpaceOnUse">
<stop stop-color="#2B3582"/>
<stop offset="1" stop-color="#150E42"/>
</linearGradient>
<linearGradient id="paint39_linear_12_155" x1="292.535" y1="177.438" x2="406.435" y2="417.747" gradientUnits="userSpaceOnUse">
<stop stop-color="#2B3582"/>
<stop offset="1" stop-color="#150E42"/>
</linearGradient>
<linearGradient id="paint40_linear_12_155" x1="421.513" y1="439.686" x2="403.972" y2="439.686" gradientUnits="userSpaceOnUse">
<stop stop-color="#CB236D"/>
<stop offset="1" stop-color="#4C246D"/>
</linearGradient>
<linearGradient id="paint41_linear_12_155" x1="377.6" y1="418.993" x2="441.414" y2="469.1" gradientUnits="userSpaceOnUse">
<stop stop-color="#53D8FF"/>
<stop offset="1" stop-color="#3840F7"/>
</linearGradient>
<linearGradient id="paint42_linear_12_155" x1="445.033" y1="319.337" x2="421.641" y2="319.337" gradientUnits="userSpaceOnUse">
<stop stop-color="#F9B776"/>
<stop offset="1" stop-color="#F47960"/>
</linearGradient>
<linearGradient id="paint43_linear_12_155" x1="416.635" y1="419.717" x2="419.985" y2="448.958" gradientUnits="userSpaceOnUse">
<stop stop-color="#F9B776"/>
<stop offset="1" stop-color="#F47960"/>
</linearGradient>
<linearGradient id="paint44_linear_12_155" x1="366.264" y1="433.43" x2="430.078" y2="483.537" gradientUnits="userSpaceOnUse">
<stop stop-color="#53D8FF"/>
<stop offset="1" stop-color="#3840F7"/>
</linearGradient>
<linearGradient id="paint45_linear_12_155" x1="394.803" y1="440.153" x2="369.553" y2="440.153" gradientUnits="userSpaceOnUse">
<stop stop-color="#CB236D"/>
<stop offset="1" stop-color="#4C246D"/>
</linearGradient>
<linearGradient id="paint46_linear_12_155" x1="389.342" y1="422.844" x2="392.693" y2="452.086" gradientUnits="userSpaceOnUse">
<stop stop-color="#F9B776"/>
<stop offset="1" stop-color="#F47960"/>
</linearGradient>
<linearGradient id="paint47_linear_12_155" x1="349.531" y1="289.128" x2="456.695" y2="455.417" gradientUnits="userSpaceOnUse">
<stop stop-color="#7C27DD"/>
<stop offset="1" stop-color="#2B41D9"/>
</linearGradient>
<linearGradient id="paint48_linear_12_155" x1="363.684" y1="234.666" x2="591.191" y2="473.209" gradientUnits="userSpaceOnUse">
<stop stop-color="#CB236D"/>
<stop offset="1" stop-color="#4C246D"/>
</linearGradient>
<linearGradient id="paint49_linear_12_155" x1="409.178" y1="230.252" x2="422.923" y2="289.651" gradientUnits="userSpaceOnUse">
<stop stop-color="#F9B776"/>
<stop offset="1" stop-color="#F47960"/>
</linearGradient>
<linearGradient id="paint50_linear_12_155" x1="411.353" y1="219.828" x2="405.047" y2="256.933" gradientUnits="userSpaceOnUse">
<stop stop-color="#F9B776"/>
<stop offset="1" stop-color="#F47960"/>
</linearGradient>
<linearGradient id="paint51_linear_12_155" x1="417.983" y1="237.391" x2="399.401" y2="217.651" gradientUnits="userSpaceOnUse">
<stop stop-color="#2B3582"/>
<stop offset="1" stop-color="#150E42"/>
</linearGradient>
<linearGradient id="paint52_linear_12_155" x1="416.824" y1="260.329" x2="417.945" y2="234.272" gradientUnits="userSpaceOnUse">
<stop stop-color="#F9B776"/>
<stop offset="1" stop-color="#F47960"/>
</linearGradient>
<linearGradient id="paint53_linear_12_155" x1="451.941" y1="239.553" x2="418.557" y2="308.017" gradientUnits="userSpaceOnUse">
<stop stop-color="#CB236D"/>
<stop offset="1" stop-color="#4C246D"/>
</linearGradient>
<linearGradient id="paint54_linear_12_155" x1="409.631" y1="333.779" x2="418.617" y2="349.77" gradientUnits="userSpaceOnUse">
<stop stop-color="#2B3582"/>
<stop offset="1" stop-color="#150E42"/>
</linearGradient>
<linearGradient id="paint55_linear_12_155" x1="352.898" y1="243.617" x2="582.349" y2="484.198" gradientUnits="userSpaceOnUse">
<stop stop-color="#CB236D"/>
<stop offset="1" stop-color="#4C246D"/>
</linearGradient>
<linearGradient id="paint56_linear_12_155" x1="326.459" y1="209.046" x2="340.301" y2="254.282" gradientUnits="userSpaceOnUse">
<stop stop-color="#F9B776"/>
<stop offset="1" stop-color="#F47960"/>
</linearGradient>
<linearGradient id="paint57_linear_12_155" x1="321.069" y1="210.695" x2="334.912" y2="255.931" gradientUnits="userSpaceOnUse">
<stop stop-color="#F9B776"/>
<stop offset="1" stop-color="#F47960"/>
</linearGradient>
<linearGradient id="paint58_linear_12_155" x1="140.29" y1="340.194" x2="77.7287" y2="375.903" gradientUnits="userSpaceOnUse">
<stop stop-color="#C4421B"/>
<stop offset="1" stop-color="#5C0E16"/>
</linearGradient>
<linearGradient id="paint59_linear_12_155" x1="132.112" y1="375.899" x2="103.932" y2="444.102" gradientUnits="userSpaceOnUse">
<stop stop-color="#CB236D"/>
<stop offset="1" stop-color="#4C246D"/>
</linearGradient>
<linearGradient id="paint60_linear_12_155" x1="134.238" y1="349.1" x2="348.293" y2="215.098" gradientUnits="userSpaceOnUse">
<stop stop-color="#C4421B"/>
<stop offset="1" stop-color="#5C0E16"/>
</linearGradient>
<linearGradient id="paint61_linear_12_155" x1="121.183" y1="393.693" x2="79.7842" y2="454.775" gradientUnits="userSpaceOnUse">
<stop stop-color="#CB236D"/>
<stop offset="1" stop-color="#4C246D"/>
</linearGradient>
<linearGradient id="paint62_linear_12_155" x1="101.044" y1="230.607" x2="16.078" y2="401.72" gradientUnits="userSpaceOnUse">
<stop stop-color="#CB236D"/>
<stop offset="1" stop-color="#4C246D"/>
</linearGradient>
<linearGradient id="paint63_linear_12_155" x1="70.8746" y1="218.86" x2="43.6736" y2="250.262" gradientUnits="userSpaceOnUse">
<stop stop-color="#2B3582"/>
<stop offset="1" stop-color="#150E42"/>
</linearGradient>
<linearGradient id="paint64_linear_12_155" x1="-59.6265" y1="397.486" x2="84.3567" y2="256.307" gradientUnits="userSpaceOnUse">
<stop stop-color="#A737D5"/>
<stop offset="1" stop-color="#EF497A"/>
</linearGradient>
<linearGradient id="paint65_linear_12_155" x1="30.7156" y1="319.611" x2="-31.6051" y2="319.611" gradientUnits="userSpaceOnUse">
<stop stop-color="#C4421B"/>
<stop offset="1" stop-color="#5C0E16"/>
</linearGradient>
<linearGradient id="paint66_linear_12_155" x1="56.0807" y1="289.825" x2="54.6402" y2="267.377" gradientUnits="userSpaceOnUse">
<stop stop-color="#C4421B"/>
<stop offset="1" stop-color="#5C0E16"/>
</linearGradient>
<linearGradient id="paint67_linear_12_155" x1="53.9594" y1="270.831" x2="81.0773" y2="218.934" gradientUnits="userSpaceOnUse">
<stop stop-color="#C4421B"/>
<stop offset="1" stop-color="#5C0E16"/>
</linearGradient>
<linearGradient id="paint68_linear_12_155" x1="87.8422" y1="241.399" x2="49.8691" y2="249.018" gradientUnits="userSpaceOnUse">
<stop stop-color="#2B3582"/>
<stop offset="1" stop-color="#150E42"/>
</linearGradient>
<linearGradient id="paint69_linear_12_155" x1="47.7526" y1="267.588" x2="74.8704" y2="215.69" gradientUnits="userSpaceOnUse">
<stop stop-color="#C4421B"/>
<stop offset="1" stop-color="#5C0E16"/>
</linearGradient>
<linearGradient id="paint70_linear_12_155" x1="33.5734" y1="318.891" x2="65.6948" y2="329.426" gradientUnits="userSpaceOnUse">
<stop stop-color="#2B3582"/>
<stop offset="1" stop-color="#150E42"/>
</linearGradient>
<linearGradient id="paint71_linear_12_155" x1="118.189" y1="313.643" x2="-175.031" y2="288.973" gradientUnits="userSpaceOnUse">
<stop stop-color="#2B3582"/>
<stop offset="1" stop-color="#150E42"/>
</linearGradient>
<linearGradient id="paint72_linear_12_155" x1="184.923" y1="150.103" x2="77.4025" y2="344.574" gradientUnits="userSpaceOnUse">
<stop stop-color="#53D8FF"/>
<stop offset="1" stop-color="#3840F7"/>
</linearGradient>
<linearGradient id="paint73_linear_12_155" x1="49.5458" y1="6.42779" x2="73.7372" y2="6.42779" gradientUnits="userSpaceOnUse">
<stop stop-color="#53D8FF"/>
<stop offset="1" stop-color="#3840F7"/>
</linearGradient>
<linearGradient id="paint74_linear_12_155" x1="49.2838" y1="10.7701" x2="73.7158" y2="10.7701" gradientUnits="userSpaceOnUse">
<stop stop-color="#2B3582"/>
<stop offset="1" stop-color="#150E42"/>
</linearGradient>
<linearGradient id="paint75_linear_12_155" x1="67.3518" y1="11.2711" x2="73.7316" y2="54.9224" gradientUnits="userSpaceOnUse">
<stop stop-color="#F9B776"/>
<stop offset="1" stop-color="#F47960"/>
</linearGradient>
<linearGradient id="paint76_linear_12_155" x1="9.9536" y1="26.5933" x2="38.7691" y2="26.5933" gradientUnits="userSpaceOnUse">
<stop stop-color="#2B3582"/>
<stop offset="1" stop-color="#150E42"/>
</linearGradient>
<linearGradient id="paint77_linear_12_155" x1="8.72737" y1="25.5211" x2="36.7788" y2="25.5211" gradientUnits="userSpaceOnUse">
<stop stop-color="#53D8FF"/>
<stop offset="1" stop-color="#3840F7"/>
</linearGradient>
<linearGradient id="paint78_linear_12_155" x1="35.2081" y1="15.9688" x2="41.5879" y2="59.6207" gradientUnits="userSpaceOnUse">
<stop stop-color="#F9B776"/>
<stop offset="1" stop-color="#F47960"/>
</linearGradient>
<linearGradient id="paint79_linear_12_155" x1="80.9938" y1="-9.56385" x2="63.1974" y2="90.4991" gradientUnits="userSpaceOnUse">
<stop stop-color="#CB236D"/>
<stop offset="1" stop-color="#4C246D"/>
</linearGradient>
<linearGradient id="paint80_linear_12_155" x1="74.822" y1="41.9252" x2="111.086" y2="112.775" gradientUnits="userSpaceOnUse">
<stop stop-color="#CB236D"/>
<stop offset="1" stop-color="#4C246D"/>
</linearGradient>
<linearGradient id="paint81_linear_12_155" x1="186.082" y1="31.829" x2="196.528" y2="31.829" gradientUnits="userSpaceOnUse">
<stop stop-color="#F9B776"/>
<stop offset="1" stop-color="#F47960"/>
</linearGradient>
<linearGradient id="paint82_linear_12_155" x1="186.929" y1="48.5594" x2="199.13" y2="48.5594" gradientUnits="userSpaceOnUse">
<stop stop-color="#F9B776"/>
<stop offset="1" stop-color="#F47960"/>
</linearGradient>
<linearGradient id="paint83_linear_12_155" x1="200.056" y1="-3.19292" x2="136.921" y2="105.965" gradientUnits="userSpaceOnUse">
<stop stop-color="#A737D5"/>
<stop offset="1" stop-color="#EF497A"/>
</linearGradient>
<linearGradient id="paint84_linear_12_155" x1="166.818" y1="30.9587" x2="183.766" y2="30.9587" gradientUnits="userSpaceOnUse">
<stop stop-color="#F9B776"/>
<stop offset="1" stop-color="#F47960"/>
</linearGradient>
<linearGradient id="paint85_linear_12_155" x1="221.181" y1="64.7992" x2="175.724" y2="102.575" gradientUnits="userSpaceOnUse">
<stop stop-color="#F9B776"/>
<stop offset="1" stop-color="#F47960"/>
</linearGradient>
<linearGradient id="paint86_linear_12_155" x1="188.365" y1="29.9018" x2="182.317" y2="9.95495" gradientUnits="userSpaceOnUse">
<stop stop-color="#F9B776"/>
<stop offset="1" stop-color="#F47960"/>
</linearGradient>
<linearGradient id="paint87_linear_12_155" x1="182.907" y1="-6.7239" x2="188.53" y2="25.3467" gradientUnits="userSpaceOnUse">
<stop stop-color="#2B3582"/>
<stop offset="1" stop-color="#150E42"/>
</linearGradient>
<linearGradient id="paint88_linear_12_155" x1="182.1" y1="31.8013" x2="176.053" y2="11.8547" gradientUnits="userSpaceOnUse">
<stop stop-color="#F9B776"/>
<stop offset="1" stop-color="#F47960"/>
</linearGradient>
<linearGradient id="paint89_linear_12_155" x1="197.103" y1="-4.90085" x2="133.968" y2="104.257" gradientUnits="userSpaceOnUse">
<stop stop-color="#A737D5"/>
<stop offset="1" stop-color="#EF497A"/>
</linearGradient>
<linearGradient id="paint90_linear_12_155" x1="182.626" y1="31.5096" x2="259.921" y2="-49.3261" gradientUnits="userSpaceOnUse">
<stop stop-color="#CB236D"/>
<stop offset="1" stop-color="#4C246D"/>
</linearGradient>
<linearGradient id="paint91_linear_12_155" x1="185.399" y1="34.1612" x2="262.694" y2="-46.6745" gradientUnits="userSpaceOnUse">
<stop stop-color="#CB236D"/>
<stop offset="1" stop-color="#4C246D"/>
</linearGradient>
<linearGradient id="paint92_linear_12_155" x1="211.453" y1="53.0931" x2="165.997" y2="90.8685" gradientUnits="userSpaceOnUse">
<stop stop-color="#F9B776"/>
<stop offset="1" stop-color="#F47960"/>
</linearGradient>
<linearGradient id="paint93_linear_12_155" x1="177.04" y1="67.264" x2="211.628" y2="78.6081" gradientUnits="userSpaceOnUse">
<stop stop-color="#2B3582"/>
<stop offset="1" stop-color="#150E42"/>
</linearGradient>
<linearGradient id="paint94_linear_12_155" x1="224.554" y1="44.5853" x2="249.463" y2="70.9126" gradientUnits="userSpaceOnUse">
<stop stop-color="#2B3582"/>
<stop offset="1" stop-color="#150E42"/>
</linearGradient>
<linearGradient id="paint95_linear_12_155" x1="239.612" y1="51.1409" x2="250.914" y2="68.1605" gradientUnits="userSpaceOnUse">
<stop stop-color="#53D8FF"/>
<stop offset="1" stop-color="#3840F7"/>
</linearGradient>
<linearGradient id="paint96_linear_12_155" x1="189.275" y1="85.8017" x2="64.0769" y2="220.498" gradientUnits="userSpaceOnUse">
<stop stop-color="#53D8FF"/>
<stop offset="1" stop-color="#3840F7"/>
</linearGradient>
<linearGradient id="paint97_linear_12_155" x1="147.42" y1="96.6126" x2="154.85" y2="96.6126" gradientUnits="userSpaceOnUse">
<stop stop-color="#2B3582"/>
<stop offset="1" stop-color="#150E42"/>
</linearGradient>
<linearGradient id="paint98_linear_12_155" x1="158.237" y1="95.9609" x2="166.623" y2="95.9609" gradientUnits="userSpaceOnUse">
<stop stop-color="#2B3582"/>
<stop offset="1" stop-color="#150E42"/>
</linearGradient>
<linearGradient id="paint99_linear_12_155" x1="168.256" y1="98.1137" x2="177.046" y2="98.1137" gradientUnits="userSpaceOnUse">
<stop stop-color="#2B3582"/>
<stop offset="1" stop-color="#150E42"/>
</linearGradient>
<linearGradient id="paint100_linear_12_155" x1="178.453" y1="98.1042" x2="186.474" y2="98.1042" gradientUnits="userSpaceOnUse">
<stop stop-color="#2B3582"/>
<stop offset="1" stop-color="#150E42"/>
</linearGradient>
<linearGradient id="paint101_linear_12_155" x1="188.087" y1="96.0311" x2="196.943" y2="96.0311" gradientUnits="userSpaceOnUse">
<stop stop-color="#2B3582"/>
<stop offset="1" stop-color="#150E42"/>
</linearGradient>
<linearGradient id="paint102_linear_12_155" x1="200.358" y1="96.6126" x2="207.788" y2="96.6126" gradientUnits="userSpaceOnUse">
<stop stop-color="#2B3582"/>
<stop offset="1" stop-color="#150E42"/>
</linearGradient>
</defs>
</svg>
