<svg width="82" height="82" viewBox="0 0 82 82" fill="none" xmlns="http://www.w3.org/2000/svg">
<g clip-path="url(#clip0_114_241)">
<path d="M41.2823 60.3819L70.2139 39.9925L30.2572 32.7209L0.870911 51.9733L41.2823 60.3819Z" fill="#F4D177"/>
<path d="M40.7191 40.1397L11.7875 21.8198L51.7468 15.2844L80.9497 32.354L40.7191 40.1397Z" fill="#FF6666"/>
<path d="M30.4303 24.3256L6.74255 9.32776L39.4585 3.97534L63.4693 17.7528L30.4303 24.3256Z" fill="#02A9F4"/>
<path d="M43.4496 61.6527C43.0492 61.0196 42.5016 60.5779 41.8972 60.4643L1.32306 53.1926C1.32306 53.1926 3.06156 58.2197 2.99957 61.5648C2.95297 64.2746 1.34628 69.4022 1.34628 69.4022L41.9179 76.6739C42.5223 76.7875 43.0699 76.5419 43.4679 76.0565C43.8655 75.5708 44.1136 74.8475 44.111 74.0054L44.0982 63.9362C44.0981 63.0941 43.85 62.2802 43.4496 61.6527ZM80.6784 33.6793L40.1068 40.2123C39.4998 40.3157 38.9523 40.7108 38.5519 41.2816C38.1515 41.85 37.9035 42.5758 37.9035 43.3327L37.8933 52.3841C37.8906 53.1436 38.1361 53.7921 38.5339 54.2234C38.9316 54.6625 39.4793 54.8821 40.0838 54.7814L80.6579 48.2459C80.6579 48.2459 79.4929 45.3579 79.1622 40.7779C78.9452 37.7788 80.6784 33.6793 80.6784 33.6793ZM29.9111 36.3142L63.1258 30.9592C63.1258 30.9592 61.6663 28.5052 61.5268 25.0954C61.4158 22.3962 63.1439 19.0327 63.1439 19.0327L29.9266 24.385C29.4332 24.4678 28.9836 24.7932 28.6556 25.2581C28.3275 25.7205 28.126 26.3147 28.126 26.9371L28.1158 34.3457C28.113 34.963 28.3147 35.4977 28.6401 35.8542C28.9657 36.2109 29.4151 36.389 29.9111 36.3142Z" fill="#FFF3E4"/>
<path d="M52.2592 52.6459L42.7496 59.3478C42.5487 59.2653 42.3418 59.2024 42.1296 59.1625L1.55545 51.8906C0.850277 51.7613 0.150234 52.2407 0.0209883 52.9588C-0.108098 53.6783 0.369809 54.3652 1.09051 54.4944L41.6517 61.7637C41.8195 61.7959 42.083 61.9676 42.3336 62.3643C42.6152 62.8035 42.7753 63.3756 42.7753 63.9374L42.7883 74.0091C42.7909 74.5011 42.6618 74.9534 42.4446 75.2181C42.2896 75.403 42.2018 75.3783 42.1501 75.3717L1.57867 68.1002C0.876063 67.9698 0.173457 68.4503 0.0442109 69.1684C-0.0850352 69.8878 0.393031 70.5747 1.11373 70.704L41.6723 77.973C41.8559 78.0081 42.0365 78.0249 42.2148 78.0249C42.9268 78.0249 43.6001 77.7558 44.1519 77.252L71.7433 57.5403C72.5338 56.9797 73.0607 55.8405 73.058 54.4379L73.0518 49.4709L52.2592 52.6459Z" fill="#FBAC0F"/>
<path d="M80.4486 46.9402L39.8667 53.4768C39.7711 53.4962 39.655 53.4934 39.5051 53.3269C39.3243 53.128 39.2133 52.7779 39.2157 52.3853L39.226 43.3325C39.226 42.8805 39.3733 42.4103 39.6342 42.041C39.8408 41.7479 40.094 41.5554 40.3161 41.5179L80.8877 34.985C81.6112 34.8687 82.0992 34.1908 81.983 33.4686C81.8668 32.7479 81.1744 32.2481 80.4694 32.3733C80.4694 32.3733 48.0251 37.6503 39.13 39.1334L33.7102 35.7015L28.5879 36.5156L26.5679 31.179L11.7875 21.8198C10.514 22.1943 9.01313 23.9044 8.95627 25.8314L8.9433 34.9526C8.9433 36.2107 9.46765 37.2336 10.258 37.7373L38.0743 55.5744C38.0635 55.5675 38.0557 55.5606 38.0455 55.5537C38.5596 55.9294 39.1632 56.1283 39.7916 56.1283C39.9569 56.1283 40.1249 56.1152 40.2928 56.087L80.8669 49.5512C81.5903 49.4351 82.0783 48.757 81.9622 48.035C81.8487 47.3133 81.1486 46.8237 80.4486 46.9402Z" fill="#E63431"/>
<path d="M62.9166 29.6534L29.6167 34.963C29.5288 34.8674 29.4385 34.657 29.4385 34.3469L29.4487 26.937C29.4487 26.6115 29.5522 26.2797 29.7355 26.0199C29.8906 25.8003 30.0533 25.7047 30.1359 25.6905L63.3531 20.3382C64.0766 20.2219 64.5646 19.5426 64.4485 18.8219C64.332 18.0999 63.6374 17.6077 62.9347 17.7266C62.9347 17.7266 29.1502 23.2209 28.8893 23.3495L6.74256 9.32764C5.70154 9.63241 4.47202 11.0327 4.42542 12.6083L4.3479 20.4108C4.3479 21.4467 4.7768 22.2835 5.42511 22.6968C5.42511 22.6968 27.9472 37.2096 28.8936 37.5313C29.4141 37.7083 29.9758 37.6418 30.1204 37.6199L63.335 32.2649C64.0585 32.1486 64.5465 31.4692 64.4304 30.7485C64.3139 30.0266 63.6216 29.5346 62.9166 29.6534Z" fill="#006AB3"/>
</g>
<defs>
<clipPath id="clip0_114_241">
<rect width="82" height="82" fill="white"/>
</clipPath>
</defs>
</svg>
