<svg width="1440" height="465" viewBox="0 0 1440 465" fill="none" xmlns="http://www.w3.org/2000/svg">
<rect width="1440" height="465" fill="url(#paint0_linear_120_1237)"/>
<g opacity="0.04">
<mask id="mask0_120_1237" style="mask-type:luminance" maskUnits="userSpaceOnUse" x="0" y="0" width="1441" height="465">
<path d="M1440 0H0V465H1440V0Z" fill="white"/>
</mask>
<g mask="url(#mask0_120_1237)">
<path d="M1549.14 525.955H-109.136V-60.9541H1549.14L1549.14 525.955ZM-106.993 524.744H1546.99V-59.7431H-106.993V524.744Z" fill="white"/>
<path d="M1548.06 436.889H-108.065V438.1H1548.06V436.889Z" fill="white"/>
<path d="M1548.06 407.604H-108.065V408.815H1548.06V407.604Z" fill="white"/>
<path d="M1548.06 378.319H-108.065V379.53H1548.06V378.319Z" fill="white"/>
<path d="M1548.06 349.034H-108.065V350.245H1548.06V349.034Z" fill="white"/>
<path d="M1548.06 319.749H-108.065V320.96H1548.06V319.749Z" fill="white"/>
<path d="M1548.06 290.465H-108.065V291.676H1548.06V290.465Z" fill="white"/>
<path d="M1548.06 261.18H-108.065V262.391H1548.06V261.18Z" fill="white"/>
<path d="M1548.06 231.895H-108.065V233.105H1548.06V231.895Z" fill="white"/>
<path d="M1548.06 202.61H-108.065V203.821H1548.06V202.61Z" fill="white"/>
<path d="M1548.06 173.325H-108.065V174.536H1548.06V173.325Z" fill="white"/>
<path d="M1548.06 144.04H-108.065V145.25H1548.06V144.04Z" fill="white"/>
<path d="M1548.06 114.755H-108.065V115.966H1548.06V114.755Z" fill="white"/>
<path d="M1548.06 85.4697H-108.065V86.6807H1548.06V85.4697Z" fill="white"/>
<path d="M1548.06 56.1851H-108.065V57.396H1548.06V56.1851Z" fill="white"/>
<path d="M1548.06 26.9004H-108.065V28.1113H1548.06V26.9004Z" fill="white"/>
<path d="M1398.58 -60.3489H1396.43V525.349H1398.58V-60.3489Z" fill="white"/>
<path d="M1348.39 -60.3489H1346.25V525.349H1348.39V-60.3489Z" fill="white"/>
<path d="M1298.21 -60.3489H1296.06V525.349H1298.21V-60.3489Z" fill="white"/>
<path d="M1248.02 -60.3489H1245.88V525.349H1248.02V-60.3489Z" fill="white"/>
<path d="M1197.84 -60.3489H1195.69V525.349H1197.84V-60.3489Z" fill="white"/>
<path d="M1147.65 -60.3489H1145.51V525.349H1147.65V-60.3489Z" fill="white"/>
<path d="M1097.46 -60.3489H1095.32V525.349H1097.46V-60.3489Z" fill="white"/>
<path d="M1047.28 -60.3489H1045.14V525.349H1047.28V-60.3489Z" fill="white"/>
<path d="M997.094 -60.3489H994.951V525.349H997.094V-60.3489Z" fill="white"/>
<path d="M946.906 -60.3489H944.764V525.349H946.906V-60.3489Z" fill="white"/>
<path d="M896.721 -60.3489H894.578V525.349H896.721V-60.3489Z" fill="white"/>
<path d="M846.535 -60.3489H844.393V525.349H846.535V-60.3489Z" fill="white"/>
<path d="M796.35 -60.3489H794.207V525.349H796.35V-60.3489Z" fill="white"/>
<path d="M746.164 -60.3489H744.021V525.349H746.164V-60.3489Z" fill="white"/>
<path d="M695.979 -60.3489H693.836V525.349H695.979V-60.3489Z" fill="white"/>
<path d="M645.793 -60.3489H643.65V525.349H645.793V-60.3489Z" fill="white"/>
<path d="M595.607 -60.3489H593.465V525.349H595.607V-60.3489Z" fill="white"/>
<path d="M545.422 -60.3489H543.279V525.349H545.422V-60.3489Z" fill="white"/>
<path d="M495.235 -60.3489H493.092V525.349H495.235V-60.3489Z" fill="white"/>
<path d="M445.049 -60.3489H442.906V525.349H445.049V-60.3489Z" fill="white"/>
<path d="M394.864 -60.3489H392.721V525.349H394.864V-60.3489Z" fill="white"/>
<path d="M344.679 -60.3489H342.536V525.349H344.679V-60.3489Z" fill="white"/>
<path d="M294.493 -60.3489H292.35V525.349H294.493V-60.3489Z" fill="white"/>
<path d="M244.307 -60.3489H242.164V525.349H244.307V-60.3489Z" fill="white"/>
<path d="M194.122 -60.3489H191.979V525.349H194.122V-60.3489Z" fill="white"/>
<path d="M143.936 -60.3489H141.793V525.349H143.936V-60.3489Z" fill="white"/>
<path d="M93.7509 -60.3489H91.608V525.349H93.7509V-60.3489Z" fill="white"/>
<path d="M43.5637 -60.3489H41.4208V525.349H43.5637V-60.3489Z" fill="white"/>
</g>
</g>
<defs>
<linearGradient id="paint0_linear_120_1237" x1="0" y1="232.5" x2="1440" y2="232.5" gradientUnits="userSpaceOnUse">
<stop stop-color="#0D81FE"/>
<stop offset="1" stop-color="#B37ADE"/>
</linearGradient>
</defs>
</svg>
