<svg width="35" height="36" viewBox="0 0 35 36" fill="none" xmlns="http://www.w3.org/2000/svg">
<path d="M32.1061 23.3786C30.0145 23.3786 27.9609 23.0515 26.0148 22.4084C25.0612 22.0832 23.8889 22.3815 23.3069 22.9793L19.4657 25.879C15.011 23.5011 12.267 20.7579 9.92157 16.3367L12.736 12.5956C13.4671 11.8654 13.7294 10.7987 13.4152 9.79784C12.7693 7.84152 12.4412 5.78885 12.4412 3.69642C12.4413 2.18483 11.2116 0.955078 9.70005 0.955078H3.42631C1.91481 0.955078 0.685059 2.18483 0.685059 3.69633C0.685059 21.0221 14.7803 35.1173 32.1061 35.1173C33.6176 35.1173 34.8473 33.8875 34.8473 32.376V26.1198C34.8473 24.6084 33.6175 23.3786 32.1061 23.3786Z" fill="black"/>
</svg>
