<svg width="64" height="64" viewBox="0 0 64 64" fill="none" xmlns="http://www.w3.org/2000/svg">
<path d="M62 32C62 34.56 58.855 36.67 58.225 39.03C57.575 41.47 59.22 44.87 57.985 47.005C56.73 49.175 52.955 49.435 51.195 51.195C49.435 52.955 49.175 56.73 47.005 57.985C44.87 59.22 41.47 57.575 39.03 58.225C36.67 58.855 34.56 62 32 62C29.44 62 27.33 58.855 24.97 58.225C22.53 57.575 19.13 59.22 16.995 57.985C14.825 56.73 14.565 52.955 12.805 51.195C11.045 49.435 7.27 49.175 6.015 47.005C4.78 44.87 6.425 41.47 5.775 39.03C5.145 36.67 2 34.56 2 32C2 29.44 5.145 27.33 5.775 24.97C6.425 22.53 4.78 19.13 6.015 16.995C7.27 14.825 11.045 14.565 12.805 12.805C14.565 11.045 14.825 7.27 16.995 6.015C19.13 4.78 22.53 6.425 24.97 5.775C27.33 5.145 29.44 2 32 2C34.56 2 36.67 5.145 39.03 5.775C41.47 6.425 44.87 4.78 47.005 6.015C49.175 7.27 49.435 11.045 51.195 12.805C52.955 14.565 56.73 14.825 57.985 16.995C59.22 19.13 57.575 22.53 58.225 24.97C58.855 27.33 62 29.44 62 32Z" fill="#2568EF"/>
<path d="M40.6701 23.0599L29.2501 34.4799L23.3301 28.5649C22.0451 27.2799 19.9601 27.2799 18.6751 28.5649C17.3901 29.8499 17.3901 31.9349 18.6751 33.2199L26.9801 41.5249C28.2301 42.7749 30.2601 42.7749 31.5101 41.5249L45.3201 27.7149C46.6051 26.4299 46.6051 24.3449 45.3201 23.0599C44.0351 21.7749 41.9551 21.7749 40.6701 23.0599Z" fill="#FFFCEE"/>
</svg>
