<svg width="26" height="26" viewBox="0 0 26 26" fill="none" xmlns="http://www.w3.org/2000/svg">
<path d="M2.19857 12.3491V12.6942L1.77783 12.5547L2.19857 12.3491Z" fill="#49E4A3"/>
<path d="M16.6874 18.2451V22.9841L24.0213 17.706V13.0568L16.6874 18.2451Z" fill="#28AF6E"/>
<path d="M24.3454 12.8277L17.4639 17.6959L2.19961 12.6938V9.83762L5.14358 10.8256C5.14358 10.8256 2.48491 9.42585 1.65454 8.75745V7.07678C1.65454 7.07678 6.11474 11.1688 17.0497 13.7179L23.6247 8.79047V9.78716L24.2775 9.93853L24.3454 12.8277Z" fill="#28AF6E"/>
<path d="M8.25275 10.8835V14.6774L10.3727 15.3721V11.7301C9.61236 11.4483 8.90638 11.1645 8.25275 10.8835Z" fill="#FFCA6C"/>
<path d="M1.7782 12.5554V16.9708L16.6874 22.984V18.245L1.7782 12.5554Z" fill="#39C988"/>
<path d="M8.2627 15.03V19.5862L10.421 20.4567V15.8537L8.2627 15.03Z" fill="#FFCA6C"/>
<path d="M17.4638 17.6959L16.6874 18.2452L1.77844 12.5555L17.4638 17.6959Z" fill="#49E4A3"/>
<path d="M23.6253 8.79025L17.0496 13.7184C14.5608 13.111 12.3248 12.4444 10.3416 11.7282C9.59475 11.4588 8.88329 11.1822 8.20727 10.8986C5.38273 9.71677 3.194 8.42387 1.65527 7.07661C4.29313 5.29205 6.94749 3.94952 9.62072 3.01587C11.7529 4.76011 14.1919 5.9884 16.7613 6.91824C18.7231 7.62733 20.9851 8.24896 23.6253 8.79025Z" fill="#49E4A3"/>
<path d="M16.5529 12.8887C10.7351 11.4191 6.18656 9.56173 3.25281 7.4649C3.47926 7.32398 3.48971 6.99805 3.27268 6.84301C5.181 5.65606 7.13189 4.68211 9.09571 3.93628C9.3019 4.09086 9.57238 4.12985 9.81296 4.03748C12.6779 6.20166 16.2893 7.76113 21.2366 8.95981C20.9839 9.14918 21.0657 9.54752 21.3727 9.62192L17.1831 12.7617C16.9647 12.707 16.7328 12.7533 16.5529 12.8887Z" fill="#39C988"/>
<path d="M24.3455 12.8278L17.4639 17.696V15.0498L24.2775 9.9386L24.3455 12.8278Z" fill="#39C988"/>
<path d="M23.6247 8.79053V9.78722L17.0497 14.6654V13.7179L23.6247 8.79053Z" fill="#39C988"/>
<path d="M24.2775 9.9386L17.4639 15.0498L17.0497 14.6654L23.6247 9.78723L24.2775 9.9386Z" fill="#49E4A3"/>
<path d="M5.14356 10.8256L2.19958 9.83767L2.8437 9.54053C2.8437 9.54053 4.44401 10.4899 5.14356 10.8256Z" fill="#39C988"/>
<path d="M24.0215 13.0566V15.2849L17.4639 17.6962L24.0215 13.0566Z" fill="#189453"/>
<path d="M14.944 7.75948C14.944 7.75948 16.4891 8.71182 13.9516 9.76997C11.4141 10.8281 10.3247 10.073 10.0581 9.6056C9.92601 9.3741 9.92904 8.31398 11.4495 7.65649C12.9699 6.999 14.4056 7.38244 14.944 7.75948Z" fill="#49E4A3"/>
<path d="M17.6379 11.0017C16.5663 11.4485 16.1062 11.1296 15.9936 10.9323C15.9379 10.8345 15.9392 10.3868 16.5812 10.1091C17.6801 9.63397 19.0694 10.4047 17.6379 11.0017Z" fill="#49E4A3"/>
<path d="M6.69796 6.96452C6.69796 6.96452 6.04546 6.56238 7.11706 6.11551C8.18865 5.66865 8.6487 5.98753 8.76128 6.18489C8.81704 6.28265 8.81574 6.73032 8.17365 7.00799C7.53156 7.28565 6.9253 7.12374 6.69796 6.96452Z" fill="#49E4A3"/>
<path d="M16.761 6.91829L10.3413 11.7283C9.59439 11.4588 8.88293 11.1823 8.20691 10.8986L14.6526 6.06738C15.3144 6.3652 16.0164 6.64883 16.761 6.91829Z" fill="#FFDE9B"/>
<path d="M8.58769 14.787L8.2627 15.0301C8.93872 15.3137 9.66801 15.5868 10.4149 15.8563L10.8516 15.529L8.58769 14.787Z" fill="#FFDE9B"/>
</svg>
