<svg width="24" height="24" viewBox="0 0 24 24" fill="none" xmlns="http://www.w3.org/2000/svg">
<g clip-path="url(#clip0_44_252)">
<path d="M20.25 17.1311C21.1276 17.4414 21.8873 18.0161 22.4246 18.7762C22.9619 19.5362 23.2503 20.4442 23.25 21.375V23.25H0.75V21.375C0.749745 20.4442 1.03812 19.5362 1.57541 18.7762C2.11269 18.0161 2.87245 17.4414 3.75 17.1311" fill="#2D4D83"/>
<path d="M9.05625 13.875C8.03926 12.25 7.49996 10.3717 7.5 8.45475V7.125L10.0076 5.45325C10.5732 5.07608 11.2377 4.87487 11.9175 4.875C12.6993 4.87505 13.4577 4.60895 14.0681 4.1205L15 3.375L15.8704 4.68037C16.281 5.2964 16.5001 6.02018 16.5 6.7605V8.45475C16.5001 10.3718 15.9606 12.2501 14.9434 13.875" fill="#FADFB2"/>
<path d="M7.893 11.2605C7.63222 10.3481 7.49995 9.40372 7.5 8.45475V8.25H7.0125C6.74397 8.25 6.48643 8.35667 6.29655 8.54655C6.10667 8.73643 6 8.99397 6 9.2625C5.99999 9.41441 6.03417 9.56437 6.09999 9.70127C6.16581 9.83818 6.2616 9.95852 6.38025 10.0534L7.893 11.2597V11.2605Z" fill="#F5CF88"/>
<path d="M16.125 11.25L17.6198 10.0541C17.7385 9.95919 17.8344 9.83873 17.9002 9.70169C17.966 9.56464 18.0001 9.41453 18 9.2625C18 9.12954 17.9738 8.99788 17.9229 8.87503C17.8721 8.75219 17.7975 8.64057 17.7035 8.54655C17.6094 8.45254 17.4978 8.37795 17.375 8.32707C17.2521 8.27619 17.1205 8.25 16.9875 8.25H16.5V8.45475C16.5001 9.39876 16.3692 10.3382 16.1111 11.2462L16.125 11.25Z" fill="#F5CF88"/>
<path d="M16.5 8.25L17.5166 5.45438C17.8268 4.60153 17.7941 3.66163 17.4255 2.83238C17.1501 2.21258 16.7008 1.68597 16.1321 1.31636C15.5634 0.946757 14.8997 0.750023 14.2215 0.75H11.0378C8.72587 0.750112 6.46053 1.3998 4.5 2.625L5.40413 2.925C5.57741 2.98242 5.73711 3.0747 5.87339 3.19617C6.00967 3.31763 6.11965 3.4657 6.19655 3.63127C6.27345 3.79684 6.31564 3.97639 6.32054 4.15888C6.32543 4.34137 6.29292 4.52293 6.225 4.69237C6.15491 4.86777 6.12272 5.05601 6.13054 5.24473C6.13836 5.43345 6.18602 5.61838 6.27038 5.78737L7.5 8.25V7.125L10.0076 5.45325C10.5732 5.07608 11.2377 4.87487 11.9175 4.875C12.6993 4.87505 13.4577 4.60895 14.0681 4.1205L15 3.375L15.8704 4.68038C16.281 5.2964 16.5001 6.02018 16.5 6.7605V8.25Z" fill="#976947"/>
<path d="M9 8.25H11.25V9.75C11.25 9.94891 11.171 10.1397 11.0303 10.2803C10.8897 10.421 10.6989 10.5 10.5 10.5H9.75C9.55109 10.5 9.36032 10.421 9.21967 10.2803C9.07902 10.1397 9 9.94891 9 9.75V8.25Z" fill="#F2F0EB"/>
<path d="M12.75 8.25H15V9.75C15 9.94891 14.921 10.1397 14.7803 10.2803C14.6397 10.421 14.4489 10.5 14.25 10.5H13.5C13.3011 10.5 13.1103 10.421 12.9697 10.2803C12.829 10.1397 12.75 9.94891 12.75 9.75V8.25Z" fill="#F2F0EB"/>
<path d="M11.25 8.625H12.75V9.375H11.25V8.625Z" fill="#A8B0BC"/>
<path d="M3.75 23.25V15.375C3.75 14.9772 3.90804 14.5956 4.18934 14.3143C4.47064 14.033 4.85218 13.875 5.25 13.875H18.75C19.1478 13.875 19.5294 14.033 19.8107 14.3143C20.092 14.5956 20.25 14.9772 20.25 15.375V23.25" fill="#D5CEC2"/>
<path d="M12 21.375C12.6213 21.375 13.125 20.8713 13.125 20.25C13.125 19.6287 12.6213 19.125 12 19.125C11.3787 19.125 10.875 19.6287 10.875 20.25C10.875 20.8713 11.3787 21.375 12 21.375Z" fill="#E7E4DD"/>
<path d="M9.48449 18.2651L7.98449 16.7651C7.94963 16.7303 7.92197 16.6889 7.9031 16.6434C7.88423 16.5979 7.87451 16.5491 7.87451 16.4998C7.87451 16.4505 7.88423 16.4017 7.9031 16.3562C7.92197 16.3107 7.94963 16.2693 7.98449 16.2345L9.48449 14.7345L10.0151 15.2651L8.78024 16.5L10.0151 17.7345L9.48449 18.2651Z" fill="#C66B60"/>
<path d="M14.5151 18.2651L13.9845 17.7345L15.2194 16.5L13.9845 15.2651L14.5151 14.7345L16.0151 16.2345C16.05 16.2693 16.0776 16.3107 16.0965 16.3562C16.1154 16.4017 16.1251 16.4505 16.1251 16.4998C16.1251 16.5491 16.1154 16.5979 16.0965 16.6434C16.0776 16.6889 16.05 16.7303 16.0151 16.7651L14.5151 18.2651Z" fill="#C66B60"/>
<path d="M10.5745 17.7777L12.8245 14.7777L13.4245 15.2277L11.1745 18.2277L10.5745 17.7777Z" fill="#C66B60"/>
<path d="M23.625 21.375C23.6236 20.4131 23.3382 19.4731 22.8044 18.6729C22.2707 17.8728 21.5125 17.2481 20.625 16.8773V15.375C20.6245 14.8779 20.4268 14.4012 20.0753 14.0497C19.7238 13.6982 19.2471 13.5005 18.75 13.5H15.5933C15.9401 12.8597 16.2198 12.1852 16.428 11.4874L17.853 10.3466C18.0745 10.1698 18.2364 9.92927 18.3169 9.65751C18.3974 9.38576 18.3926 9.09585 18.3032 8.8269C18.2137 8.55796 18.044 8.32292 17.8167 8.15351C17.5895 7.98409 17.3158 7.88846 17.0325 7.8795L17.868 5.58225C18.0812 4.99603 18.1499 4.36706 18.0684 3.74863C17.9869 3.1302 17.7575 2.54054 17.3996 2.0296C17.0418 1.51866 16.5661 1.10151 16.0128 0.813485C15.4595 0.525459 14.8449 0.375049 14.2211 0.375001H11.0378C8.65541 0.374325 6.32091 1.04368 4.30087 2.30663C4.24019 2.34422 4.19149 2.39835 4.16051 2.46267C4.12953 2.52698 4.11754 2.5988 4.12597 2.66969C4.1344 2.74058 4.16289 2.80759 4.20808 2.86285C4.25328 2.9181 4.31331 2.95931 4.38112 2.98163L5.28525 3.28163C5.4097 3.32318 5.52436 3.38972 5.62218 3.47716C5.72 3.5646 5.79893 3.6711 5.85413 3.79013C5.90933 3.90916 5.93963 4.03822 5.94317 4.16938C5.94672 4.30053 5.92343 4.43104 5.87475 4.55288C5.78504 4.77742 5.74387 5.01842 5.75395 5.26001C5.76403 5.50161 5.82514 5.73833 5.93325 5.95463L6.9 7.88625C6.62335 7.90819 6.35969 8.01283 6.14328 8.18657C5.92687 8.36031 5.76773 8.59513 5.68652 8.86051C5.60532 9.12588 5.6058 9.40955 5.68792 9.67464C5.77004 9.93974 5.93 10.174 6.147 10.347L7.572 11.4874C7.78018 12.1852 8.05991 12.8597 8.40675 13.5H5.25C4.75287 13.5005 4.27625 13.6982 3.92472 14.0497C3.5732 14.4012 3.3755 14.8779 3.375 15.375V16.8769C2.48744 17.2477 1.7292 17.8725 1.19547 18.6727C0.661739 19.473 0.376305 20.4131 0.375 21.375V23.25C0.375 23.3495 0.414509 23.4448 0.484835 23.5152C0.555161 23.5855 0.650544 23.625 0.75 23.625H23.25C23.3495 23.625 23.4448 23.5855 23.5152 23.5152C23.5855 23.4448 23.625 23.3495 23.625 23.25V21.375ZM15 7.875H12.75C12.6505 7.875 12.5552 7.91451 12.4848 7.98484C12.4145 8.05516 12.375 8.15054 12.375 8.25V8.625H11.625V8.25C11.625 8.15054 11.5855 8.05516 11.5152 7.98484C11.4448 7.91451 11.3495 7.875 11.25 7.875H7.875V7.32563L10.2157 5.76488C10.7194 5.42856 11.3115 5.24936 11.9171 5.25C12.7839 5.24892 13.6246 4.95399 14.3021 4.41338L14.9145 3.92288L15.558 4.88813C15.9283 5.44217 16.1256 6.09373 16.125 6.76013V7.875H15ZM14.625 8.625V9.75C14.625 9.84946 14.5855 9.94484 14.5152 10.0152C14.4448 10.0855 14.3495 10.125 14.25 10.125H13.5C13.4005 10.125 13.3052 10.0855 13.2348 10.0152C13.1645 9.94484 13.125 9.84946 13.125 9.75V8.625H14.625ZM10.875 8.625V9.75C10.875 9.84946 10.8355 9.94484 10.7652 10.0152C10.6948 10.0855 10.5995 10.125 10.5 10.125H9.75C9.65054 10.125 9.55516 10.0855 9.48483 10.0152C9.41451 9.94484 9.375 9.84946 9.375 9.75V8.625H10.875ZM17.625 9.2625C17.6253 9.35824 17.6039 9.45279 17.5625 9.5391C17.521 9.6254 17.4606 9.70122 17.3857 9.76088L16.7059 10.3046C16.8049 9.74999 16.8593 9.18832 16.8686 8.625H16.9875C17.0712 8.625 17.1541 8.64149 17.2315 8.67353C17.3088 8.70556 17.3791 8.75252 17.4383 8.81172C17.4975 8.87092 17.5444 8.9412 17.5765 9.01854C17.6085 9.09589 17.625 9.17878 17.625 9.2625ZM6.57113 4.83113C6.65773 4.61434 6.6991 4.38214 6.69272 4.14878C6.68633 3.91543 6.63231 3.68584 6.53398 3.47412C6.43565 3.26239 6.29509 3.073 6.12091 2.91757C5.94674 2.76214 5.74263 2.64395 5.52112 2.57025L5.40863 2.53275C7.14083 1.60811 9.07421 1.1246 11.0378 1.125H14.2211C14.7243 1.12495 15.2201 1.24618 15.6665 1.47844C16.1129 1.71069 16.4967 2.04711 16.7855 2.45921C17.0743 2.8713 17.2594 3.34693 17.3253 3.84579C17.3913 4.34465 17.336 4.85205 17.1641 5.325L16.8379 6.22163C16.7565 5.59539 16.5321 4.99629 16.182 4.47075L15.3116 3.1665C15.2828 3.12331 15.2453 3.08657 15.2015 3.05862C15.1578 3.03067 15.1087 3.01211 15.0574 3.00413C15.006 2.99632 14.9536 2.99919 14.9034 3.01255C14.8532 3.0259 14.8063 3.04946 14.7656 3.08175L13.8337 3.82763C13.2893 4.26198 12.6136 4.49899 11.9171 4.5C11.1634 4.49921 10.4263 4.72226 9.7995 5.14088L7.29187 6.81263C7.26854 6.82844 7.24715 6.84695 7.22812 6.86775L6.60375 5.61938C6.54308 5.4977 6.50882 5.36458 6.50319 5.22874C6.49757 5.09289 6.52072 4.9574 6.57113 4.83113ZM6.61425 9.76125C6.51072 9.67883 6.4354 9.56623 6.39875 9.43908C6.3621 9.31193 6.36592 9.17652 6.40969 9.05164C6.45346 8.92675 6.53501 8.81859 6.64302 8.74214C6.75104 8.66569 6.88017 8.62475 7.0125 8.625H7.13025C7.14007 9.18844 7.19462 9.7502 7.29338 10.305L6.61425 9.76125ZM7.88062 8.625H8.625V9.75C8.625 10.0484 8.74353 10.3345 8.9545 10.5455C9.16548 10.7565 9.45163 10.875 9.75 10.875H10.5C10.7984 10.875 11.0845 10.7565 11.2955 10.5455C11.5065 10.3345 11.625 10.0484 11.625 9.75V9.375H12.375V9.75C12.375 10.0484 12.4935 10.3345 12.7045 10.5455C12.9155 10.7565 13.2016 10.875 13.5 10.875H14.25C14.5484 10.875 14.8345 10.7565 15.0455 10.5455C15.2565 10.3345 15.375 10.0484 15.375 9.75V8.625H16.119C16.0897 10.3437 15.61 12.0247 14.7277 13.5H9.27225C8.38989 12.0247 7.91004 10.3438 7.88062 8.625ZM5.25 14.25H18.75C19.0484 14.25 19.3345 14.3685 19.5455 14.5795C19.7565 14.7905 19.875 15.0766 19.875 15.375V22.875H4.125V15.375C4.125 15.0766 4.24353 14.7905 4.4545 14.5795C4.66548 14.3685 4.95163 14.25 5.25 14.25ZM1.125 21.375C1.12614 20.6152 1.33677 19.8704 1.73372 19.2225C2.13067 18.5746 2.69857 18.0487 3.375 17.7026V22.875H1.125V21.375ZM22.875 22.875H20.625V17.7023C21.3015 18.0484 21.8694 18.5744 22.2663 19.2223C22.6633 19.8703 22.8739 20.6151 22.875 21.375V22.875Z" fill="black"/>
<path d="M12 21.75C12.2967 21.75 12.5867 21.662 12.8334 21.4972C13.08 21.3324 13.2723 21.0981 13.3858 20.824C13.4994 20.5499 13.5291 20.2483 13.4712 19.9574C13.4133 19.6664 13.2704 19.3991 13.0607 19.1893C12.8509 18.9796 12.5836 18.8367 12.2926 18.7788C12.0017 18.7209 11.7001 18.7506 11.426 18.8642C11.1519 18.9777 10.9176 19.17 10.7528 19.4166C10.588 19.6633 10.5 19.9533 10.5 20.25C10.5 20.6478 10.658 21.0294 10.9393 21.3107C11.2206 21.592 11.6022 21.75 12 21.75ZM12 19.5C12.1483 19.5 12.2933 19.544 12.4167 19.6264C12.54 19.7088 12.6361 19.8259 12.6929 19.963C12.7497 20.1 12.7645 20.2508 12.7356 20.3963C12.7067 20.5418 12.6352 20.6754 12.5303 20.7803C12.4254 20.8852 12.2918 20.9567 12.1463 20.9856C12.0008 21.0145 11.85 20.9997 11.713 20.9429C11.5759 20.8861 11.4588 20.79 11.3764 20.6667C11.294 20.5433 11.25 20.3983 11.25 20.25C11.25 20.0511 11.329 19.8603 11.4697 19.7197C11.6103 19.579 11.8011 19.5 12 19.5Z" fill="black"/>
<path d="M9.48449 18.2651L10.0151 17.7345L8.78024 16.5L10.0151 15.2651L9.48449 14.7345L7.98449 16.2345C7.94963 16.2693 7.92197 16.3107 7.9031 16.3562C7.88423 16.4017 7.87451 16.4505 7.87451 16.4998C7.87451 16.5491 7.88423 16.5979 7.9031 16.6434C7.92197 16.6889 7.94963 16.7303 7.98449 16.7651L9.48449 18.2651Z" fill="black"/>
<path d="M14.5151 18.2651L16.0151 16.7651C16.05 16.7303 16.0776 16.6889 16.0965 16.6434C16.1154 16.5979 16.1251 16.5491 16.1251 16.4998C16.1251 16.4505 16.1154 16.4017 16.0965 16.3562C16.0776 16.3107 16.05 16.2693 16.0151 16.2345L14.5151 14.7345L13.9845 15.2651L15.2194 16.5L13.9845 17.7345L14.5151 18.2651Z" fill="black"/>
<path d="M10.5745 17.7777L12.8245 14.7777L13.4245 15.2277L11.1745 18.2277L10.5745 17.7777Z" fill="black"/>
</g>
<defs>
<clipPath id="clip0_44_252">
<rect width="24" height="24" fill="white"/>
</clipPath>
</defs>
</svg>
