<svg width="24" height="24" viewBox="0 0 24 24" fill="none" xmlns="http://www.w3.org/2000/svg">
<g clip-path="url(#clip0_1402_646)">
<path d="M7.5 12.375L9 13.875L10.5 12.375L15.3698 13.1865C16.455 13.3676 17.25 14.3063 17.25 15.4061V23.25H0.75V15.4061C0.75 14.3063 1.545 13.3676 2.63025 13.1869L7.5 12.375Z" fill="#E39854"/>
<path d="M22.875 23.25H12.375C12.168 23.25 12 23.082 12 22.875V15.375C12 15.168 12.168 15 12.375 15H22.875C23.082 15 23.25 15.168 23.25 15.375V22.875C23.25 23.082 23.082 23.25 22.875 23.25Z" fill="#606060"/>
<path d="M12 21.6094C12.0248 21.6097 12.0487 21.6131 12.0739 21.6131C15.8734 21.6131 18.9923 18.7091 19.3388 15H12.375C12.168 15 12 15.168 12 15.375V21.6094Z" fill="#8C8787"/>
<path d="M23.25 16.5C23.25 17.7427 22.2428 18.75 21 18.75H14.25C13.0073 18.75 12 17.7427 12 16.5V15.375C12 15.168 12.168 15 12.375 15H22.875C23.082 15 23.25 15.168 23.25 15.375V16.5Z" fill="#D5CEC2"/>
<path d="M19.3388 15H12.375C12.168 15 12 15.168 12 15.375V16.5C12 17.7427 13.0073 18.75 14.25 18.75H17.8609C18.6746 17.6902 19.2075 16.4051 19.3388 15Z" fill="#E7E4DD"/>
<path d="M23.25 21.75V22.875C23.25 23.082 23.082 23.25 22.875 23.25H12.375C12.168 23.25 12 23.082 12 22.875V21.75H23.25Z" fill="#D5CEC2"/>
<path d="M8.25 13.125L7.875 14.25L8.625 15.375H9.375L10.125 14.25L9.75 13.125" fill="#D5CEC2"/>
<path d="M11.625 4.125L11.025 4.575C10.4407 5.013 9.73012 5.25 9 5.25C8.26988 5.25 7.55925 5.013 6.975 4.575L6.375 4.125L5.625 5.625V7.875C5.625 9.1995 6.38963 10.3425 7.5 10.8949V12.375L9 13.875L10.5 12.375V10.8949C11.6104 10.3421 12.375 9.19912 12.375 7.875V5.625L11.625 4.125Z" fill="#FADFB2"/>
<path d="M12.3741 6L12.8057 4.99988C13.1439 4.21537 13.0843 3.31575 12.6444 2.583C12.3677 2.12213 11.9578 1.75575 11.4684 1.533L10.4222 1.05637C9.97857 0.854625 9.49707 0.75 9.00994 0.75C8.2727 0.75 7.55532 0.98925 6.96545 1.43137L6.31932 1.91925C5.79582 2.0325 5.33457 2.35725 5.05295 2.82675C4.70795 3.40163 4.68057 4.113 4.98057 4.71263L5.62407 6V5.625L6.37407 4.125L6.97407 4.575C7.55832 5.013 8.26895 5.25 8.99907 5.25C9.7292 5.25 10.4398 5.013 11.0241 4.575L11.6241 4.125L12.3741 5.625V6Z" fill="#C18E59"/>
<path d="M5.625 6H4.875C4.46062 6 4.125 6.33562 4.125 6.75C4.125 7.16438 4.46062 7.5 4.875 7.5H5.625" fill="#EFBE9A"/>
<path d="M12.375 6H13.125C13.5394 6 13.875 6.33562 13.875 6.75C13.875 7.16438 13.5394 7.5 13.125 7.5H12.375" fill="#EFBE9A"/>
<path d="M4.125 16.499H4.875V23.2486H4.125V16.499Z" fill="#C16B3F"/>
<path d="M9.375 15.375L10.125 17.25L9 22.125L7.875 17.25L8.625 15.375" fill="#E7E4DD"/>
<path d="M17.625 20.25C17.2106 20.25 16.875 19.9144 16.875 19.5V17.25H18.375V19.5C18.375 19.9144 18.0394 20.25 17.625 20.25Z" fill="#F2C351"/>
<path d="M19.875 14.999L19.8746 13.499C19.8746 13.292 19.7066 13.124 19.4996 13.124H15.75C15.543 13.124 15.375 13.292 15.375 13.499V14.9986L14.625 14.999V13.499C14.625 12.8788 15.1298 12.374 15.75 12.374H19.4996C20.1199 12.374 20.6246 12.8788 20.6246 13.499L20.625 14.9986L19.875 14.999Z" fill="#8C8787"/>
<path d="M18.375 17.9858V17.25H16.875V19.5C16.875 19.5911 16.8938 19.6774 16.9234 19.7584C17.4956 19.2484 17.9861 18.6514 18.375 17.9858Z" fill="#F7D881"/>
<path d="M22.875 14.6248H20.625V13.4998C20.625 12.8795 20.1203 12.3748 19.5 12.3748H15.75C15.4268 12.3748 15.1369 12.5139 14.9318 12.7329L10.875 12.0568V11.117C11.994 10.4675 12.75 9.25889 12.75 7.87477H13.125C13.7453 7.87439 14.2496 7.36964 14.2496 6.74977C14.2496 6.12952 13.7453 5.62477 13.125 5.62477H12.945L13.1505 5.14814C13.5356 4.25489 13.467 3.22364 12.9664 2.38964C12.6491 1.86127 12.1853 1.44689 11.6243 1.19152L10.5776 0.714893C9.34313 0.152393 7.82663 0.316643 6.741 1.13114L6.14963 1.57477L6.15037 1.57589C5.565 1.72852 5.049 2.10502 4.73175 2.63377C4.3185 3.32189 4.28625 4.16189 4.6455 4.88002L5.01825 5.62477H4.875C4.25475 5.62477 3.75 6.12952 3.75 6.74977C3.75 7.36964 4.25438 7.87439 4.875 7.87477H5.25C5.25 9.25927 6.006 10.4679 7.125 11.1174V12.0571L2.56838 12.8161C1.29713 13.028 0.375 14.117 0.375 15.4055V23.249C0.375 23.4564 0.542625 23.624 0.75 23.624H12.375H12.7496H22.8746C23.2883 23.624 23.6246 23.288 23.6246 22.874V15.3748C23.625 14.9608 23.2886 14.6248 22.875 14.6248ZM22.875 16.4994C22.8746 17.5333 22.0339 18.374 20.9996 18.374H18.7496V17.2494C18.7496 17.042 18.582 16.8744 18.3746 16.8744H16.8746C16.6673 16.8744 16.4996 17.042 16.4996 17.2494V18.374H14.2496C13.2161 18.374 12.3758 17.534 12.3746 16.5013V15.3748H22.8746L22.875 16.4994ZM12.375 18.3328C12.852 18.8203 13.5158 19.124 14.25 19.124H16.5V19.4998C16.5 20.1196 17.0048 20.624 17.625 20.624C18.2453 20.624 18.75 20.1196 18.75 19.4998V19.124H21C21.7346 19.124 22.3984 18.8199 22.8754 18.3324L22.8758 21.3744H12.375V18.3328ZM17.25 19.4998V17.6244H18V19.4998C18 19.7064 17.832 19.874 17.625 19.874C17.4184 19.874 17.25 19.7064 17.25 19.4998ZM15.375 13.5729C15.9653 13.694 16.4524 14.0908 16.6988 14.6248H15.375V13.5729ZM19.875 13.4998V14.6248H17.5009C17.3003 13.9831 16.8615 13.4503 16.2866 13.1248H19.5C19.7066 13.1248 19.875 13.2928 19.875 13.4998ZM13.4996 6.74977C13.4996 6.95639 13.3316 7.12477 13.125 7.12477H12.75V6.37477H13.125C13.3316 6.37477 13.4996 6.54277 13.4996 6.74977ZM5.37525 3.01964C5.66025 2.54452 6.18113 2.24977 6.735 2.24977C7.323 2.24977 7.86863 2.54189 8.19488 3.03089L8.31263 3.20752L8.937 2.79164L8.81925 2.61502C8.481 2.10764 7.97663 1.75177 7.40475 1.59314C8.25375 1.06664 9.35438 0.981893 10.2675 1.39702L11.3141 1.87364C11.736 2.06602 12.0855 2.37764 12.3236 2.77514C12.7001 3.40289 12.7523 4.17877 12.4624 4.85077L12.4369 4.91002L11.9606 3.95714C11.9111 3.85739 11.8196 3.78539 11.7113 3.75989C11.6036 3.73514 11.4893 3.75839 11.4 3.82477L10.8 4.27477C10.2836 4.66177 9.64463 4.87477 9 4.87477C8.35538 4.87477 7.716 4.66177 7.2 4.27439L6.6 3.82439C6.51113 3.75802 6.39825 3.73514 6.28875 3.75952C6.18038 3.78502 6.08925 3.85739 6.03938 3.95677L5.53088 4.97339L5.31638 4.54439C5.07263 4.05689 5.09475 3.48689 5.37525 3.01964ZM4.875 7.12477C4.66838 7.12477 4.5 6.95639 4.5 6.74977C4.5 6.54277 4.668 6.37477 4.875 6.37477H5.25V7.12477H4.875ZM6 7.87477V5.71327L6.50925 4.69439L6.75 4.87477C7.395 5.35852 8.19413 5.62477 9 5.62477C9.80588 5.62477 10.605 5.35852 11.25 4.87477L11.4904 4.69439L12 5.71327V7.87477C12 9.52889 10.6541 10.8748 9 10.8748C7.3455 10.8748 6 9.52889 6 7.87477ZM9 11.6248C9.39188 11.6248 9.7695 11.5636 10.125 11.4519V12.2195L9 13.3445L7.875 12.2195V11.4519C8.2305 11.5636 8.60813 11.6248 9 11.6248ZM8.87888 15.7494H9.12113L9.7335 17.2794L9 20.4568L8.2665 17.2794L8.87888 15.7494ZM9.711 14.1943L9.174 14.9994H8.82563L8.28863 14.1943L8.4135 13.8189L8.7345 14.1399C8.80763 14.213 8.90363 14.2494 9 14.2494C9.096 14.2494 9.192 14.213 9.26513 14.1399L9.58613 13.8189L9.711 14.1943ZM4.87463 22.874V16.4994H4.12463V22.874H1.125V15.4055C1.125 14.4853 1.78388 13.7075 2.69138 13.556L7.371 12.7764L7.82063 13.226L7.51913 14.1309C7.48238 14.2404 7.4985 14.3611 7.56263 14.4575L8.20313 15.4183L7.52663 17.1095C7.49813 17.1804 7.49213 17.2584 7.50938 17.3334L8.63438 22.2084C8.67338 22.3783 8.82525 22.4986 9 22.4986C9.17438 22.4986 9.32625 22.3783 9.36525 22.2084L10.4903 17.3334C10.5075 17.2588 10.5015 17.1808 10.473 17.1095L9.7965 15.4183L10.437 14.4575C10.5011 14.3611 10.5173 14.2404 10.4805 14.1309L10.179 13.226L10.6286 12.7764L14.6306 13.4431C14.6299 13.4623 14.625 13.4803 14.625 13.4998V14.6248H12.375C11.9614 14.6248 11.625 14.9608 11.625 15.3748V16.4994V16.5031V22.874H4.87463ZM12.7496 22.874H12.375V22.124H22.8754V22.874H12.7496Z" fill="black"/>
</g>
<defs>
<clipPath id="clip0_1402_646">
<rect width="24" height="24" fill="white"/>
</clipPath>
</defs>
</svg>
