<svg width="28" height="28" viewBox="0 0 28 28" fill="none" xmlns="http://www.w3.org/2000/svg">
<path fill-rule="evenodd" clip-rule="evenodd" d="M24.0835 18.5798C24.4083 19.1423 24.2138 19.8682 23.6513 20.193L17.9563 23.481C16.4309 24.3617 15.4853 24.8265 13.7394 25.0841C11.9792 25.3437 10.2271 25.2273 8.45544 25.0287C7.378 24.908 6.40074 24.826 5.31586 24.7696V19.4051C7.21722 19.1677 8.64679 19.0768 10.6401 19.6098H14.6578C15.5326 19.6098 16.1217 20.5053 15.7911 21.3023C15.9918 21.3656 16.1914 21.3985 16.39 21.3988C16.9293 21.3997 17.186 21.1985 17.6271 20.9437L22.4703 18.1475C23.0328 17.8228 23.7587 18.0173 24.0835 18.5798Z" fill="#FCD4A9"/>
<path fill-rule="evenodd" clip-rule="evenodd" d="M15.7288 20.241C15.8275 20.4175 15.8839 20.6204 15.8839 20.836C15.8839 21.0009 15.8508 21.1584 15.7911 21.3024C15.5363 21.4732 15.2316 21.573 14.906 21.573H10.8883C10.6835 21.573 10.5175 21.407 10.5175 21.2022C10.5175 20.9974 10.6835 20.8314 10.8883 20.8314H14.906C15.2573 20.8314 15.5654 20.6189 15.6974 20.3006C15.7062 20.2794 15.7168 20.2595 15.7288 20.241Z" fill="#F0B16E"/>
<path fill-rule="evenodd" clip-rule="evenodd" d="M3.6291 18.707H5.29577C5.68738 18.707 6.00781 19.0274 6.00781 19.419V25.0853C6.00781 25.4769 5.68738 25.7973 5.29577 25.7973H3.6291C3.23749 25.7973 2.91711 25.4769 2.91711 25.0853V19.419C2.91711 19.0274 3.23749 18.707 3.6291 18.707Z" fill="#60B7FE"/>
<path fill-rule="evenodd" clip-rule="evenodd" d="M3.6291 18.707H5.29577C5.68738 18.707 6.00781 19.0274 6.00781 19.419V24.319C6.00781 24.7106 5.68738 25.0309 5.29577 25.0309H3.6291C3.23749 25.0309 2.91711 24.7106 2.91711 24.319V19.419C2.91711 19.0274 3.23749 18.707 3.6291 18.707Z" fill="#88C8FE"/>
<path fill-rule="evenodd" clip-rule="evenodd" d="M9.5676 8.5127H18.4324C18.9598 8.5127 19.3912 8.94412 19.3912 9.47147V15.1415C19.3912 15.6689 18.9598 16.1003 18.4324 16.1003H9.5676C9.04025 16.1003 8.60883 15.6689 8.60883 15.1415V9.47147C8.60883 8.94412 9.04025 8.5127 9.5676 8.5127Z" fill="#D6B4A8"/>
<path fill-rule="evenodd" clip-rule="evenodd" d="M9.5676 8.5127H18.4324C18.9598 8.5127 19.3912 8.94412 19.3912 9.47147V11.0983L15.1025 13.3957C14.3927 13.776 13.6072 13.776 12.8974 13.3957L8.60883 11.0982V9.47142C8.60883 8.94412 9.04025 8.5127 9.5676 8.5127Z" fill="#C89D8D"/>
<path fill-rule="evenodd" clip-rule="evenodd" d="M11.4327 9.71072V7.28256C11.4327 6.65625 11.9439 6.14514 12.5702 6.14514H15.4298C16.0562 6.14514 16.5673 6.65625 16.5673 7.28256V9.71072H15.8255V7.28256C15.8255 7.06567 15.6467 6.88681 15.4298 6.88681H12.5702C12.3532 6.88681 12.1744 7.06561 12.1744 7.28256V9.71072H11.4327Z" fill="#CF8C48"/>
<path fill-rule="evenodd" clip-rule="evenodd" d="M9.5676 8.5127H18.4324C18.9597 8.5127 19.3912 8.94412 19.3912 9.47147V10.4168L14.8675 12.8401C14.309 13.1393 13.6909 13.1393 13.1324 12.8401L8.60876 10.4167V9.47147C8.60882 8.94412 9.04025 8.5127 9.5676 8.5127Z" fill="#FCD4A9"/>
<path fill-rule="evenodd" clip-rule="evenodd" d="M25.8669 14.0695C26.0717 14.0695 26.2377 14.2356 26.2377 14.4404C26.2377 14.6452 26.0717 14.8112 25.8669 14.8112H24.7774C24.5726 14.8112 24.4066 14.6452 24.4066 14.4404C24.4066 14.2356 24.5726 14.0695 24.7774 14.0695H25.8669ZM2.1331 14.8113C1.92831 14.8113 1.76227 14.6452 1.76227 14.4404C1.76227 14.2356 1.92831 14.0696 2.1331 14.0696H3.22258C3.42737 14.0696 3.59341 14.2356 3.59341 14.4404C3.59341 14.6452 3.42737 14.8113 3.22258 14.8113H2.1331ZM3.53898 8.8271C3.36219 8.72552 3.3012 8.49978 3.40279 8.32299C3.50437 8.1462 3.73011 8.08521 3.9069 8.18685L4.85044 8.73162C5.02724 8.8332 5.08822 9.05894 4.98658 9.23573C4.885 9.41252 4.65926 9.47351 4.48247 9.37187L3.53898 8.8271ZM7.74643 4.34878C7.644 4.17199 7.70437 3.94564 7.88116 3.84321C8.05796 3.74079 8.28431 3.80116 8.38673 3.97795L8.9315 4.92149C9.03392 5.09828 8.97356 5.32464 8.79676 5.42706C8.61997 5.52948 8.39362 5.46912 8.2912 5.29232L7.74643 4.34878ZM13.6291 2.57347C13.6291 2.36868 13.7952 2.20264 13.9999 2.20264C14.2047 2.20264 14.3708 2.36868 14.3708 2.57347V3.66295C14.3708 3.86774 14.2047 4.03378 13.9999 4.03378C13.7952 4.03378 13.6291 3.86774 13.6291 3.66295V2.57347ZM19.6133 3.97795C19.7158 3.80116 19.9421 3.74084 20.1189 3.84321C20.2957 3.94564 20.356 4.17199 20.2536 4.34878L19.7089 5.29232C19.6064 5.46912 19.3801 5.52943 19.2033 5.42706C19.0265 5.32464 18.9662 5.09828 19.0686 4.92149L19.6133 3.97795ZM24.0931 8.1868C24.2699 8.08521 24.4956 8.14614 24.5972 8.32293C24.6988 8.49972 24.6379 8.72546 24.461 8.82704L23.5175 9.37181C23.3407 9.4734 23.115 9.41247 23.0134 9.23568C22.9118 9.05888 22.9727 8.83315 23.1496 8.73156L24.0931 8.1868Z" fill="#FFBF31"/>
</svg>
