<svg width="21" height="21" viewBox="0 0 21 21" fill="none" xmlns="http://www.w3.org/2000/svg">
<g clip-path="url(#clip0_44_283)">
<path d="M11.159 19.6768C10.7101 19.6768 10.4423 19.232 10.5808 18.8512L13.2167 11.6023C13.3328 11.283 13.6859 11.1183 14.0053 11.2343C14.3246 11.3505 14.4893 11.7036 14.3731 12.0229L11.7372 19.2716C11.6462 19.5215 11.4104 19.6768 11.159 19.6768Z" fill="#3AB4FB"/>
<path d="M17.7488 19.6768C17.4983 19.6768 17.2627 19.5225 17.1713 19.2735L14.5089 12.0246C14.3918 11.7056 14.5555 11.3522 14.8744 11.2351C15.1932 11.1178 15.5468 11.2815 15.6639 11.6004L18.3263 18.8493C18.4762 19.2575 18.1686 19.6768 17.7488 19.6768Z" fill="#1D9CFD"/>
<path d="M19.067 1.3125H9.84086C8.77333 1.3125 7.90784 2.17799 7.90784 3.24552V10.4947C7.90784 11.5622 8.77333 12.4277 9.84086 12.4277H19.067C20.1345 12.4277 21 11.5622 21 10.4947V3.24552C21 2.17799 20.1345 1.3125 19.067 1.3125Z" fill="#EFF6FE"/>
<path d="M19.067 1.3125H14.3731V12.4277H19.067C20.1345 12.4277 21 11.5622 21 10.4947V3.24552C21 2.17799 20.1345 1.3125 19.067 1.3125Z" fill="#D9E4EF"/>
<path d="M6.58974 5.22276C6.58974 6.70269 5.39003 7.9024 3.9101 7.9024C2.43018 7.9024 1.23047 6.70269 1.23047 5.22276C1.23047 3.74268 2.43018 2.54297 3.9101 2.54297C5.39003 2.54297 6.58974 3.74268 6.58974 5.22276Z" fill="#FFCFBE"/>
<path d="M9.89534 11.7039C9.59141 11.5519 9.46836 11.1824 9.62025 10.8785L11.2678 7.58345C11.4198 7.27952 11.7894 7.15647 12.0932 7.30836C12.3971 7.4604 12.5202 7.82986 12.3683 8.1338L10.7208 11.4287C10.5686 11.7331 10.1988 11.8556 9.89534 11.7039Z" fill="#FFB826"/>
<path d="M6.59003 5.2228C6.59003 6.70273 5.39032 7.90244 3.90991 7.90244V2.54285C5.39032 2.54285 6.59003 3.74255 6.59003 5.2228Z" fill="#F9BCAA"/>
<path d="M17.7489 4.84961H11.159C10.8192 4.84961 10.5438 4.57404 10.5438 4.23438C10.5438 3.89455 10.8192 3.61914 11.159 3.61914H17.7489C18.0886 3.61914 18.3641 3.89455 18.3641 4.23438C18.3641 4.57404 18.0887 4.84961 17.7489 4.84961Z" fill="#3AB4FB"/>
<path d="M17.7489 7.48535H14.9883C14.6485 7.48535 14.3731 7.20994 14.3731 6.87012C14.3731 6.5303 14.6485 6.25488 14.9883 6.25488H17.7489C18.0887 6.25488 18.3641 6.5303 18.3641 6.87012C18.3641 7.20994 18.0887 7.48535 17.7489 7.48535Z" fill="#1D9CFD"/>
<path d="M17.7489 10.1212H14.9883C14.6485 10.1212 14.3731 9.84564 14.3731 9.50598C14.3731 9.16616 14.6485 8.89075 14.9883 8.89075H17.7489C18.0887 8.89075 18.3641 9.16616 18.3641 9.50598C18.3641 9.84564 18.0887 10.1212 17.7489 10.1212Z" fill="#1D9CFD"/>
<path d="M17.7489 3.61914H14.3731V4.84961H17.7489C18.0887 4.84961 18.3641 4.57404 18.3641 4.23438C18.3641 3.89455 18.0887 3.61914 17.7489 3.61914Z" fill="#1D9CFD"/>
<path d="M5.88702 19.6766H1.93318C1.59336 19.6766 1.31795 19.4011 1.31795 19.0613V15.6223C0.552589 15.3648 0 14.6404 0 13.7894V11.8124C0 10.7664 0.407112 9.78426 1.14619 9.0471C1.87134 8.32003 2.8791 7.90234 3.91026 7.90234H4.45388C5.5331 7.90234 6.16564 8.2976 7.05212 8.73836C8.02833 9.22382 9.2463 9.82944 10.023 10.2164C10.7397 10.5725 11.0829 11.4077 10.8249 12.1638C10.8241 12.1662 10.8233 12.1686 10.8225 12.171C10.6673 12.6302 10.3193 13.0001 9.86762 13.186C9.41453 13.3704 8.9068 13.3509 8.47197 13.1334C7.85193 12.8233 7.08561 12.4402 6.50242 12.1487V19.0613C6.50226 19.4011 6.22684 19.6766 5.88702 19.6766Z" fill="#FF7579"/>
<path d="M10.023 10.2164C9.24627 9.82944 8.0283 9.22382 7.05193 8.73836C6.16561 8.2976 5.53307 7.90234 4.45385 7.90234H3.91007C3.91007 7.90234 3.91007 7.90234 3.90991 7.90234V19.6766H5.88699C6.22681 19.6766 6.50223 19.4011 6.50223 19.0613V12.1487C7.08558 12.4402 7.8519 12.8233 8.47194 13.1334C8.90661 13.3509 9.4145 13.3702 9.86743 13.186C10.3191 13.0001 10.6672 12.6302 10.8225 12.1709C10.8233 12.1684 10.8241 12.166 10.8249 12.1636C11.0828 11.4077 10.7397 10.5725 10.023 10.2164Z" fill="#FE4A60"/>
</g>
<defs>
<clipPath id="clip0_44_283">
<rect width="21" height="21" fill="white"/>
</clipPath>
</defs>
</svg>
