<svg width="20" height="20" viewBox="0 0 20 20" fill="none" xmlns="http://www.w3.org/2000/svg">
<g clip-path="url(#clip0_44_187)">
<path d="M18.4569 14.2452H1.5431C0.690863 14.2452 0 13.5543 0 12.7021V1.8512C0 0.998968 0.690863 0.308105 1.5431 0.308105H18.4569C19.3091 0.308105 20 0.998968 20 1.8512V12.7021C20 13.5543 19.3091 14.2452 18.4569 14.2452Z" fill="url(#paint0_linear_44_187)"/>
<path d="M0 4.62956V9.77034L9.46224 0.308105H4.32145L0 4.62956Z" fill="url(#paint1_linear_44_187)"/>
<path d="M0 7.75403V12.7022C0 13.5544 0.690863 14.2453 1.5431 14.2453H18.4569C19.3091 14.2453 20 13.5544 20 12.7022V7.75403H0Z" fill="url(#paint2_linear_44_187)"/>
<path d="M5.9071 14.2452H11.9995L7.8075 10.0532L7.27879 9.98379L5.9071 8.61206V14.2452Z" fill="url(#paint3_linear_44_187)"/>
<path d="M17.7051 1.30078H2.29496C1.54426 1.30078 0.935669 1.91043 0.935669 2.66247V11.8907C0.935669 12.6428 1.54422 13.2524 2.29492 13.2524H17.7051C18.4558 13.2524 19.0643 12.6428 19.0643 11.8907V2.66247C19.0644 1.91043 18.4558 1.30078 17.7051 1.30078Z" fill="url(#paint4_linear_44_187)"/>
<path d="M0.935669 3.69388V8.83466L8.46951 1.30078H3.32877L0.935669 3.69388Z" fill="url(#paint5_linear_44_187)"/>
<path d="M5.9071 13.2525H11.0068L7.8075 10.0532L7.27879 9.98379L5.9071 8.61206V13.2525Z" fill="url(#paint6_linear_44_187)"/>
<path d="M2.52462 5.35583C2.78509 5.35583 2.79426 5.55195 2.79732 5.6316C2.80344 5.74191 2.90764 5.77564 3.03634 5.77564C3.19877 5.77564 3.27536 5.73273 3.27536 5.54889C3.27536 5.15971 2.94446 4.93909 2.50622 4.93909C2.10481 4.93909 1.77081 5.1352 1.77081 5.66222V6.47426C1.77081 7.00132 2.10481 7.19744 2.50622 7.19744C2.94446 7.19744 3.27536 6.96458 3.27536 6.55701C3.27536 6.37317 3.19877 6.33026 3.03328 6.33026C2.91073 6.33026 2.80654 6.36089 2.79732 6.47426C2.78815 6.59379 2.77281 6.78069 2.52768 6.78069C2.34995 6.78069 2.24881 6.68262 2.24881 6.47426V5.66222C2.24881 5.45387 2.34995 5.35583 2.52462 5.35583Z" fill="url(#paint7_linear_44_187)"/>
<path d="M4.81667 5.35583C4.90863 5.35583 4.96071 5.25775 4.96071 5.14438C4.96071 5.0463 4.91781 4.93909 4.81667 4.93909H3.72581C3.62161 4.93909 3.51746 4.98811 3.51746 5.08615V7.03199C3.51746 7.13007 3.62161 7.17909 3.72581 7.17909H4.81667C4.91781 7.17909 4.96071 7.07183 4.96071 6.97379C4.96071 6.86038 4.90863 6.76234 4.81667 6.76234H3.99546V6.2414H4.45514C4.55624 6.2414 4.59914 6.14336 4.59914 6.06062C4.59914 5.96258 4.54706 5.87368 4.45514 5.87368H3.99546V5.35583H4.81667Z" fill="url(#paint8_linear_44_187)"/>
<path d="M6.33354 6.21689C6.54805 6.13419 6.70432 5.93807 6.70432 5.59485C6.70432 5.09536 6.37028 4.93909 5.95048 4.93909H5.31617C5.22726 4.93909 5.16907 5.0065 5.16907 5.08309V7.03199C5.16907 7.13007 5.28856 7.17909 5.40809 7.17909C5.52762 7.17909 5.64711 7.13007 5.64711 7.03199V6.29348H5.84934L6.26915 7.10862C6.30287 7.17297 6.36111 7.19748 6.42236 7.19748C6.56334 7.19748 6.72267 7.06877 6.72267 6.94928C6.72267 6.93395 6.71962 6.9125 6.70734 6.89415L6.33354 6.21689ZM5.95048 5.92583H5.64711V5.35587H5.95048C6.12209 5.35587 6.22624 5.42634 6.22624 5.64085C6.22624 5.85536 6.12209 5.92583 5.95048 5.92583Z" fill="url(#paint9_linear_44_187)"/>
<path d="M8.261 4.93909H6.93719C6.83605 4.93909 6.79315 5.04936 6.79315 5.15054C6.79315 5.26697 6.84523 5.36811 6.93719 5.36811H7.36005V7.03203C7.36005 7.13011 7.47958 7.17913 7.59907 7.17913C7.7186 7.17913 7.83809 7.13011 7.83809 7.03203V5.36811H8.261C8.35292 5.36811 8.405 5.26697 8.405 5.15054C8.405 5.0494 8.36209 4.93909 8.261 4.93909Z" fill="url(#paint10_linear_44_187)"/>
<path d="M8.83405 4.93909C8.71452 4.93909 8.59503 4.98199 8.59503 5.08309V7.03199C8.59503 7.13007 8.71452 7.17909 8.83405 7.17909C8.95358 7.17909 9.07307 7.13007 9.07307 7.03199V5.08309C9.07303 4.98199 8.95354 4.93909 8.83405 4.93909Z" fill="url(#paint11_linear_44_187)"/>
<path d="M10.6756 4.93909H9.61234C9.50815 4.93909 9.40399 4.98811 9.40399 5.08615V7.03199C9.40399 7.13007 9.52348 7.17909 9.64301 7.17909C9.76254 7.17909 9.88203 7.13007 9.88203 7.03199V6.2414H10.3448C10.4459 6.2414 10.4888 6.14336 10.4888 6.06062C10.4888 5.96258 10.4367 5.87368 10.3448 5.87368H9.88203V5.35583H10.6757C10.7676 5.35583 10.8197 5.25775 10.8197 5.14438C10.8197 5.04634 10.7768 4.93909 10.6756 4.93909Z" fill="url(#paint12_linear_44_187)"/>
<path d="M11.2211 4.93909C11.1016 4.93909 10.9821 4.98199 10.9821 5.08309V7.03199C10.9821 7.13007 11.1016 7.17909 11.2211 7.17909C11.3407 7.17909 11.4602 7.13007 11.4602 7.03199V5.08309C11.4601 4.98199 11.3407 4.93909 11.2211 4.93909Z" fill="url(#paint13_linear_44_187)"/>
<path d="M12.5204 5.35583C12.7809 5.35583 12.7901 5.55195 12.7931 5.6316C12.7992 5.74191 12.9034 5.77564 13.0321 5.77564C13.1946 5.77564 13.2712 5.73273 13.2712 5.54889C13.2712 5.15971 12.9402 4.93909 12.502 4.93909C12.1006 4.93909 11.7666 5.1352 11.7666 5.66222V6.47426C11.7666 7.00132 12.1006 7.19744 12.502 7.19744C12.9402 7.19744 13.2712 6.96458 13.2712 6.55701C13.2712 6.37317 13.1946 6.33026 13.0291 6.33026C12.9065 6.33026 12.8023 6.36089 12.7931 6.47426C12.7839 6.59379 12.7686 6.78069 12.5235 6.78069C12.3457 6.78069 12.2446 6.68262 12.2446 6.47426V5.66222C12.2446 5.45387 12.3457 5.35583 12.5204 5.35583Z" fill="url(#paint14_linear_44_187)"/>
<path d="M14.5612 5.07999C14.5275 4.97277 14.3896 4.92065 14.2487 4.92065C14.1077 4.92065 13.9698 4.97277 13.9361 5.07999L13.3661 6.94924C13.363 6.96148 13.36 6.97375 13.36 6.98293C13.36 7.09634 13.5347 7.17905 13.6664 7.17905C13.743 7.17905 13.8043 7.15454 13.8227 7.09018L13.9268 6.70712H14.5734L14.6776 7.09018C14.696 7.15454 14.7572 7.17905 14.8339 7.17905C14.9656 7.17905 15.1403 7.09634 15.1403 6.98293C15.1403 6.97375 15.1372 6.96148 15.1341 6.94924L14.5612 5.07999ZM14.0249 6.33944L14.2487 5.51822L14.4723 6.33944H14.0249Z" fill="url(#paint15_linear_44_187)"/>
<path d="M16.4519 4.93909H15.1281C15.027 4.93909 14.9841 5.04936 14.9841 5.15054C14.9841 5.26697 15.0361 5.36811 15.1281 5.36811H15.551V7.03203C15.551 7.13011 15.6705 7.17913 15.79 7.17913C15.9095 7.17913 16.029 7.13011 16.029 7.03203V5.36811H16.4519C16.5438 5.36811 16.5959 5.26697 16.5959 5.15054C16.5959 5.0494 16.5531 4.93909 16.4519 4.93909Z" fill="url(#paint16_linear_44_187)"/>
<path d="M18.0851 6.76234H17.2639V6.2414H17.7236C17.8247 6.2414 17.8676 6.14336 17.8676 6.06062C17.8676 5.96258 17.8155 5.87368 17.7236 5.87368H17.2639V5.35583H18.0851C18.1771 5.35583 18.2291 5.25775 18.2291 5.14438C18.2291 5.0463 18.1862 4.93909 18.0851 4.93909H16.9942C16.89 4.93909 16.7859 4.98811 16.7859 5.08615V7.03199C16.7859 7.13007 16.89 7.17909 16.9942 7.17909H18.0851C18.1862 7.17909 18.2291 7.07183 18.2291 6.97379C18.2292 6.86038 18.1771 6.76234 18.0851 6.76234Z" fill="url(#paint17_linear_44_187)"/>
<path d="M8.04924 10.4753H9.93709C10.1671 10.4753 10.3535 10.6618 10.3535 10.8918C10.3535 11.1218 10.1671 11.3082 9.93709 11.3082H8.04924C7.81924 11.3082 7.63281 11.1218 7.63281 10.8918C7.63281 10.6618 7.81924 10.4753 8.04924 10.4753Z" fill="#26A6FE"/>
<path d="M10.9643 10.8918C10.9643 10.6618 11.1507 10.4753 11.3807 10.4753H11.8527C12.0827 10.4753 12.2691 10.6618 12.2691 10.8918C12.2691 11.1218 12.0827 11.3082 11.8527 11.3082H11.3807C11.1507 11.3082 10.9643 11.1218 10.9643 10.8918Z" fill="#26A6FE"/>
<path d="M13.1664 9.34641H6.73546C6.50546 9.34641 6.31903 9.15998 6.31903 8.92998C6.31903 8.69998 6.50546 8.51355 6.73546 8.51355H13.1664C13.3964 8.51355 13.5828 8.70002 13.5828 8.92998C13.5829 9.15998 13.3964 9.34641 13.1664 9.34641Z" fill="#26A6FE"/>
<path d="M9.00701 3.24487H10.8949C11.1249 3.24487 11.3113 3.4313 11.3113 3.6613C11.3113 3.8913 11.1249 4.07774 10.8949 4.07774H9.00701C8.77701 4.07774 8.59058 3.8913 8.59058 3.6613C8.59058 3.4313 8.77701 3.24487 9.00701 3.24487Z" fill="url(#paint18_linear_44_187)"/>
<path d="M1.53967 19.1841C1.53967 19.563 1.99685 19.7612 2.26795 19.4965C2.26995 19.4946 2.27195 19.4926 2.27395 19.4906L2.55552 19.2091C2.82379 18.9408 3.25869 18.9408 3.52697 19.2091L3.80854 19.4906C4.07681 19.7589 4.51171 19.7589 4.77999 19.4906L5.06156 19.2091C5.32983 18.9408 5.76473 18.9408 6.03301 19.2091L6.31457 19.4906C6.31657 19.4926 6.31854 19.4946 6.32057 19.4965C6.59167 19.7612 7.04885 19.5629 7.04885 19.1841V12.4026H1.53967V19.1841Z" fill="url(#paint19_linear_44_187)"/>
<path d="M2.21387 13.6332V16.0473L5.24508 19.0785C5.50151 18.9528 5.81975 18.9959 6.03297 19.2091L6.31453 19.4907C6.31653 19.4927 6.31853 19.4947 6.3205 19.4966C6.59159 19.7613 7.04877 19.563 7.04877 19.1842V13.6332H2.21387Z" fill="url(#paint20_linear_44_187)"/>
<path d="M3.16873 12.4026H1.53967V19.1841C1.53967 19.563 1.99685 19.7613 2.26795 19.4966C2.26995 19.4946 2.27195 19.4927 2.27395 19.4907L2.55552 19.2091C2.72222 19.0424 2.95328 18.9795 3.16873 19.02V12.4026Z" fill="url(#paint21_linear_44_187)"/>
<path d="M5.4198 12.4026V19.0199C5.63525 18.9794 5.86631 19.0424 6.03302 19.2091L6.31458 19.4906C6.31658 19.4926 6.31858 19.4946 6.32054 19.4965C6.59164 19.7612 7.04882 19.5629 7.04882 19.1841V12.4026H5.4198Z" fill="url(#paint22_linear_44_187)"/>
<path d="M5.4198 12.4026V19.0199C5.63525 18.9794 5.86631 19.0424 6.03302 19.2091L6.31458 19.4906C6.31658 19.4926 6.31858 19.4946 6.32054 19.4965C6.59164 19.7612 7.04882 19.5629 7.04882 19.1841V12.4026H5.4198Z" fill="url(#paint23_linear_44_187)"/>
<path d="M3.16873 13.6332H1.53967V15.3691L3.16873 17.0021V13.6332Z" fill="url(#paint24_linear_44_187)"/>
<path d="M8.39023 13.0022L8.00238 13.3969C7.85003 13.552 7.77932 13.7696 7.81148 13.9846L7.89325 14.5317C7.94909 14.9054 7.69505 15.2549 7.3223 15.317L6.77697 15.408C6.56215 15.4438 6.3767 15.5786 6.27634 15.7718L6.02203 16.2616C5.84772 16.5973 5.43619 16.731 5.09787 16.5618L4.60419 16.315C4.40924 16.2175 4.17979 16.2175 3.98485 16.315L3.49117 16.5618C3.15281 16.731 2.74132 16.5973 2.56701 16.2616L2.3127 15.7718C2.21234 15.5786 2.02689 15.4438 1.81207 15.408L1.26673 15.317C0.894029 15.2549 0.63995 14.9054 0.695793 14.5317L0.777558 13.9846C0.809676 13.7696 0.739009 13.552 0.586656 13.3969L0.198774 13.0022C-0.0659323 12.7329 -0.0659323 12.301 0.198774 12.0317L0.586617 11.6369C0.73897 11.4819 0.809676 11.2643 0.777558 11.0493L0.695793 10.5022C0.63995 10.1285 0.893989 9.77903 1.26673 9.71687L1.81207 9.62593C2.02689 9.59012 2.21234 9.4553 2.3127 9.26205L2.56701 8.77228C2.74132 8.43655 3.15285 8.30287 3.49117 8.47204L3.98485 8.71891C4.17979 8.8164 4.40924 8.8164 4.60419 8.71891L5.09787 8.47204C5.43623 8.30287 5.84772 8.43655 6.02203 8.77228L6.27634 9.26205C6.3767 9.45534 6.56215 9.59012 6.77697 9.62593L7.3223 9.71687C7.69501 9.77903 7.94909 10.1285 7.89325 10.5022L7.81148 11.0493C7.77936 11.2643 7.85003 11.4819 8.00238 11.6369L8.39026 12.0317C8.65493 12.301 8.65493 12.7329 8.39023 13.0022Z" fill="url(#paint25_linear_44_187)"/>
<path d="M4.29426 15.5875C5.99012 15.5875 7.36489 14.2128 7.36489 12.5169C7.36489 10.8211 5.99012 9.44629 4.29426 9.44629C2.5984 9.44629 1.22363 10.8211 1.22363 12.5169C1.22363 14.2128 2.5984 15.5875 4.29426 15.5875Z" fill="url(#paint26_linear_44_187)"/>
<path d="M4.29429 15.1362C5.74082 15.1362 6.91346 13.9635 6.91346 12.517C6.91346 11.0705 5.74082 9.89783 4.29429 9.89783C2.84776 9.89783 1.67511 11.0705 1.67511 12.517C1.67511 13.9635 2.84776 15.1362 4.29429 15.1362Z" fill="url(#paint27_linear_44_187)"/>
<path d="M0.586392 13.397C0.738745 13.552 0.809451 13.7696 0.777294 13.9846L0.695529 14.5317C0.639686 14.9054 0.893725 15.2549 1.26647 15.317L1.8118 15.408C2.02663 15.4438 2.21208 15.5786 2.31243 15.7719L2.56675 16.2616C2.74106 16.5974 3.15259 16.731 3.4909 16.5619L3.98459 16.315C4.17953 16.2175 4.40898 16.2175 4.60392 16.315L5.09761 16.5619C5.43596 16.731 5.84745 16.5974 6.0218 16.2616L6.27612 15.7719C6.37647 15.5786 6.56192 15.4438 6.77675 15.408L7.32208 15.317C7.69478 15.2549 7.94886 14.9054 7.89302 14.5317L7.81125 13.9846C7.77914 13.7696 7.8498 13.552 8.0022 13.397L8.39008 13.0023C8.52243 12.8676 8.58859 12.6923 8.58859 12.517H0C0 12.6923 0.0661569 12.8676 0.19851 13.0023L0.586392 13.397Z" fill="url(#paint28_linear_44_187)"/>
<path d="M14.8755 0.308105L20 5.4325V2.76662L17.5414 0.308105H14.8755Z" fill="url(#paint29_linear_44_187)"/>
<path d="M5.12443 0.308105L0 5.4325V2.76662L2.45855 0.308105H5.12443Z" fill="url(#paint30_linear_44_187)"/>
</g>
<defs>
<linearGradient id="paint0_linear_44_187" x1="5.33333" y1="2.60999" x2="22.1491" y2="19.4258" gradientUnits="userSpaceOnUse">
<stop stop-color="#26A6FE"/>
<stop offset="1" stop-color="#2740B0"/>
</linearGradient>
<linearGradient id="paint1_linear_44_187" x1="3.51698" y1="3.82505" x2="2.3978" y2="2.70591" gradientUnits="userSpaceOnUse">
<stop stop-color="#2740B0" stop-opacity="0"/>
<stop offset="0.2568" stop-color="#253DAA" stop-opacity="0.257"/>
<stop offset="0.6039" stop-color="#213699" stop-opacity="0.604"/>
<stop offset="1" stop-color="#192A7D"/>
</linearGradient>
<linearGradient id="paint2_linear_44_187" x1="10" y1="12.5316" x2="10" y2="14.3212" gradientUnits="userSpaceOnUse">
<stop stop-color="#2740B0" stop-opacity="0"/>
<stop offset="1" stop-color="#192A7D"/>
</linearGradient>
<linearGradient id="paint3_linear_44_187" x1="10.0858" y1="17.0134" x2="8.49754" y2="13.131" gradientUnits="userSpaceOnUse">
<stop stop-color="#2740B0" stop-opacity="0"/>
<stop offset="1" stop-color="#192A7D"/>
</linearGradient>
<linearGradient id="paint4_linear_44_187" x1="7.72955" y1="3.1087" x2="13.2197" y2="13.1871" gradientUnits="userSpaceOnUse">
<stop stop-color="white"/>
<stop offset="1" stop-color="#D8ECFE"/>
</linearGradient>
<linearGradient id="paint5_linear_44_187" x1="3.24006" y1="3.60521" x2="2.14563" y2="2.51074" gradientUnits="userSpaceOnUse">
<stop stop-color="#A8D3D8" stop-opacity="0"/>
<stop offset="1" stop-color="#6CABCA"/>
</linearGradient>
<linearGradient id="paint6_linear_44_187" x1="10.204" y1="14.8279" x2="4.08636" y2="9.02394" gradientUnits="userSpaceOnUse">
<stop stop-color="#A8D3D8" stop-opacity="0"/>
<stop offset="1" stop-color="#6CABCA"/>
</linearGradient>
<linearGradient id="paint7_linear_44_187" x1="2.57258" y1="6.31309" x2="3.20003" y2="9.88171" gradientUnits="userSpaceOnUse">
<stop stop-color="#5A5A5A"/>
<stop offset="1" stop-color="#444444"/>
</linearGradient>
<linearGradient id="paint8_linear_44_187" x1="4.22895" y1="6.02183" x2="4.8564" y2="9.59046" gradientUnits="userSpaceOnUse">
<stop stop-color="#5A5A5A"/>
<stop offset="1" stop-color="#444444"/>
</linearGradient>
<linearGradient id="paint9_linear_44_187" x1="5.8422" y1="5.73819" x2="6.46966" y2="9.30681" gradientUnits="userSpaceOnUse">
<stop stop-color="#5A5A5A"/>
<stop offset="1" stop-color="#444444"/>
</linearGradient>
<linearGradient id="paint10_linear_44_187" x1="7.64649" y1="5.42097" x2="8.27394" y2="8.9896" gradientUnits="userSpaceOnUse">
<stop stop-color="#5A5A5A"/>
<stop offset="1" stop-color="#444444"/>
</linearGradient>
<linearGradient id="paint11_linear_44_187" x1="8.68989" y1="5.23752" x2="9.31735" y2="8.80615" gradientUnits="userSpaceOnUse">
<stop stop-color="#5A5A5A"/>
<stop offset="1" stop-color="#444444"/>
</linearGradient>
<linearGradient id="paint12_linear_44_187" x1="9.92572" y1="5.02022" x2="10.5532" y2="8.58885" gradientUnits="userSpaceOnUse">
<stop stop-color="#5A5A5A"/>
<stop offset="1" stop-color="#444444"/>
</linearGradient>
<linearGradient id="paint13_linear_44_187" x1="11.0054" y1="4.83038" x2="11.6329" y2="8.39901" gradientUnits="userSpaceOnUse">
<stop stop-color="#5A5A5A"/>
<stop offset="1" stop-color="#444444"/>
</linearGradient>
<linearGradient id="paint14_linear_44_187" x1="12.2686" y1="4.60826" x2="12.8961" y2="8.17689" gradientUnits="userSpaceOnUse">
<stop stop-color="#5A5A5A"/>
<stop offset="1" stop-color="#444444"/>
</linearGradient>
<linearGradient id="paint15_linear_44_187" x1="13.7853" y1="4.34156" x2="14.4128" y2="7.91018" gradientUnits="userSpaceOnUse">
<stop stop-color="#5A5A5A"/>
<stop offset="1" stop-color="#444444"/>
</linearGradient>
<linearGradient id="paint16_linear_44_187" x1="15.5918" y1="4.02399" x2="16.2192" y2="7.59262" gradientUnits="userSpaceOnUse">
<stop stop-color="#5A5A5A"/>
<stop offset="1" stop-color="#444444"/>
</linearGradient>
<linearGradient id="paint17_linear_44_187" x1="17.0995" y1="3.75885" x2="17.727" y2="7.32748" gradientUnits="userSpaceOnUse">
<stop stop-color="#5A5A5A"/>
<stop offset="1" stop-color="#444444"/>
</linearGradient>
<linearGradient id="paint18_linear_44_187" x1="8.59058" y1="3.66134" x2="11.3113" y2="3.66134" gradientUnits="userSpaceOnUse">
<stop stop-color="#FEE45A"/>
<stop offset="1" stop-color="#FEA613"/>
</linearGradient>
<linearGradient id="paint19_linear_44_187" x1="2.49712" y1="14.086" x2="5.63807" y2="17.227" gradientUnits="userSpaceOnUse">
<stop stop-color="white"/>
<stop offset="1" stop-color="#D8ECFE"/>
</linearGradient>
<linearGradient id="paint20_linear_44_187" x1="4.78171" y1="18.5581" x2="4.62332" y2="14.6406" gradientUnits="userSpaceOnUse">
<stop stop-color="#A8D3D8" stop-opacity="0"/>
<stop offset="1" stop-color="#6CABCA"/>
</linearGradient>
<linearGradient id="paint21_linear_44_187" x1="1.52254" y1="15.5234" x2="4.86395" y2="17.1509" gradientUnits="userSpaceOnUse">
<stop stop-color="#FD4755"/>
<stop offset="1" stop-color="#A72B2B"/>
</linearGradient>
<linearGradient id="paint22_linear_44_187" x1="5.138" y1="14.8673" x2="8.76745" y2="17.6614" gradientUnits="userSpaceOnUse">
<stop stop-color="#26A6FE"/>
<stop offset="1" stop-color="#2740B0"/>
</linearGradient>
<linearGradient id="paint23_linear_44_187" x1="6.23435" y1="17.7187" x2="6.23435" y2="15.8971" gradientUnits="userSpaceOnUse">
<stop stop-color="#2740B0" stop-opacity="0"/>
<stop offset="1" stop-color="#192A7D"/>
</linearGradient>
<linearGradient id="paint24_linear_44_187" x1="1.95026" y1="18.0131" x2="2.65599" y2="13.3035" gradientUnits="userSpaceOnUse">
<stop stop-color="#A72B2B" stop-opacity="0"/>
<stop offset="1" stop-color="#42210B"/>
</linearGradient>
<linearGradient id="paint25_linear_44_187" x1="1.69368" y1="9.91612" x2="8.29544" y2="16.5179" gradientUnits="userSpaceOnUse">
<stop stop-color="#FEE45A"/>
<stop offset="1" stop-color="#FEA613"/>
</linearGradient>
<linearGradient id="paint26_linear_44_187" x1="7.20136" y1="15.424" x2="0.224807" y2="8.44747" gradientUnits="userSpaceOnUse">
<stop stop-color="#FEE45A"/>
<stop offset="1" stop-color="#FEA613"/>
</linearGradient>
<linearGradient id="paint27_linear_44_187" x1="2.44907" y1="10.6717" x2="6.06209" y2="14.2848" gradientUnits="userSpaceOnUse">
<stop stop-color="#FEE45A"/>
<stop offset="1" stop-color="#FEA613"/>
</linearGradient>
<linearGradient id="paint28_linear_44_187" x1="4.29427" y1="13.5519" x2="4.29427" y2="17.5658" gradientUnits="userSpaceOnUse">
<stop stop-color="#FEA613" stop-opacity="0"/>
<stop offset="1" stop-color="#E94444"/>
</linearGradient>
<linearGradient id="paint29_linear_44_187" x1="16.6081" y1="0.707713" x2="19.5314" y2="3.63093" gradientUnits="userSpaceOnUse">
<stop stop-color="#FD4755"/>
<stop offset="1" stop-color="#A72B2B"/>
</linearGradient>
<linearGradient id="paint30_linear_44_187" x1="1.11173" y1="1.41983" x2="3.17812" y2="3.48618" gradientUnits="userSpaceOnUse">
<stop stop-color="#FD4755"/>
<stop offset="1" stop-color="#A72B2B"/>
</linearGradient>
<clipPath id="clip0_44_187">
<rect width="20" height="20" fill="white"/>
</clipPath>
</defs>
</svg>
