<svg width="64" height="64" viewBox="0 0 64 64" fill="none" xmlns="http://www.w3.org/2000/svg">
<path d="M18.7 23C18.3471 22.9991 18.0026 23.1082 17.7144 23.3119C17.4262 23.5157 17.2086 23.8042 17.0917 24.1372C16.9749 24.4703 16.9646 24.8315 17.0623 25.1706C17.16 25.5098 17.3609 25.8102 17.637 26.03L19.449 27.48C19.186 26.0005 19.0409 24.5025 19.015 23H18.7Z" fill="white"/>
<path d="M3 57.0001V61.0001H9V47.2061C7.19605 48.129 5.68153 49.5316 4.62299 51.2595C3.56445 52.9874 3.00287 54.9737 3 57.0001Z" fill="white"/>
<path d="M17.4261 9.266C17.6907 9.82958 17.8362 10.4417 17.8534 11.0641C17.8706 11.6864 17.7592 12.3057 17.5261 12.883C17.392 13.2194 17.3304 13.5804 17.3454 13.9423C17.3604 14.3042 17.4516 14.6588 17.6131 14.983L19.2781 18.312C19.3288 18.2565 19.3859 18.2072 19.4481 18.165L26.1351 13.707C27.8061 12.592 29.7703 11.9979 31.7791 12C33.6365 11.9973 35.4381 11.3653 36.8901 10.207L39.3751 8.218C39.4836 8.1319 39.6087 8.06907 39.7426 8.03346C39.8764 7.99784 40.0162 7.9902 40.1531 8.011C40.29 8.0323 40.4209 8.08178 40.5376 8.15632C40.6543 8.23085 40.7542 8.32882 40.8311 8.444L43.1521 11.925C44.0854 13.3265 44.6835 14.9241 44.9001 16.594L45.7701 14.203C46.2289 12.9417 46.3769 11.5884 46.2015 10.2578C46.026 8.92717 45.5324 7.65845 44.7624 6.55916C43.9924 5.45986 42.9688 4.5624 41.7782 3.94283C40.5876 3.32326 39.2653 2.99985 37.9231 3H29.4341C24.1978 2.99846 19.0417 4.28747 14.4221 6.753L14.7221 6.853C15.3148 7.04721 15.8609 7.3618 16.3262 7.77704C16.7915 8.19228 17.166 8.6992 17.4261 9.266Z" fill="white"/>
<path d="M28 27C28.2652 27 28.5196 26.8946 28.7071 26.7071C28.8946 26.5196 29 26.2652 29 26V23H25V26C25 26.2652 25.1054 26.5196 25.2929 26.7071C25.4804 26.8946 25.7348 27 26 27H28Z" fill="white"/>
<path d="M38 27C38.2652 27 38.5196 26.8946 38.7071 26.7071C38.8946 26.5196 39 26.2652 39 26V23H35V26C35 26.2652 35.1054 26.5196 35.2929 26.7071C35.4804 26.8946 35.7348 27 36 27H38Z" fill="white"/>
<path d="M43 18.0269C43.002 16.25 42.4761 14.5125 41.489 13.0349L39.773 10.4609L38.14 11.7689C36.3331 13.2108 34.0907 13.9973 31.779 13.9999C30.1641 13.9982 28.585 14.4761 27.242 15.3729L21 19.5349V20.9999H30C30.2652 20.9999 30.5196 21.1053 30.7071 21.2928C30.8946 21.4804 31 21.7347 31 21.9999V22.9999H33V21.9999C33 21.7347 33.1054 21.4804 33.2929 21.2928C33.4804 21.1053 33.7348 20.9999 34 20.9999H43V18.0269Z" fill="white"/>
<path d="M21.0149 23C21.0933 27.5834 22.3729 32.0659 24.7259 36H39.2729C41.6255 32.0658 42.9048 27.5833 42.9829 23H40.9999V26C40.9999 26.7956 40.6838 27.5587 40.1212 28.1213C39.5586 28.6839 38.7955 29 37.9999 29H35.9999C35.2042 29 34.4412 28.6839 33.8786 28.1213C33.316 27.5587 32.9999 26.7956 32.9999 26V25H30.9999V26C30.9999 26.7956 30.6838 27.5587 30.1212 28.1213C29.5586 28.6839 28.7955 29 27.9999 29H25.9999C25.2042 29 24.4412 28.6839 23.8786 28.1213C23.316 27.5587 22.9999 26.7956 22.9999 26V23H21.0149Z" fill="white"/>
<path d="M55 47.2061V61.0001H61V57.0001C60.997 54.9737 60.4354 52.9874 59.3769 51.2596C58.3183 49.5317 56.8039 48.1291 55 47.2061Z" fill="white"/>
<path d="M50 38H14C13.2044 38 12.4413 38.3161 11.8787 38.8787C11.3161 39.4413 11 40.2044 11 41V61H53V41C53 40.2044 52.6839 39.4413 52.1213 38.8787C51.5587 38.3161 50.7957 38 50 38ZM34.2 39.4L35.8 40.6L29.8 48.6L28.2 47.4L34.2 39.4ZM26.708 47.293L25.293 48.708L21.293 44.708C21.2 44.6151 21.1263 44.5048 21.0759 44.3834C21.0256 44.262 20.9997 44.1319 20.9997 44.0005C20.9997 43.8691 21.0256 43.739 21.0759 43.6176C21.1263 43.4962 21.2 43.3859 21.293 43.293L25.293 39.293L26.708 40.708L23.414 44L26.708 47.293ZM32 58C31.2089 58 30.4355 57.7654 29.7777 57.3259C29.1199 56.8864 28.6072 56.2616 28.3045 55.5307C28.0017 54.7998 27.9225 53.9956 28.0769 53.2196C28.2312 52.4437 28.6122 51.731 29.1716 51.1716C29.731 50.6122 30.4437 50.2312 31.2196 50.0769C31.9956 49.9225 32.7998 50.0017 33.5307 50.3045C34.2616 50.6072 34.8864 51.1199 35.3259 51.7777C35.7654 52.4355 36 53.2089 36 54C36 55.0609 35.5786 56.0783 34.8284 56.8284C34.0783 57.5786 33.0609 58 32 58ZM42.707 44.707L38.707 48.707L37.292 47.292L40.585 44L37.292 40.707L38.707 39.292L42.707 43.292C42.8 43.3849 42.8737 43.4952 42.9241 43.6166C42.9744 43.738 43.0003 43.8681 43.0003 43.9995C43.0003 44.1309 42.9744 44.261 42.9241 44.3824C42.8737 44.5038 42.8 44.6141 42.707 44.707Z" fill="white"/>
<path d="M32 52C31.6044 52 31.2178 52.1173 30.8889 52.3371C30.56 52.5568 30.3036 52.8692 30.1522 53.2346C30.0009 53.6001 29.9613 54.0022 30.0384 54.3902C30.1156 54.7781 30.3061 55.1345 30.5858 55.4142C30.8655 55.6939 31.2219 55.8844 31.6098 55.9616C31.9978 56.0387 32.3999 55.9991 32.7654 55.8478C33.1308 55.6964 33.4432 55.44 33.6629 55.1111C33.8827 54.7822 34 54.3956 34 54C34 53.4696 33.7893 52.9609 33.4142 52.5858C33.0391 52.2107 32.5304 52 32 52Z" fill="white"/>
<path d="M44.9831 23C44.9579 24.5026 44.8124 26.0007 44.5481 27.48L46.3611 26.03C46.6371 25.8103 46.8379 25.5101 46.9357 25.1711C47.0335 24.8321 47.0233 24.4711 46.9068 24.1382C46.7902 23.8052 46.5729 23.5167 46.285 23.3128C45.9971 23.1089 45.6529 22.9995 45.3001 23H44.9831Z" fill="white"/>
</svg>
