<svg width="80" height="80" viewBox="0 0 80 80" fill="none" xmlns="http://www.w3.org/2000/svg">
<path fill-rule="evenodd" clip-rule="evenodd" d="M67.461 35.049V38.338C67.461 42.4257 64.1473 45.7393 60.0597 45.7393C55.9723 45.7393 52.6587 42.4257 52.6587 38.338V35.049L57.8053 37.3363C59.2407 37.9743 60.879 37.9743 62.3143 37.3363L67.461 35.049ZM48.033 32.9931V41.1137C48.033 41.8803 47.4117 42.5017 46.645 42.5017C45.8787 42.5017 45.2573 41.8803 45.2573 41.1137V31.7578C45.2743 31.7665 45.2917 31.7748 45.3093 31.7827L48.033 32.9931Z" fill="white"/>
<path d="M74.8086 31.4578L62.3125 25.904C60.8772 25.2661 59.2389 25.2661 57.8036 25.904L45.3076 31.4578C44.5752 31.7833 44.5752 32.823 45.3076 33.1486L57.8036 38.7023C59.2389 39.3403 60.8772 39.3403 62.3125 38.7023L74.8086 33.1486C75.5412 32.823 75.5412 31.7833 74.8086 31.4578Z" fill="white"/>
<path fill-rule="evenodd" clip-rule="evenodd" d="M54.3883 61.9074H71.1593C73.2033 61.9074 74.8599 60.2507 74.8599 58.2067C74.8599 54.197 71.2393 50.7483 66.0489 49.222C65.4293 49.04 64.7666 49.2357 64.3126 49.6947L61.3733 52.6667C60.6489 53.399 59.4663 53.399 58.7419 52.6667L55.8029 49.6947C55.3486 49.2357 54.6859 49.04 54.0663 49.222C52.2479 49.7567 50.6226 50.5274 49.2776 51.4754C52.4816 54.4074 54.3753 58.0107 54.3883 61.9074Z" fill="white"/>
<path fill-rule="evenodd" clip-rule="evenodd" d="M39.274 27.3573V32.3754C39.274 38.611 34.219 43.666 27.9833 43.666C21.7476 43.666 16.6926 38.611 16.6926 32.3754V27.3573L24.5441 30.8469C26.7337 31.82 29.233 31.82 31.4225 30.8469L39.274 27.3573ZM9.63586 24.221V36.6093C9.63586 37.7787 8.68806 38.7263 7.51886 38.7263C6.34966 38.7263 5.40186 37.7787 5.40186 36.6093V22.3364C5.42756 22.3497 5.45396 22.3623 5.48099 22.3744L9.63586 24.221Z" fill="white"/>
<path d="M50.4833 19.7948L31.4203 11.3223C29.2307 10.3491 26.7314 10.3491 24.5419 11.3223L5.47878 19.7948C4.36124 20.2914 4.36124 21.8775 5.47878 22.3742L24.5419 30.8467C26.7314 31.8198 29.2307 31.8198 31.4203 30.8467L50.4833 22.3742C51.6009 21.8775 51.6009 20.2914 50.4833 19.7948Z" fill="white"/>
<path d="M21.4907 47.617L25.9746 52.151C27.0794 53.268 28.8838 53.268 29.9886 52.151L34.4726 47.617C35.1653 46.9166 36.1763 46.618 37.1216 46.896C45.0396 49.2243 50.5629 54.4853 50.5629 60.6023C50.5629 63.7203 48.0356 66.2476 44.9176 66.2476H11.0455C7.92768 66.2476 5.40015 63.7203 5.40015 60.6023C5.40015 54.4853 10.9237 49.2243 18.8417 46.896C19.7868 46.618 20.798 46.9166 21.4907 47.617Z" fill="white"/>
</svg>
