<svg width="29" height="29" viewBox="0 0 29 29" fill="none" xmlns="http://www.w3.org/2000/svg">
<g clip-path="url(#clip0_12_42)">
<path d="M25.108 0.967285H4.33812C2.42902 0.967285 0.876465 2.51984 0.876465 4.42894V25.1989C0.876465 27.108 2.42902 28.6605 4.33812 28.6605H25.108C27.0171 28.6605 28.5697 27.108 28.5697 25.1989V4.42894C28.5697 2.51984 27.0171 0.967285 25.108 0.967285Z" fill="#1976D2"/>
<path d="M24.2427 14.8138H19.9156V11.3521C19.9156 10.3967 20.691 10.4867 21.6464 10.4867H23.3773V6.15967H19.9156C17.0476 6.15967 14.7231 8.48417 14.7231 11.3521V14.8138H11.2615V19.1409H14.7231V28.6604H19.9156V19.1409H22.5119L24.2427 14.8138Z" fill="#FAFAFA"/>
</g>
<defs>
<clipPath id="clip0_12_42">
<rect width="27.6932" height="27.6932" fill="white" transform="translate(0.876465 0.967285)"/>
</clipPath>
</defs>
</svg>
