<svg width="182" height="68" viewBox="0 0 182 68" fill="none" xmlns="http://www.w3.org/2000/svg">
<path d="M69.5576 2.57615C69.5576 2.57615 40.5354 -7.89886 24.3811 13.3962C18.4659 21.111 14.333 34.7731 14.333 34.7731C14.333 34.7731 19.7939 29.6548 32.7313 31.1863C53.2767 33.6189 70.1683 23.6776 69.5576 2.57615Z" fill="white"/>
<path d="M0.0155422 63.5864C0.0155422 63.5864 29.0378 74.0614 45.1921 52.7639C51.1073 45.0491 55.2402 31.3894 55.2402 31.3894C55.2402 31.3894 49.7793 36.5053 36.8419 34.9762C16.3064 32.5436 -0.585157 42.485 0.0155422 63.5864Z" fill="white"/>
<path d="M80.9908 35.5771C78.4358 35.5771 76.2531 35.1882 74.4427 34.4105C72.6323 33.6327 71.3085 32.4743 70.4711 30.9354C69.6322 29.3947 69.3889 27.4751 69.7414 25.1766H76.6147C76.4831 26.0142 76.6177 26.872 76.9994 27.629C77.3804 28.3067 77.9759 28.8385 78.6923 29.1407C79.5721 29.5073 80.5196 29.6833 81.4724 29.657C82.3815 29.673 83.2866 29.5328 84.1482 29.2425C84.8512 29.0059 85.4917 28.6139 86.0223 28.0957C86.4893 27.6382 86.7928 27.0399 86.8861 26.3929C86.9472 26.1399 86.9554 25.877 86.9101 25.6207C86.8648 25.3644 86.7671 25.1203 86.623 24.9035C86.2458 24.4269 85.7539 24.0537 85.1932 23.8188C84.346 23.4434 83.4604 23.1612 82.5522 22.9773L79.4866 22.2575C76.9299 21.6766 75.007 20.6937 73.7179 19.3086C72.4288 17.9235 71.9737 16.085 72.3527 13.7931C72.637 12.0025 73.4052 10.3236 74.5743 8.93785C75.7954 7.5143 77.338 6.40217 79.0746 5.69357C81.0324 4.89188 83.1324 4.49502 85.2479 4.52693C87.5993 4.52693 89.61 4.92243 91.2797 5.71343C92.9494 6.50444 94.1756 7.61316 94.9583 9.03962C95.7427 10.4644 95.9909 12.1366 95.703 14.0562H88.857C88.9513 12.9078 88.6469 12.0191 87.9436 11.3903C87.2403 10.7615 86.1646 10.447 84.7167 10.447C83.8729 10.4296 83.0327 10.5607 82.2344 10.8343C81.5971 11.0484 81.0207 11.4128 80.554 11.8967C80.1459 12.324 79.8768 12.8648 79.782 13.4481C79.7214 13.7069 79.7144 13.9754 79.7614 14.2371C79.8083 14.4987 79.9083 14.748 80.055 14.9697C80.4092 15.4399 80.8821 15.8074 81.4252 16.0345C82.1677 16.3657 82.942 16.6202 83.7362 16.7941L86.2705 17.3824C87.5762 17.6584 88.845 18.0866 90.051 18.6583C91.0364 19.1215 91.9243 19.7686 92.6672 20.5646C93.3292 21.2976 93.8021 22.1813 94.0449 23.1387C94.2966 24.2165 94.3203 25.3351 94.1144 26.4227C93.8505 28.2241 93.1091 29.9219 91.9672 31.34C90.7812 32.7579 89.2478 33.844 87.5166 34.4924C85.6814 35.2156 83.5062 35.5771 80.9908 35.5771Z" fill="white"/>
<path d="M112.25 22.9431L118.557 35.5777H110.405L106.31 27.0512L104.532 28.8285L103.413 35.5777H96.3558L101.362 5.36646H108.422L105.793 21.2403H106.069L113.878 13.1954H121.92L112.25 22.9431Z" fill="white"/>
<path d="M120.766 35.5768L124.489 13.1945H131.544L127.835 35.5768H120.766ZM128.409 10.6602C127.953 10.6812 127.497 10.6034 127.074 10.432C126.651 10.2607 126.269 9.99978 125.956 9.66726C125.658 9.34537 125.441 8.95617 125.325 8.5327C125.209 8.10922 125.196 7.66395 125.289 7.23467C125.44 6.2569 125.967 5.37692 126.758 4.78224C127.543 4.13635 128.529 3.78513 129.546 3.78934C130.587 3.78934 131.414 4.12031 132.028 4.78224C132.327 5.10771 132.545 5.50025 132.661 5.92695C132.778 6.35365 132.791 6.80208 132.698 7.23467C132.522 8.20011 131.991 9.06454 131.209 9.65733C130.424 10.3127 129.431 10.6681 128.409 10.6602Z" fill="white"/>
<path d="M144.387 5.37061L139.378 35.5768H132.323L137.322 5.37061H144.387Z" fill="white"/>
<path d="M155.939 5.37061L150.935 35.5768H143.878L148.887 5.37061H155.939Z" fill="white"/>
<path d="M91.3293 43.5397C90.8441 42.2619 89.9167 41.2006 88.7155 40.5486C87.4496 39.8238 85.7625 39.4622 83.6542 39.4639H74.1274L69.5825 66.8751H73.0328L74.7976 56.2015H80.8741C81.0827 56.2015 81.2887 56.2015 81.4897 56.2015L85.4613 66.8751H89.3783L85.0939 55.6033C85.4897 55.4833 85.8763 55.3348 86.2507 55.159C87.6905 54.5162 88.9366 53.5072 89.8648 52.2325C90.7873 50.9427 91.3982 49.4567 91.6495 47.891C91.8977 46.2602 91.8059 44.8205 91.3293 43.5397ZM88.2042 47.8538C88.0557 48.8563 87.6833 49.8125 87.1145 50.6513C86.5448 51.4636 85.7588 52.1 84.8457 52.4881C83.7157 52.95 82.5014 53.1699 81.2812 53.1335H75.3239L77.0813 42.4996H83.0238C85.0824 42.4996 86.5328 42.968 87.3751 43.9046C88.2174 44.8412 88.4938 46.1576 88.2042 47.8538Z" fill="white"/>
<path d="M100.337 67.3032C98.6312 67.3032 97.199 66.868 96.0406 65.9976C94.8455 65.0719 93.9888 63.7781 93.603 62.3164C93.1364 60.7344 93.081 58.8761 93.4367 56.7414C93.7314 54.7746 94.4204 52.8876 95.4622 51.1936C96.3762 49.7037 97.6343 48.4549 99.131 47.5522C100.56 46.6984 102.195 46.2528 103.86 46.2639C105.074 46.2639 106.04 46.46 106.756 46.8522C107.405 47.1856 107.968 47.6638 108.402 48.2497C108.743 48.7207 109.034 49.2266 109.268 49.7589H109.489L110.003 46.5568H113.28L109.911 66.8689H106.729L107.243 63.7412H106.93C106.5 64.2905 106.029 64.8074 105.523 65.2877C104.898 65.8748 104.18 66.3537 103.398 66.705C102.434 67.125 101.389 67.3292 100.337 67.3032ZM101.35 64.3767C102.524 64.3957 103.676 64.0553 104.651 63.4012C105.659 62.707 106.487 61.7841 107.069 60.708C107.742 59.4722 108.193 58.128 108.402 56.7364C108.664 55.4305 108.664 54.0856 108.402 52.7797C108.198 51.7557 107.657 50.8294 106.866 50.1486C106.104 49.523 105.105 49.2103 103.867 49.2103C102.67 49.1922 101.495 49.5384 100.499 50.2032C99.4905 50.8898 98.6608 51.8072 98.0785 52.879C97.4221 54.0825 96.9771 55.3898 96.7629 56.7438C96.5271 58.0467 96.5398 59.3825 96.8002 60.6807C96.9983 61.735 97.5383 62.6946 98.3367 63.4111C99.0995 64.0565 100.106 64.3784 101.358 64.3767H101.35Z" fill="white"/>
<path d="M125.09 67.3025C123.864 67.3025 122.879 67.1064 122.136 66.7142C121.456 66.3765 120.862 65.8884 120.399 65.2869C120.03 64.7863 119.712 64.2499 119.45 63.6859H119.202L118.651 66.8681H115.479L120.024 39.4543H123.3L121.588 49.7407H121.809C122.22 49.2089 122.666 48.7047 123.144 48.2315C123.729 47.6544 124.41 47.1839 125.157 46.8415C126.097 46.4347 127.115 46.2406 128.138 46.273C129.502 46.238 130.85 46.5817 132.03 47.2659C133.134 47.9356 134.017 48.9143 134.57 50.0808C135.196 51.4405 135.501 52.9259 135.461 54.4222C135.461 56.0068 135.222 57.5825 134.753 59.0962C134.305 60.5817 133.615 61.983 132.711 63.244C131.85 64.4516 130.739 65.4592 129.454 66.1979C128.123 66.947 126.617 67.3283 125.09 67.3025ZM124.663 64.3759C125.802 64.3995 126.922 64.0925 127.89 63.4922C128.834 62.8923 129.636 62.0955 130.243 61.1565C130.886 60.1775 131.372 59.1049 131.685 57.9767C132.008 56.8549 132.175 55.6939 132.182 54.5264C132.182 52.9213 131.801 51.6338 131.04 50.6641C130.279 49.6944 129.132 49.2095 127.6 49.2095C126.464 49.1881 125.345 49.4884 124.373 50.0758C123.434 50.6597 122.636 51.4448 122.037 52.3743C121.403 53.3526 120.924 54.4237 120.62 55.5491C120.306 56.681 120.146 57.8498 120.143 59.0242C120.143 60.6575 120.526 61.9582 121.292 62.9263C122.058 63.8944 123.182 64.3776 124.663 64.3759Z" fill="white"/>
<path d="M147.775 67.3021C146.549 67.3021 145.564 67.106 144.821 66.7138C144.141 66.3761 143.547 65.888 143.084 65.2865C142.708 64.7905 142.385 64.2573 142.118 63.6954H141.87L141.316 66.8776H138.152L142.697 39.4639H145.973L144.273 49.7502H144.494C144.907 49.2196 145.353 48.7156 145.829 48.241C146.414 47.6645 147.096 47.1941 147.842 46.851C148.786 46.4383 149.811 46.2407 150.841 46.2726C152.205 46.2376 153.552 46.5813 154.733 47.2655C155.836 47.9352 156.719 48.9139 157.272 50.0804C157.899 51.4398 158.205 52.9253 158.166 54.4218C158.165 56.0066 157.925 57.5822 157.456 59.0958C157.008 60.5817 156.318 61.9832 155.413 63.2436C154.553 64.4505 153.443 65.458 152.159 66.1975C150.822 66.9493 149.309 67.3306 147.775 67.3021ZM147.353 64.3755C148.492 64.3992 149.613 64.0922 150.58 63.4918C151.524 62.8919 152.326 62.0951 152.933 61.1561C153.574 60.1768 154.059 59.1042 154.37 57.9763C154.693 56.8544 154.86 55.6935 154.867 54.526C154.867 52.9209 154.486 51.6334 153.725 50.6637C152.964 49.694 151.817 49.2091 150.285 49.2091C149.145 49.1854 148.021 49.4858 147.045 50.0754C146.106 50.6593 145.309 51.4444 144.71 52.3739C144.072 53.3476 143.59 54.4145 143.28 55.5363C142.966 56.6681 142.806 57.8369 142.803 59.0114C142.803 60.6447 143.186 61.9454 143.953 62.9135C144.719 63.8816 145.852 64.3689 147.353 64.3755Z" fill="white"/>
<path d="M160.857 66.8783L164.222 46.5588H167.499L164.131 66.8783H160.857ZM166.432 43.1085C166.151 43.1196 165.871 43.0674 165.613 42.9556C165.356 42.8439 165.126 42.6756 164.942 42.4631C164.759 42.2553 164.626 42.0077 164.554 41.7398C164.482 41.4719 164.473 41.191 164.528 40.9192C164.633 40.3102 164.961 39.7623 165.449 39.3827C165.925 38.9733 166.531 38.7478 167.159 38.7472C167.439 38.7366 167.717 38.7881 167.975 38.898C168.232 39.0078 168.462 39.1734 168.648 39.3827C168.833 39.5885 168.966 39.8347 169.038 40.1016C169.11 40.3684 169.119 40.6485 169.063 40.9192C168.958 41.5319 168.626 42.0829 168.134 42.4631C167.661 42.8729 167.058 43.1016 166.432 43.1085Z" fill="white"/>
<path d="M174.675 61.6998C174.511 62.6009 174.591 63.2388 174.896 63.6285C175.201 64.0182 175.772 64.2068 176.604 64.2068C176.887 64.2032 177.169 64.1842 177.45 64.1498C177.785 64.115 178.083 64.0778 178.356 64.0405L178.431 66.7983C178.054 66.8917 177.672 66.9621 177.286 67.0093C176.858 67.0654 176.427 67.0944 175.996 67.0962C174.233 67.0962 172.95 66.6444 172.151 65.7508C171.351 64.8572 171.088 63.5913 171.344 61.9604L173.436 49.3755H170.259L170.716 46.5582H173.903L174.732 41.5938H177.986L177.165 46.5582H181.313L180.856 49.3582H176.703L174.675 61.6998Z" fill="white"/>
</svg>
