<svg width="60" height="54" viewBox="0 0 60 54" fill="none" xmlns="http://www.w3.org/2000/svg">
<path d="M41.5599 52.55C40.9999 53.46 40.0299 54 38.9499 54H21.0498C19.9698 54 18.9999 53.46 18.4399 52.55C17.8999 51.66 17.8499 50.58 18.3299 49.65L20.1899 46H39.8099L41.6698 49.65C42.1498 50.58 42.0999 51.66 41.5599 52.55Z" fill="white"/>
<path d="M29 5H7C5.89543 5 5 5.89543 5 7V17C5 18.1046 5.89543 19 7 19H29C30.1046 19 31 18.1046 31 17V7C31 5.89543 30.1046 5 29 5Z" fill="white"/>
<path d="M15 21H7C5.89543 21 5 21.8954 5 23V31C5 32.1046 5.89543 33 7 33H15C16.1046 33 17 32.1046 17 31V23C17 21.8954 16.1046 21 15 21Z" fill="white"/>
<path d="M29 21H21C19.8954 21 19 21.8954 19 23V31C19 32.1046 19.8954 33 21 33H29C30.1046 33 31 32.1046 31 31V23C31 21.8954 30.1046 21 29 21Z" fill="white"/>
<path d="M54 33H39C38.45 33 38 32.55 38 32C38 31.45 38.45 31 39 31H54C54.55 31 55 31.45 55 32C55 32.55 54.55 33 54 33Z" fill="white"/>
<path d="M54 28H39C38.45 28 38 27.55 38 27C38 26.45 38.45 26 39 26H54C54.55 26 55 26.45 55 27C55 27.55 54.55 28 54 28Z" fill="white"/>
<path d="M54 23H39C38.45 23 38 22.55 38 22C38 21.45 38.45 21 39 21H54C54.55 21 55 21.45 55 22C55 22.55 54.55 23 54 23Z" fill="white"/>
<path d="M55 0H5C2.24 0 0 2.24 0 5V39C0 41.76 2.24 44 5 44H55C57.76 44 60 41.76 60 39V5C60 2.24 57.76 0 55 0ZM2 36V5C2 3.35 3.35 2 5 2H33V36H2ZM58 36H35V2H55C56.65 2 58 3.35 58 5V36Z" fill="white"/>
<path d="M50.9999 15.9999C50.7899 15.9999 50.5799 15.9299 50.3999 15.7999C49.9599 15.4699 49.8699 14.8399 50.1999 14.3999L52.7499 10.9999L50.1999 7.59991C49.8699 7.15991 49.9599 6.52991 50.3999 6.19991C50.8399 5.86991 51.4699 5.95991 51.7999 6.39991L54.7999 10.3999C55.0699 10.7599 55.0699 11.2399 54.7999 11.5999L51.7999 15.5999C51.5999 15.8599 51.2999 15.9999 50.9999 15.9999Z" fill="white"/>
<path d="M41.0001 15.9999C40.7001 15.9999 40.4001 15.8599 40.2001 15.5999L37.2001 11.5999C36.9301 11.2399 36.9301 10.7599 37.2001 10.3999L40.2001 6.39991C40.5301 5.95991 41.1601 5.86991 41.6001 6.19991C42.0401 6.52991 42.1301 7.15991 41.8001 7.59991L39.2501 10.9999L41.8001 14.3999C42.1301 14.8399 42.0401 15.4699 41.6001 15.7999C41.4201 15.9299 41.2101 15.9999 41.0001 15.9999Z" fill="white"/>
<path d="M44.9999 15.9999C44.9199 15.9999 44.8399 15.9999 44.7599 15.9699C44.2199 15.8399 43.8999 15.2899 44.0299 14.7599L46.0299 6.75988C46.1599 6.21988 46.6999 5.89988 47.2399 6.02988C47.7799 6.15988 48.0999 6.70988 47.9699 7.23988L45.9699 15.2399C45.8599 15.6999 45.4499 15.9999 44.9999 15.9999Z" fill="white"/>
</svg>
