<svg width="66" height="66" viewBox="0 0 66 66" fill="none" xmlns="http://www.w3.org/2000/svg">
<path d="M62.6394 18.9271C62.627 18.8413 62.569 18.5529 62.341 18.4468L35.9936 6.17622C35.257 5.83307 34.1659 5.64861 33.4575 5.98286L6.62537 18.6363C6.60913 18.6439 6.54622 18.7405 6.5479 18.929C6.54996 19.1575 6.65528 19.435 6.85225 19.5234L10.1869 21.0227C10.0322 24.6047 10.2661 30.9717 10.2554 34.541C8.56142 34.8952 7.28499 36.4001 7.28499 38.1977C7.28499 39.7937 8.29136 41.1585 9.70262 41.6926C9.70481 41.8081 9.70623 41.924 9.70997 42.0385C9.70365 42.0805 9.70004 42.1235 9.69927 42.1672C9.60465 47.8815 7.35795 52.6895 3.83597 54.715C3.23308 55.0619 3.1828 55.9151 3.74226 56.3298L8.69935 60.0041C9.0764 60.2835 9.5928 60.2496 9.93066 59.938C13.9452 56.2346 13.1983 52.179 12.4076 47.8851C12.0585 45.9901 11.6993 44.0384 11.6393 41.8812C13.4057 41.5855 14.7565 40.0466 14.7565 38.1976C14.7565 36.5454 13.6781 35.1412 12.1885 34.6497C12.2029 31.2924 11.9969 25.4886 12.0919 21.8792C34.5971 32.4508 33.153 31.7724 33.2138 31.801C34.069 32.1996 35.1352 32.2809 35.7463 31.993L62.5792 19.3394C62.606 19.3146 62.672 19.1535 62.6394 18.9271Z" fill="white"/>
<path d="M32.3936 33.5516L17.5078 26.5565V37.1993C17.5078 41.5478 25.468 45.2216 34.8904 45.2216C44.3132 45.2216 52.2738 41.5478 52.2738 37.1993V26.3359L36.57 33.7413C35.3238 34.3285 33.651 34.1377 32.3936 33.5516Z" fill="white"/>
</svg>
