<svg width="70" height="70" viewBox="0 0 70 70" fill="none" xmlns="http://www.w3.org/2000/svg">
<path d="M59.3959 15.1285C54.8487 6.27211 45.7131 0.000410156 34.9973 0V13.8536C42.5821 13.8541 48.7502 19.8242 48.7505 27.4094C48.7505 34.9022 42.531 41.3613 34.9973 41.3617V70C44.6559 59.9352 55.7721 48.8712 60.636 35.6251C63.0681 29.0009 62.6143 21.3965 59.3959 15.1285Z" fill="#B3B3B3"/>
<path d="M9.36414 35.6251C14.2279 48.8712 25.3441 59.9352 35.0027 70V41.3617C27.4691 41.3613 21.2495 34.9022 21.2495 27.4094C21.2498 19.8245 27.4178 13.8541 35.0027 13.8536V0C24.2868 0.000410156 15.1513 6.27211 10.6039 15.1285C7.38568 21.3965 6.93191 29.0009 9.36414 35.6251Z" fill="#979797"/>
<path d="M35 49.051C47.0812 49.051 56.875 39.2573 56.875 27.176C56.875 15.0948 47.0812 5.30103 35 5.30103C22.9188 5.30103 13.125 15.0948 13.125 27.176C13.125 39.2573 22.9188 49.051 35 49.051Z" fill="#F0F0F0"/>
<path d="M35 5.30078C26.3274 5.30078 18.8341 10.3478 15.2955 17.6649H54.7043C51.166 10.3478 43.6726 5.30078 35 5.30078Z" fill="#FF9811"/>
<path d="M35 49.0509C43.6726 49.0509 51.166 44.004 54.7044 36.6868H15.2955C18.8341 44.004 26.3274 49.0509 35 49.0509Z" fill="#6DA544"/>
<path d="M35 34.7841C39.2018 34.7841 42.6081 31.3778 42.6081 27.176C42.6081 22.9741 39.2018 19.5679 35 19.5679C30.7981 19.5679 27.3918 22.9741 27.3918 27.176C27.3918 31.3778 30.7981 34.7841 35 34.7841Z" fill="#0052B4"/>
<path d="M35 31.9314C37.6263 31.9314 39.7553 29.8023 39.7553 27.176C39.7553 24.5497 37.6263 22.4207 35 22.4207C32.3737 22.4207 30.2446 24.5497 30.2446 27.176C30.2446 29.8023 32.3737 31.9314 35 31.9314Z" fill="#F0F0F0"/>
<path d="M35 21.3079L36.4671 24.6349L40.082 24.2418L37.934 27.1758L40.082 30.11L36.4671 29.7169L35 33.0439L33.5329 29.7169L29.918 30.11L32.066 27.1758L29.918 24.2418L33.5329 24.6349L35 21.3079Z" fill="#0052B4"/>
<path d="M34.9903 2.96753C24.9079 2.96753 15.6513 9.46892 12.2116 18.9372C8.7467 28.4765 11.782 39.4225 19.5908 45.8804C27.416 52.3524 38.7819 53.2119 47.4784 47.9514C56.1773 42.6892 60.7713 32.2724 58.7264 22.3067C56.7231 12.5466 48.6058 4.80147 38.7559 3.25956C37.5103 3.0646 36.2497 2.96753 34.9903 2.96753ZM54.4947 35.9821C50.3602 45.1436 40.0392 50.3105 30.23 48.0679C22.6811 46.3424 16.5056 40.4439 14.401 33.0022C12.2478 25.3927 14.5825 17.0329 20.3369 11.6159C26.5622 5.75522 35.9463 4.15507 43.7597 7.67858C53.0877 11.885 58.2479 22.4639 55.7432 32.4035C55.4338 33.6308 55.0115 34.8275 54.4947 35.9821C54.7055 35.5111 54.2092 36.6147 54.4947 35.9821Z" fill="#C7C7C7"/>
</svg>
