<svg width="29" height="30" viewBox="0 0 29 30" fill="none" xmlns="http://www.w3.org/2000/svg">
<g clip-path="url(#clip0_12_27)">
<path d="M2.11131 2.88513C-0.0649179 5.18596 0.380482 7.63007 0.380482 15.0552C0.380482 21.2213 -0.676477 27.4026 4.85525 28.8578C6.58261 29.31 21.8877 29.31 23.6128 28.8555C25.916 28.2506 27.7899 26.3491 28.046 23.0335C28.0818 22.5708 28.0818 7.54786 28.0449 7.07571C27.7726 3.54402 25.6367 1.50863 22.8224 1.09639C22.1774 1.00125 22.0481 0.973064 18.7388 0.967192C7.00032 0.973064 4.42716 0.44102 2.11131 2.88513Z" fill="url(#paint0_linear_12_27)"/>
<path d="M14.2248 4.65409C10.035 4.65409 6.05645 4.27473 4.53678 8.2445C3.90907 9.88409 4.00022 12.0134 4.00022 15.0624C4.00022 17.7379 3.91599 20.2525 4.53678 21.8792C6.05298 25.8513 10.0639 25.4707 14.2225 25.4707C18.2345 25.4707 22.3712 25.8959 23.9094 21.8792C24.5382 20.2231 24.4459 18.1255 24.4459 15.0624C24.4459 10.9963 24.6663 8.37135 22.7289 6.40055C20.7673 4.40392 18.1145 4.65409 14.2202 4.65409H14.2248ZM13.3086 6.52975C22.0481 6.51565 23.1605 5.52673 22.5466 19.2647C22.3285 24.1236 18.6938 23.5904 14.2259 23.5904C6.07952 23.5904 5.84528 23.3531 5.84528 15.0577C5.84528 6.66599 6.49146 6.53445 13.3086 6.5274V6.52975ZM19.6827 8.25742C19.0053 8.25742 18.4561 8.81648 18.4561 9.50591C18.4561 10.1953 19.0053 10.7544 19.6827 10.7544C20.36 10.7544 20.9092 10.1953 20.9092 9.50591C20.9092 8.81648 20.36 8.25742 19.6827 8.25742ZM14.2248 9.71731C11.3251 9.71731 8.97462 12.1109 8.97462 15.0624C8.97462 18.0139 11.3251 20.4063 14.2248 20.4063C17.1245 20.4063 19.4738 18.0139 19.4738 15.0624C19.4738 12.1109 17.1245 9.71731 14.2248 9.71731ZM14.2248 11.593C18.7307 11.593 18.7365 18.5319 14.2248 18.5319C9.72003 18.5319 9.71311 11.593 14.2248 11.593Z" fill="white"/>
</g>
<defs>
<linearGradient id="paint0_linear_12_27" x1="2.16441" y1="27.3546" x2="28.2915" y2="5.13858" gradientUnits="userSpaceOnUse">
<stop stop-color="#FFDD55"/>
<stop offset="0.5" stop-color="#FF543E"/>
<stop offset="1" stop-color="#C837AB"/>
</linearGradient>
<clipPath id="clip0_12_27">
<rect width="27.6932" height="28.1878" fill="white" transform="translate(0.380493 0.967285)"/>
</clipPath>
</defs>
</svg>
