<svg width="58" height="58" viewBox="0 0 58 58" fill="none" xmlns="http://www.w3.org/2000/svg">
<g clip-path="url(#clip0_120_893)">
<path d="M41.1524 8.28809H12.1797C9.49978 8.28809 7.32727 10.4606 7.32727 13.1405V53.1477C7.32727 55.8276 9.49978 58.0001 12.1797 58.0001H25.0689L33.2589 53.0663L41.126 56.8842C43.8059 56.8842 46.0048 55.8276 46.0048 53.1477V13.1405C46.0048 10.4606 43.8323 8.28809 41.1524 8.28809Z" fill="#CBD3D8"/>
<path d="M25.6781 0.105578L25.4161 0H16.083C13.4031 0 8.4679 2.17251 8.4679 4.8524V44.8596C8.4679 47.5395 13.4031 49.712 16.083 49.712H34.1505C36.8303 49.712 39.0029 47.5395 39.0029 44.8596V13.1913C36.4771 7.23131 31.683 2.52323 25.6781 0.105578Z" fill="#F2F6FC"/>
<path d="M11.2306 44.8596V4.8524C11.2306 2.17251 13.403 0 16.0829 0H5.17766C2.49776 0 0.325256 2.17251 0.325256 4.8524V44.8596C0.325256 47.5395 2.49776 49.712 5.17766 49.712H16.083C13.403 49.712 11.2306 47.5395 11.2306 44.8596Z" fill="#DCE1EB"/>
<path d="M11.9953 23.6942H7.32727C6.03824 23.6942 4.99323 22.6492 4.99323 21.3602V16.6922C4.99323 15.4032 6.03824 14.3582 7.32727 14.3582H11.9953C13.2843 14.3582 14.3293 15.4032 14.3293 16.6922V21.3602C14.3293 22.6493 13.2843 23.6942 11.9953 23.6942Z" fill="#8DD470"/>
<path d="M11.9953 37.6984H7.32727C6.03824 37.6984 4.99323 36.6534 4.99323 35.3643V30.6964C4.99323 29.4073 6.03824 28.3623 7.32727 28.3623H11.9953C13.2843 28.3623 14.3293 29.4073 14.3293 30.6964V35.3643C14.3293 36.6535 13.2843 37.6984 11.9953 37.6984Z" fill="#8DD470"/>
<path d="M39.0027 13.1913C37.7521 12.2455 36.2192 11.7197 34.6259 11.7197H33.0223C29.5503 11.7197 26.7357 8.90515 26.7357 5.4332V3.915C26.7357 2.48958 26.2644 1.11786 25.416 0C32.613 0.388668 38.407 6.05126 39.0027 13.1913Z" fill="#DCE1EB"/>
<path d="M29.6668 27.658V34.5003H34.3348V27.658C34.3348 26.369 35.3798 25.324 36.6688 25.324H41.3368C42.6258 25.324 43.6709 26.369 43.6709 27.658V34.5003H48.3388V27.658C48.3388 23.791 45.2039 20.656 41.3368 20.656H36.6688C32.8016 20.656 29.6668 23.791 29.6668 27.658Z" fill="#515181"/>
<path d="M34.3348 22.9901C34.3348 21.701 35.3798 20.656 36.6688 20.656C32.8018 20.656 29.6668 23.791 29.6668 27.658V34.5003H34.3348V27.658C34.3348 26.369 35.3798 25.324 36.6688 25.324C35.3798 25.324 34.3348 24.2791 34.3348 22.9901Z" fill="#41416B"/>
<path d="M35.5018 35.7776V53.4916C35.5018 55.9815 39.8543 58 42.3441 58H44.597L47.5145 55.7073L50.432 58H53.1665C55.6564 58 57.6748 55.9815 57.6748 53.4916V35.7776H35.5018Z" fill="#CB5935"/>
<path d="M37.8358 53.4916V35.7776H20.3307V53.4916C20.3307 55.9815 22.3492 58 24.8391 58H27.5736L30.4912 55.7073L33.4086 58H42.3441C39.8542 58 37.8358 55.9815 37.8358 53.4916Z" fill="#B24E2F"/>
<path d="M53.1664 29.9919H33.008C30.5181 29.9919 26.1657 32.0104 26.1657 34.5003V36.6042C26.1657 42.0887 31.0424 44.2683 31.0424 44.2683H50.0105C54.2433 44.2683 57.6747 40.8369 57.6747 36.6042V34.5003C57.6748 32.0104 55.6563 29.9919 53.1664 29.9919Z" fill="#E37858"/>
<path d="M31.0424 42.3048C29.4817 40.9018 28.4997 38.868 28.4997 36.6042V34.5003C28.4997 32.0104 30.5181 29.9919 33.008 29.9919H24.839C22.3491 29.9919 20.3306 32.0104 20.3306 34.5003V36.6042C20.3306 40.8369 23.762 44.2683 27.9948 44.2683H31.0423L31.0424 42.3048Z" fill="#CB5935"/>
<path d="M33.4086 57.9999H27.5736V42.2454C27.5736 40.6341 28.8799 39.3279 30.4912 39.3279C32.1025 39.3279 33.4086 40.6341 33.4086 42.2454V57.9999Z" fill="#41416B"/>
<path d="M44.5969 57.9999H50.4319V42.2454C50.4319 40.6341 49.1257 39.3279 47.5145 39.3279C45.9032 39.3279 44.5969 40.6341 44.5969 42.2454V57.9999Z" fill="#515181"/>
<path d="M8.98867 21.0874C8.77128 21.0874 8.55378 21.0045 8.38794 20.8386L7.31007 19.7608C6.97827 19.429 6.97827 18.891 7.31007 18.5593C7.64187 18.2274 8.17984 18.2275 8.51153 18.5592L8.98867 19.0363L10.811 17.2139C11.1428 16.8822 11.6808 16.8822 12.0125 17.2139C12.3443 17.5458 12.3443 18.0836 12.0125 18.4154L9.58929 20.8386C9.42356 21.0045 9.20606 21.0874 8.98867 21.0874Z" fill="white"/>
<path d="M8.98867 35.0915C8.76335 35.0915 8.54721 35.002 8.38794 34.8427L7.31007 33.7647C6.97827 33.4329 6.97827 32.8949 7.31007 32.5632C7.64187 32.2315 8.17984 32.2314 8.51153 32.5633L8.98867 33.0405L10.811 31.218C11.1428 30.8863 11.6808 30.8863 12.0125 31.218C12.3443 31.5499 12.3443 32.0878 12.0125 32.4196L9.58929 34.8428C9.43013 35.002 9.21399 35.0915 8.98867 35.0915Z" fill="white"/>
<path d="M31.7155 36.0028C31.2462 36.0028 30.8658 35.6225 30.8658 35.1532V33.7529C30.8658 33.2836 31.2462 32.9033 31.7155 32.9033C32.1847 32.9033 32.5651 33.2836 32.5651 33.7529V35.1532C32.5651 35.6225 32.1847 36.0028 31.7155 36.0028Z" fill="#495560"/>
<path d="M46.29 36.0028C45.8208 36.0028 45.4404 35.6225 45.4404 35.1532V33.7529C45.4404 33.2836 45.8208 32.9033 46.29 32.9033C46.7592 32.9033 47.1396 33.2836 47.1396 33.7529V35.1532C47.1396 35.6225 46.7592 36.0028 46.29 36.0028Z" fill="#495560"/>
<path d="M39.0027 36.8365C38.0208 36.8365 37.087 36.4112 36.4408 35.6698C36.1326 35.316 36.1694 34.7794 36.5232 34.4711C36.8769 34.1627 37.4136 34.1997 37.7219 34.5534C38.0452 34.9244 38.5121 35.1373 39.0027 35.1373C39.4933 35.1373 39.96 34.9244 40.2835 34.5534C40.5917 34.1997 41.1284 34.1628 41.4822 34.4711C41.836 34.7794 41.8728 35.316 41.5645 35.6698C40.9184 36.4112 39.9846 36.8365 39.0027 36.8365Z" fill="#495560"/>
<path d="M34.3347 17.542H18.9973C18.528 17.542 18.1476 17.1617 18.1476 16.6924C18.1476 16.2231 18.528 15.8428 18.9973 15.8428H34.3347C34.804 15.8428 35.1844 16.2231 35.1844 16.6924C35.1844 17.1617 34.804 17.542 34.3347 17.542Z" fill="#B5BABC"/>
<path d="M26.6659 22.21H18.9973C18.528 22.21 18.1476 21.8297 18.1476 21.3604C18.1476 20.891 18.528 20.5107 18.9973 20.5107H26.6661C27.1353 20.5107 27.5157 20.891 27.5157 21.3604C27.5157 21.8297 27.1353 22.21 26.6659 22.21Z" fill="#B5BABC"/>
<path d="M17.9968 5.51758H4.99323C4.52401 5.51758 4.14362 5.13729 4.14362 4.66797C4.14362 4.19864 4.52401 3.81836 4.99323 3.81836H17.9968C18.466 3.81836 18.8464 4.19864 18.8464 4.66797C18.8464 5.13729 18.466 5.51758 17.9968 5.51758Z" fill="#B5BABC"/>
<path d="M13.8291 10.1855H4.99323C4.52401 10.1855 4.14362 9.80526 4.14362 9.33594C4.14362 8.86661 4.52401 8.48633 4.99323 8.48633H13.8291C14.2983 8.48633 14.6787 8.86661 14.6787 9.33594C14.6787 9.80526 14.2983 10.1855 13.8291 10.1855Z" fill="#B5BABC"/>
</g>
<defs>
<clipPath id="clip0_120_893">
<rect width="58" height="58" fill="white"/>
</clipPath>
</defs>
</svg>
