<svg width="66" height="66" viewBox="0 0 66 66" fill="none" xmlns="http://www.w3.org/2000/svg">
<g clip-path="url(#clip0_120_566)">
<path d="M49.4521 11.7292H45.3704C42.643 11.7292 40.4319 13.9402 40.4319 16.6678V21.4312L41.6271 22.1507H49.9263V12.5978L49.4521 11.7292Z" fill="#EFC984"/>
<path d="M58.439 44.9094C58.439 42.21 56.66 39.8336 54.0699 39.0732L46.8462 36.9524L46.8509 35.405H43.6201L36.5582 37.4777C34.0269 38.2207 32.2881 40.5431 32.2881 43.1812V54.462H58.4397L58.439 44.9094Z" fill="#4A80AA"/>
<path d="M61.7304 37.4775L54.6711 35.405H46.315L46.309 37.439L53.3683 39.5115C55.8993 40.2546 57.6379 42.5769 57.6379 45.2148V54.4619H66V43.1808C66 40.543 64.2615 38.2206 61.7304 37.4775Z" fill="#407093"/>
<path d="M53.1386 54.4621L50.545 42.8977H47.7353L45.1417 54.4621H53.1386Z" fill="#DD636E"/>
<path d="M53.0211 36.8269V30.5928H45.2642V36.8269C45.2642 38.969 49.1426 39.1594 49.1426 39.1594C49.1426 39.1594 53.0211 38.9688 53.0211 36.8269Z" fill="#FFDDCE"/>
<path d="M49.7571 28.069C49.8781 27.5382 49.9262 26.9934 49.9262 26.449V18.1878C48.4312 18.2882 46.9213 18.1007 45.481 17.6249L45.4782 17.624C44.4584 17.287 43.4076 18.0465 43.4076 19.1206V19.9381C43.4076 20.7627 42.7391 21.4312 41.9144 21.4312H40.4318V23.8728C40.4318 24.4967 40.9376 25.0026 41.5615 25.0026C41.7583 25.0026 41.9186 25.1567 41.9309 25.3532C42.1333 28.5631 44.4297 31.2045 47.4699 31.9251C48.5945 30.9257 49.411 29.5872 49.7571 28.069Z" fill="#FFDDCE"/>
<path d="M55.7077 14.5997H55.6354C55.2351 14.5997 54.9107 14.2753 54.9107 13.875C54.9107 12.69 53.9499 11.7292 52.7649 11.7292H49.4521V22.1507H56.6583L57.8535 21.4312V16.7455C57.8535 15.5605 56.8929 14.5997 55.7077 14.5997Z" fill="#EABC6B"/>
<path d="M56.3708 21.4311C55.5462 21.4311 54.8777 20.7626 54.8777 19.938V19.1209C54.8777 18.0467 53.8267 17.2872 52.8069 17.6243C51.7164 17.9847 50.586 18.1779 49.4523 18.2078V26.1981C49.4523 26.7332 49.405 27.2688 49.286 27.7905C48.9265 29.3676 48.0504 30.7474 46.8464 31.7452C47.5681 31.987 48.3398 32.1195 49.1429 32.1195C52.9797 32.1195 56.1165 29.1297 56.3546 25.353C56.3669 25.1565 56.5272 25.0024 56.724 25.0024C57.3479 25.0024 57.8537 24.4965 57.8537 23.8726V21.431L56.3708 21.4311Z" fill="#FFCBBE"/>
<path d="M43.7522 34.9918L42.6476 35.4877C42.0172 35.7708 41.8649 36.5973 42.3532 37.0865L45.4123 40.1503C45.8003 40.528 46.4111 40.5514 46.8267 40.2042L49.2255 38.2005L45.1358 35.1445C44.7366 34.846 44.2069 34.7876 43.7522 34.9918Z" fill="#365E7D"/>
<path d="M53.1474 35.1635L49.2256 38.2003L51.4802 40.128C51.8932 40.4812 52.5068 40.4634 52.8988 40.0868L55.9594 37.1063C56.4597 36.6191 56.3101 35.7809 55.6723 35.4966L54.5463 34.9949C54.0844 34.7893 53.547 34.8542 53.1474 35.1635Z" fill="#365E7D"/>
<path d="M58.4405 64.628L58.4395 51.9033H15.6921V65.9376H57.6067C58.0761 65.6867 58.4041 65.1945 58.4405 64.628Z" fill="#DDB7A0"/>
<path d="M57.6394 51.9036V64.4849C57.5877 65.2874 56.9372 65.9378 56.1348 65.9378H63.2429C64.7656 65.9378 66 64.7034 66 63.1808V51.9036H57.6394Z" fill="#D6A889"/>
<path d="M20.163 48.1731V42.1104H12.6194V48.1731C12.6194 50.2562 16.3912 50.4413 16.3912 50.4413C16.3912 50.4413 20.163 50.2562 20.163 48.1731Z" fill="#FFDDCE"/>
<path d="M16.569 44.1878C18.4057 43.5501 19.6369 41.8189 19.6362 39.8746C19.6358 38.7995 19.4788 37.7302 19.1702 36.7004C18.6627 35.0073 18.4045 33.2492 18.404 31.4816V31.4772C18.4027 27.4148 16.0549 23.9031 12.6434 22.2178C8.95685 23.7028 6.35436 27.3125 6.35307 31.5306V31.5349C6.35255 33.2531 6.1017 34.962 5.60825 36.6077C5.30816 37.6088 5.15553 38.6482 5.15527 39.6932C5.15463 41.5831 6.35127 43.2658 8.13662 43.8858C9.82091 44.4705 11.5519 44.871 13.3 45.0874C14.4033 44.8603 15.4954 44.5606 16.569 44.1878Z" fill="#407093"/>
<path d="M27.1767 36.6077C26.6834 34.9619 26.4324 33.253 26.4319 31.5349V31.5306C26.4302 25.9873 21.9359 21.4944 16.3926 21.4944C14.8924 21.4944 13.4703 21.8258 12.1919 22.4157C15.6369 24.0055 18.0294 27.4875 18.0306 31.5306V31.5349C18.0311 33.2531 18.2819 34.962 18.7754 36.6077C19.0755 37.6087 19.2281 38.6481 19.2284 39.6931C19.229 41.583 18.0324 43.2659 16.247 43.8857C14.9196 44.3465 13.5629 44.6927 12.1919 44.9248C16.3434 45.6274 20.6286 45.2812 24.6484 43.8857C26.4337 43.2657 27.6304 41.583 27.6297 39.6931C27.6293 38.6482 27.4767 37.6088 27.1767 36.6077Z" fill="#365E7D"/>
<path d="M28.6589 13.9477V2.92325C28.6589 0.23659 26.3204 0.00288281 24.7079 0.00146484H7.48307C5.86942 0.00146484 4.56128 1.30961 4.56128 2.92325V13.9477C4.56128 15.5614 5.86942 16.8695 7.48307 16.8695H25.1687L25.8826 16.8309C26.7542 16.7839 27.5817 16.375 28.097 15.6705C28.4503 15.1875 28.6589 14.592 28.6589 13.9477Z" fill="#CBE2FF"/>
<path d="M33.1787 0.00146484H24.7079C26.3215 0.00146484 27.6297 1.30961 27.6297 2.92325V13.9477C27.6297 15.3534 26.6368 16.527 25.3141 16.8061C25.2605 16.8174 25.2119 16.8398 25.1687 16.8695H27.901C28.0139 16.8695 28.1222 16.9143 28.2021 16.9943L32.5757 21.3678C32.9004 21.6925 33.4557 21.4625 33.4557 21.0033V17.2204C33.4557 17.0225 33.5913 16.8469 33.7849 16.8061C35.1077 16.527 36.1006 15.3536 36.1006 13.9477V2.92325C36.1005 1.30961 34.7923 0.00146484 33.1787 0.00146484Z" fill="#BED8FB"/>
<path d="M25.0033 55.926C25.0033 53.3606 23.5605 52.122 20.851 51.5402L19.32 51.2488C18.219 51.0392 17.3705 50.2098 17.1032 49.164C15.3467 49.4646 13.4144 48.6353 12.628 46.6763L12.6191 46.6543L4.15259 48.2917C1.69099 49.0142 0 51.2728 0 53.8384V63.2414C0 64.7663 1.23776 66.0016 2.76259 65.9985L24.3835 65.9541L24.9894 65.4896L25.0033 55.926Z" fill="#E28086"/>
<path d="M31.5407 65.9476C32.2295 65.9422 32.7849 65.3824 32.7849 64.6936V53.838C32.7849 51.2727 31.0942 49.0141 28.6326 48.2915L20.1628 46.6787C19.4836 48.3675 17.9527 49.2151 16.4178 49.2231C16.5714 50.4276 17.4809 51.4196 18.7003 51.6518L20.2313 51.9432C22.9406 52.5251 24.3836 53.7637 24.3836 56.329V65.9546L31.5407 65.9476Z" fill="#DD636E"/>
<path d="M51.4801 40.1279L49.2255 38.2002L46.8267 40.2039C46.6721 40.3331 46.4904 40.4107 46.3033 40.4381L47.7352 42.8974H50.5449L51.9608 40.36C51.7882 40.326 51.6221 40.2494 51.4801 40.1279Z" fill="#E28086"/>
</g>
<defs>
<clipPath id="clip0_120_566">
<rect width="66" height="66" fill="white"/>
</clipPath>
</defs>
</svg>
