<svg width="66" height="66" viewBox="0 0 66 66" fill="none" xmlns="http://www.w3.org/2000/svg">
<g clip-path="url(#clip0_114_265)">
<path d="M64.8022 46.8682L63.5612 46.2478L35.5941 60.2313C33.989 61.0444 32.011 61.0444 30.4059 60.2313L2.43878 46.2478L1.1978 46.8682C0.542695 47.1957 0.128906 47.8652 0.128906 48.5976C0.128906 49.3301 0.542695 49.9996 1.1978 50.327L32.1353 65.7958C32.6795 66.068 33.3205 66.068 33.8647 65.7958L64.8022 50.327C65.4573 49.9996 65.8711 49.3301 65.8711 48.5976C65.8711 47.8652 65.4573 47.1957 64.8022 46.8682Z" fill="white"/>
<path d="M64.8022 37.8448L63.5612 37.2244L35.5941 51.2079C33.989 52.021 32.011 52.021 30.4059 51.2079L2.43878 37.2244L1.1978 37.8448C0.542695 38.1722 0.128906 38.8418 0.128906 39.5742C0.128906 40.3066 0.542695 40.9762 1.1978 41.3036L32.1353 56.7724C32.6795 57.0446 33.3205 57.0446 33.8647 56.7724L64.8022 41.3036C65.4573 40.9762 65.8711 40.3066 65.8711 39.5742C65.8711 38.8418 65.4573 38.1722 64.8022 37.8448Z" fill="white"/>
<path d="M15.9956 22.7544L19.8628 29.4526C20.3967 30.3774 21.5793 30.6944 22.5042 30.1603L24.0964 29.241C25.0619 29.973 26.099 30.5763 27.1992 31.0457V32.8711C27.1992 33.939 28.0649 34.8047 29.1328 34.8047H36.8672C37.935 34.8047 38.8008 33.939 38.8008 32.8711V31.0457C39.901 30.5763 40.938 29.973 41.9035 29.241L43.4958 30.1603C44.4206 30.6943 45.6031 30.3774 46.1371 29.4526L50.0043 22.7544C50.5382 21.8296 50.2213 20.647 49.2966 20.1131L47.711 19.1976C47.7863 18.5955 47.8242 17.9953 47.8242 17.4023C47.8242 16.8094 47.7863 16.2092 47.7112 15.6071L49.2967 14.6916C50.2215 14.1576 50.5383 12.9751 50.0044 12.0503L46.1372 5.35206C45.6033 4.42729 44.4207 4.1103 43.4959 4.64436L41.9035 5.56359C40.9383 4.83166 39.901 4.22825 38.8008 3.75891V1.93359C38.8008 0.865734 37.935 0 36.8672 0H29.1328C28.0649 0 27.1992 0.865734 27.1992 1.93359V3.75891C26.099 4.22825 25.0617 4.83166 24.0964 5.56359L22.5042 4.64423C21.5794 4.1103 20.3968 4.42716 19.8629 5.35193L15.9957 12.0502C15.4618 12.9749 15.7786 14.1575 16.7034 14.6914L18.2889 15.6069C18.2137 16.2092 18.1758 16.8094 18.1758 17.4023C18.1758 17.9953 18.2137 18.5955 18.2888 19.1976L16.7033 20.1131C15.7785 20.647 15.4616 21.8296 15.9956 22.7544ZM33 11.6016C36.1985 11.6016 38.8008 14.2038 38.8008 17.4023C38.8008 20.6009 36.1985 23.2031 33 23.2031C29.8014 23.2031 27.1992 20.6009 27.1992 17.4023C27.1992 14.2038 29.8014 11.6016 33 11.6016Z" fill="white"/>
<path d="M1.1978 32.2801L32.1353 47.7489C32.6795 48.0211 33.3205 48.0211 33.8647 47.7489L64.8022 32.2801C65.4573 31.9527 65.8711 31.2832 65.8711 30.5507C65.8711 29.8183 65.4573 29.1487 64.8022 28.8213L53.9086 23.3745C53.7808 23.824 53.5975 24.2651 53.3536 24.6877L49.4863 31.386C48.4535 33.1751 46.5278 34.2868 44.4609 34.2868C44.4608 34.2868 44.4609 34.2868 44.4608 34.2868C43.8139 34.2868 43.1725 34.1776 42.5642 33.967C42.0503 36.6433 39.6911 38.6718 36.8672 38.6718H29.1328C26.3089 38.6718 23.9498 36.6433 23.4359 33.967C22.8276 34.1778 22.1862 34.2868 21.5392 34.2868C19.4722 34.2868 17.5465 33.1753 16.5135 31.3858L12.6465 24.6881C12.4046 24.2694 12.2184 23.829 12.0886 23.3761L1.1978 28.8213C0.542695 29.1487 0.128906 29.8183 0.128906 30.5507C0.128906 31.2832 0.542695 31.9527 1.1978 32.2801Z" fill="white"/>
</g>
<defs>
<clipPath id="clip0_114_265">
<rect width="66" height="66" fill="white"/>
</clipPath>
</defs>
</svg>
