<svg width="29" height="30" viewBox="0 0 29 30" fill="none" xmlns="http://www.w3.org/2000/svg">
<g clip-path="url(#clip0_12_30)">
<path d="M24.8013 0.967285H4.66075C2.57513 0.967285 0.884399 2.68821 0.884399 4.81107V25.3113C0.884399 27.4341 2.57513 29.155 4.66075 29.155H24.8013C26.8869 29.155 28.5776 27.4341 28.5776 25.3113V4.81107C28.5776 2.68821 26.8869 0.967285 24.8013 0.967285Z" fill="#0077B5"/>
<path d="M10.8602 8.65481C10.8602 9.12995 10.7218 9.59442 10.4624 9.98949C10.2031 10.3846 9.83448 10.6925 9.40321 10.8743C8.97193 11.0561 8.49737 11.1037 8.03953 11.011C7.5817 10.9183 7.16115 10.6895 6.83106 10.3535C6.50098 10.0176 6.27619 9.5895 6.18512 9.12349C6.09405 8.65747 6.14079 8.17444 6.31943 7.73546C6.49807 7.29649 6.80059 6.92129 7.18872 6.65731C7.57686 6.39334 8.03318 6.25244 8.49999 6.25244C9.12596 6.25244 9.72629 6.50555 10.1689 6.95608C10.6115 7.40661 10.8602 8.01766 10.8602 8.65481Z" fill="white"/>
<path d="M10.3252 12.6588V23.2724C10.3256 23.3507 10.3108 23.4283 10.2817 23.5008C10.2525 23.5733 10.2096 23.6391 10.1554 23.6947C10.1011 23.7502 10.0366 23.7942 9.96559 23.8243C9.89456 23.8543 9.81839 23.8698 9.74146 23.8698H7.25379C7.17687 23.87 7.10066 23.8548 7.02955 23.8249C6.95844 23.795 6.89383 23.7512 6.83944 23.6958C6.78504 23.6404 6.74193 23.5747 6.71259 23.5023C6.68325 23.4299 6.66825 23.3523 6.66846 23.274V12.6588C6.66846 12.5008 6.73013 12.3492 6.8399 12.2375C6.94967 12.1258 7.09855 12.063 7.25379 12.063H9.74146C9.89643 12.0634 10.0449 12.1264 10.1543 12.2381C10.2638 12.3497 10.3252 12.501 10.3252 12.6588Z" fill="white"/>
<path d="M23.3285 18.1841V23.322C23.3287 23.394 23.3149 23.4653 23.2879 23.5318C23.2609 23.5984 23.2213 23.6589 23.1713 23.7098C23.1213 23.7607 23.0619 23.801 22.9965 23.8285C22.9311 23.8559 22.8611 23.8699 22.7903 23.8697H20.1154C20.0447 23.8699 19.9746 23.8559 19.9092 23.8285C19.8439 23.801 19.7844 23.7607 19.7344 23.7098C19.6844 23.6589 19.6448 23.5984 19.6178 23.5318C19.5909 23.4653 19.5771 23.394 19.5773 23.322V18.3427C19.5773 17.5995 19.7913 15.0883 17.6687 15.0883C16.0244 15.0883 15.6892 16.8068 15.6231 17.5787V23.322C15.6231 23.4659 15.5675 23.604 15.4683 23.7065C15.3691 23.809 15.2342 23.8676 15.0929 23.8697H12.5092C12.4386 23.8697 12.3687 23.8555 12.3035 23.828C12.2383 23.8004 12.1791 23.7601 12.1293 23.7092C12.0794 23.6583 12.0399 23.5979 12.013 23.5315C11.9862 23.465 11.9725 23.3938 11.9727 23.322V12.6122C11.9725 12.5404 11.9862 12.4692 12.013 12.4027C12.0399 12.3363 12.0794 12.2759 12.1293 12.225C12.1791 12.1741 12.2383 12.1338 12.3035 12.1062C12.3687 12.0787 12.4386 12.0645 12.5092 12.0645H15.0929C15.2356 12.0645 15.3725 12.1222 15.4734 12.2249C15.5743 12.3276 15.631 12.467 15.631 12.6122V13.5379C16.2415 12.6058 17.1463 11.8867 19.0769 11.8867C23.3536 11.8867 23.3285 15.9515 23.3285 18.1841Z" fill="white"/>
</g>
<defs>
<clipPath id="clip0_12_30">
<rect width="27.6932" height="28.1878" fill="white" transform="translate(0.884399 0.967285)"/>
</clipPath>
</defs>
</svg>
