<svg width="157" height="59" viewBox="0 0 157 59" fill="none" xmlns="http://www.w3.org/2000/svg">
<path d="M60.1243 2.22678C60.1243 2.22678 35.0381 -6.82762 21.0746 11.5794C15.9616 18.2479 12.3892 30.0572 12.3892 30.0572C12.3892 30.0572 17.1095 25.633 28.2923 26.9569C46.0514 29.0595 60.6521 20.4664 60.1243 2.22678Z" fill="url(#paint0_linear_1_17)"/>
<path d="M0.0134344 54.9633C0.0134344 54.9633 25.0997 64.0177 39.0632 45.6085C44.1761 38.94 47.7486 27.1328 47.7486 27.1328C47.7486 27.1328 43.0283 31.5549 31.8454 30.2332C14.095 28.1305 -0.505799 36.7236 0.0134344 54.9633Z" fill="url(#paint1_linear_1_17)"/>
<path d="M70.0069 30.7524C67.7984 30.7524 65.9117 30.4163 64.3469 29.744C62.782 29.0717 61.6377 28.0704 60.9139 26.7402C60.1887 25.4085 59.9784 23.7492 60.2831 21.7624H66.2243C66.1105 22.4864 66.2269 23.2278 66.5568 23.8822C66.8862 24.468 67.4009 24.9277 68.0201 25.1889C68.7806 25.5058 69.5996 25.6579 70.4232 25.6352C71.209 25.649 71.9913 25.5278 72.7361 25.2769C73.3437 25.0724 73.8974 24.7336 74.3561 24.2856C74.7597 23.8902 75.0221 23.373 75.1027 22.8137C75.1555 22.5951 75.1626 22.3678 75.1235 22.1463C75.0843 21.9248 74.9998 21.7137 74.8753 21.5264C74.5492 21.1144 74.124 20.7918 73.6394 20.5887C72.9071 20.2642 72.1416 20.0203 71.3565 19.8614L68.7067 19.2392C66.4968 18.7371 64.8346 17.8874 63.7204 16.6902C62.6061 15.493 62.2127 13.9038 62.5403 11.9227C62.786 10.3749 63.45 8.92374 64.4606 7.72592C65.5161 6.49543 66.8495 5.53413 68.3505 4.92163C70.0429 4.22866 71.8581 3.88563 73.6866 3.91321C75.7192 3.91321 77.4572 4.25507 78.9004 4.9388C80.3437 5.62253 81.4036 6.58089 82.0802 7.81389C82.7582 9.04546 82.9728 10.4909 82.7239 12.1501H76.8063C76.8879 11.1574 76.6247 10.3893 76.0167 9.84577C75.4088 9.30222 74.4791 9.03044 73.2275 9.03044C72.4982 9.01538 71.7719 9.12868 71.0819 9.36515C70.531 9.55021 70.0328 9.86519 69.6293 10.2835C69.2766 10.6529 69.044 11.1203 68.962 11.6245C68.9097 11.8482 68.9036 12.0803 68.9442 12.3065C68.9848 12.5326 69.0712 12.7481 69.1981 12.9397C69.5042 13.3461 69.913 13.6638 70.3824 13.8602C71.0242 14.1464 71.6935 14.3664 72.38 14.5167L74.5706 15.0252C75.6992 15.2638 76.796 15.6339 77.8383 16.1281C78.6901 16.5285 79.4576 17.0878 80.0998 17.7759C80.672 18.4095 81.0808 19.1733 81.2906 20.0008C81.5082 20.9325 81.5287 21.8994 81.3507 22.8395C81.1226 24.3966 80.4817 25.8642 79.4947 27.0899C78.4695 28.3155 77.1441 29.2544 75.6477 29.8148C74.0614 30.4399 72.1811 30.7524 70.0069 30.7524Z" fill="url(#paint2_linear_1_17)"/>
<path d="M97.0264 19.8314L102.478 30.7524H95.4322L91.892 23.3823L90.3557 24.9186L89.3881 30.7524H83.2881L87.6158 4.63843H93.7179L91.4457 18.3595H91.6838L98.4339 11.4056H105.386L97.0264 19.8314Z" fill="url(#paint3_linear_1_17)"/>
<path d="M104.388 30.7524L107.606 11.4056H113.704L110.499 30.7524H104.388ZM110.994 9.21498C110.6 9.23321 110.206 9.16595 109.84 9.01782C109.474 8.86968 109.145 8.64417 108.874 8.35675C108.616 8.07851 108.429 7.7421 108.328 7.37605C108.228 7.01001 108.217 6.62513 108.297 6.25406C108.428 5.40889 108.884 4.64826 109.567 4.13422C110.246 3.57593 111.098 3.27235 111.977 3.27599C112.877 3.27599 113.592 3.56207 114.122 4.13422C114.381 4.41556 114.569 4.75486 114.67 5.12369C114.771 5.49253 114.782 5.88014 114.702 6.25406C114.55 7.08857 114.09 7.83577 113.414 8.34816C112.736 8.91468 111.878 9.22186 110.994 9.21498Z" fill="url(#paint4_linear_1_17)"/>
<path d="M124.805 4.64272L120.476 30.7524H114.378L118.699 4.64272H124.805Z" fill="url(#paint5_linear_1_17)"/>
<path d="M134.791 4.64272L130.465 30.7524H124.365L128.695 4.64272H134.791Z" fill="url(#paint6_linear_1_17)"/>
<path d="M78.9433 37.6355C78.524 36.531 77.7223 35.6136 76.684 35.05C75.5898 34.4235 74.1315 34.111 72.3092 34.1124H64.0744L60.1458 57.8062H63.1282L64.6537 48.5801H69.9061C70.0863 48.5801 70.2644 48.5801 70.4382 48.5801L73.8711 57.8062H77.2569L73.5536 48.0631C73.8957 47.9593 74.2299 47.8309 74.5534 47.679C75.798 47.1234 76.8752 46.2512 77.6774 45.1493C78.4748 44.0345 79.0029 42.75 79.2201 41.3967C79.4347 39.987 79.3553 38.7426 78.9433 37.6355ZM76.242 41.3645C76.1137 42.2311 75.7918 43.0576 75.3001 43.7826C74.8077 44.4848 74.1283 45.0348 73.339 45.3703C72.3623 45.7696 71.3127 45.9596 70.258 45.9282H65.1086L66.6276 36.7365H71.7642C73.5436 36.7365 74.7973 37.1413 75.5254 37.9509C76.2535 38.7605 76.4923 39.8984 76.242 41.3645Z" fill="url(#paint7_linear_1_17)"/>
<path d="M86.7297 58.1752C85.2549 58.1752 84.0169 57.799 83.0157 57.0466C81.9826 56.2465 81.2421 55.1281 80.9087 53.8647C80.5053 52.4973 80.4574 50.8909 80.7649 49.0457C81.0197 47.3457 81.6152 45.7146 82.5157 44.2503C83.3057 42.9625 84.3932 41.8831 85.6869 41.1028C86.9219 40.3648 88.3356 39.9796 89.7743 39.9892C90.8242 39.9892 91.6588 40.1587 92.2782 40.4977C92.8387 40.7859 93.3254 41.1992 93.7007 41.7057C93.9956 42.1129 94.2466 42.5501 94.4495 43.0102H94.6405L95.0846 40.2424H97.9168L95.0052 57.7997H92.2546L92.6987 55.0963H92.4284C92.0562 55.5711 91.6496 56.0179 91.2118 56.433C90.6718 56.9405 90.0511 57.3545 89.3752 57.6581C88.5416 58.0212 87.6386 58.1977 86.7297 58.1752ZM87.6051 55.6456C88.62 55.662 89.6157 55.3678 90.4587 54.8023C91.3294 54.2023 92.0456 53.4045 92.5485 52.4744C93.1302 51.4062 93.5202 50.2443 93.7007 49.0414C93.9274 47.9127 93.9274 46.7501 93.7007 45.6214C93.5245 44.7362 93.0569 43.9355 92.3726 43.347C91.7146 42.8064 90.8506 42.536 89.7807 42.536C88.7456 42.5204 87.7302 42.8197 86.8691 43.3942C85.9977 43.9877 85.2805 44.7807 84.7772 45.7072C84.2098 46.7475 83.8252 47.8775 83.64 49.0479C83.4362 50.1741 83.4471 51.3286 83.6722 52.4508C83.8435 53.3621 84.3102 54.1916 85.0003 54.8109C85.6597 55.3688 86.5301 55.647 87.6115 55.6456H87.6051Z" fill="url(#paint8_linear_1_17)"/>
<path d="M108.126 58.1752C107.066 58.1752 106.215 58.0057 105.572 57.6667C104.984 57.3748 104.471 56.9529 104.07 56.433C103.752 56.0003 103.477 55.5367 103.251 55.0491H103.036L102.56 57.7998H99.8178L103.746 34.1038H106.579L105.098 42.9952H105.289C105.645 42.5355 106.03 42.0997 106.443 41.6906C106.949 41.1918 107.538 40.7852 108.183 40.4891C108.996 40.1375 109.876 39.9697 110.76 39.9978C111.939 39.9675 113.104 40.2646 114.125 40.856C115.078 41.4349 115.842 42.2808 116.32 43.2891C116.861 44.4644 117.124 45.7484 117.09 47.0418C117.09 48.4115 116.883 49.7734 116.478 51.0819C116.091 52.3659 115.494 53.5772 114.712 54.6672C113.969 55.711 113.009 56.5819 111.897 57.2204C110.747 57.868 109.445 58.1976 108.126 58.1752ZM107.756 55.6456C108.741 55.6659 109.709 55.4006 110.546 54.8817C111.361 54.3631 112.055 53.6744 112.58 52.8627C113.135 52.0166 113.555 51.0894 113.826 50.1142C114.105 49.1445 114.25 48.141 114.255 47.1319C114.255 45.7444 113.926 44.6315 113.268 43.7933C112.611 42.9551 111.619 42.536 110.295 42.536C109.313 42.5175 108.346 42.7771 107.505 43.2848C106.694 43.7896 106.004 44.4682 105.486 45.2716C104.938 46.1173 104.525 47.0431 104.261 48.0158C103.99 48.9942 103.852 50.0045 103.849 51.0197C103.849 52.4315 104.18 53.5558 104.843 54.3925C105.505 55.2293 106.476 55.647 107.756 55.6456Z" fill="url(#paint9_linear_1_17)"/>
<path d="M127.734 58.1752C126.674 58.1752 125.823 58.0057 125.181 57.6667C124.593 57.3748 124.079 56.9529 123.679 56.433C123.354 56.0042 123.075 55.5434 122.844 55.0577H122.63L122.151 57.8083H119.416L123.344 34.1124H126.176L124.707 43.0037H124.898C125.255 42.5451 125.64 42.1094 126.052 41.6992C126.558 41.2008 127.147 40.7943 127.792 40.4977C128.608 40.141 129.494 39.9702 130.384 39.9978C131.563 39.9675 132.728 40.2646 133.748 40.856C134.702 41.4349 135.465 42.2808 135.943 43.2891C136.485 44.4642 136.749 45.7482 136.715 47.0417C136.715 48.4116 136.508 49.7735 136.102 51.0819C135.715 52.3662 135.118 53.5777 134.336 54.6672C133.593 55.7104 132.633 56.5812 131.523 57.2204C130.368 57.8703 129.06 58.1999 127.734 58.1752ZM127.369 55.6456C128.353 55.666 129.322 55.4007 130.159 54.8817C130.974 54.3631 131.668 53.6744 132.193 52.8627C132.746 52.0163 133.165 51.0891 133.435 50.1142C133.714 49.1445 133.858 48.141 133.864 47.1319C133.864 45.7444 133.535 44.6315 132.877 43.7933C132.219 42.9551 131.228 42.536 129.903 42.536C128.918 42.5155 127.947 42.7752 127.103 43.2848C126.292 43.7896 125.602 44.4682 125.084 45.2716C124.533 46.1133 124.116 47.0354 123.848 48.0051C123.577 48.9835 123.439 49.9938 123.436 51.0089C123.436 52.4207 123.768 53.545 124.43 54.3818C125.092 55.2186 126.072 55.6399 127.369 55.6456Z" fill="url(#paint10_linear_1_17)"/>
<path d="M139.041 57.8083L141.951 40.2445H144.783L141.871 57.8083H139.041ZM143.86 37.2621C143.618 37.2718 143.376 37.2266 143.153 37.13C142.93 37.0335 142.732 36.888 142.573 36.7043C142.414 36.5247 142.299 36.3107 142.237 36.0791C142.175 35.8476 142.167 35.6048 142.215 35.3697C142.305 34.8434 142.589 34.3698 143.011 34.0416C143.422 33.6877 143.946 33.4929 144.489 33.4924C144.731 33.4832 144.972 33.5277 145.194 33.6227C145.417 33.7176 145.616 33.8607 145.776 34.0416C145.936 34.2196 146.051 34.4324 146.113 34.6631C146.176 34.8937 146.183 35.1358 146.135 35.3697C146.044 35.8994 145.757 36.3756 145.332 36.7043C144.923 37.0585 144.402 37.2562 143.86 37.2621Z" fill="url(#paint11_linear_1_17)"/>
<path d="M150.986 53.3326C150.844 54.1115 150.913 54.6629 151.177 54.9998C151.441 55.3366 151.934 55.4997 152.653 55.4997C152.898 55.4965 153.142 55.4801 153.385 55.4503C153.674 55.4203 153.932 55.3881 154.168 55.3559L154.232 57.7397C153.906 57.8204 153.576 57.8813 153.243 57.9221C152.873 57.9706 152.5 57.9956 152.127 57.9971C150.604 57.9971 149.495 57.6067 148.804 56.8342C148.113 56.0618 147.885 54.9676 148.106 53.5579L149.915 42.6798H147.169L147.564 40.2445H150.319L151.035 35.9533H153.848L153.138 40.2445H156.723L156.328 42.6648H152.739L150.986 53.3326Z" fill="url(#paint12_linear_1_17)"/>
<defs>
<linearGradient id="paint0_linear_1_17" x1="12.3935" y1="15.0274" x2="60.1458" y2="15.0274" gradientUnits="userSpaceOnUse">
<stop stop-color="#B37ADE"/>
<stop offset="1" stop-color="#0D81FE"/>
</linearGradient>
<linearGradient id="paint1_linear_1_17" x1="0.000560856" y1="42.1605" x2="47.7529" y2="42.1605" gradientUnits="userSpaceOnUse">
<stop stop-color="#B37ADE"/>
<stop offset="1" stop-color="#0D81FE"/>
</linearGradient>
<linearGradient id="paint2_linear_1_17" x1="46.1587" y1="32.5204" x2="153.312" y2="-30.2596" gradientUnits="userSpaceOnUse">
<stop stop-color="#B37ADE"/>
<stop offset="1" stop-color="#0D81FE"/>
</linearGradient>
<linearGradient id="paint3_linear_1_17" x1="52.1857" y1="42.8064" x2="159.339" y2="-19.9715" gradientUnits="userSpaceOnUse">
<stop stop-color="#B37ADE"/>
<stop offset="1" stop-color="#0D81FE"/>
</linearGradient>
<linearGradient id="paint4_linear_1_17" x1="55.8932" y1="49.1337" x2="163.044" y2="-13.6441" gradientUnits="userSpaceOnUse">
<stop stop-color="#B37ADE"/>
<stop offset="1" stop-color="#0D81FE"/>
</linearGradient>
<linearGradient id="paint5_linear_1_17" x1="58.4593" y1="53.515" x2="165.61" y2="-9.26507" gradientUnits="userSpaceOnUse">
<stop stop-color="#B37ADE"/>
<stop offset="1" stop-color="#0D81FE"/>
</linearGradient>
<linearGradient id="paint6_linear_1_17" x1="61.0104" y1="57.8706" x2="168.163" y2="-4.9095" gradientUnits="userSpaceOnUse">
<stop stop-color="#B37ADE"/>
<stop offset="1" stop-color="#0D81FE"/>
</linearGradient>
<linearGradient id="paint7_linear_1_17" x1="58.2834" y1="53.2146" x2="165.434" y2="-9.56539" gradientUnits="userSpaceOnUse">
<stop stop-color="#B37ADE"/>
<stop offset="1" stop-color="#0D81FE"/>
</linearGradient>
<linearGradient id="paint8_linear_1_17" x1="64.8382" y1="64.4039" x2="171.991" y2="1.62387" gradientUnits="userSpaceOnUse">
<stop stop-color="#B37ADE"/>
<stop offset="1" stop-color="#0D81FE"/>
</linearGradient>
<linearGradient id="paint9_linear_1_17" x1="67.6511" y1="69.2014" x2="174.802" y2="6.42142" gradientUnits="userSpaceOnUse">
<stop stop-color="#B37ADE"/>
<stop offset="1" stop-color="#0D81FE"/>
</linearGradient>
<linearGradient id="paint10_linear_1_17" x1="72.661" y1="77.7538" x2="179.812" y2="14.976" gradientUnits="userSpaceOnUse">
<stop stop-color="#B37ADE"/>
<stop offset="1" stop-color="#0D81FE"/>
</linearGradient>
<linearGradient id="paint11_linear_1_17" x1="76.6025" y1="84.4823" x2="183.753" y2="21.7023" gradientUnits="userSpaceOnUse">
<stop stop-color="#B37ADE"/>
<stop offset="1" stop-color="#0D81FE"/>
</linearGradient>
<linearGradient id="paint12_linear_1_17" x1="79.6127" y1="89.6189" x2="186.764" y2="26.8389" gradientUnits="userSpaceOnUse">
<stop stop-color="#B37ADE"/>
<stop offset="1" stop-color="#0D81FE"/>
</linearGradient>
</defs>
</svg>
