<svg width="1440" height="848" viewBox="0 0 1440 848" fill="none" xmlns="http://www.w3.org/2000/svg">
<g opacity="0.07">
<mask id="mask0_1402_37" style="mask-type:luminance" maskUnits="userSpaceOnUse" x="0" y="0" width="1440" height="848">
<path d="M1440 0H0V847.772H1440V0Z" fill="white"/>
</mask>
<g mask="url(#mask0_1402_37)">
<path d="M1549.14 958.902H-109.137V-111.13H1549.13L1549.14 958.902ZM-106.993 956.694H1546.99V-108.922H-106.993V956.694Z" fill="#B3B3B3"/>
<path d="M1548.06 796.52H-108.064V798.727H1548.06V796.52Z" fill="#B3B3B3"/>
<path d="M1548.06 743.128H-108.064V745.336H1548.06V743.128Z" fill="#B3B3B3"/>
<path d="M1548.06 689.737H-108.064V691.945H1548.06V689.737Z" fill="#B3B3B3"/>
<path d="M1548.06 636.346H-108.064V638.553H1548.06V636.346Z" fill="#B3B3B3"/>
<path d="M1548.06 582.955H-108.064V585.163H1548.06V582.955Z" fill="#B3B3B3"/>
<path d="M1548.06 529.564H-108.064V531.772H1548.06V529.564Z" fill="#B3B3B3"/>
<path d="M1548.06 476.173H-108.064V478.381H1548.06V476.173Z" fill="#B3B3B3"/>
<path d="M1548.06 422.782H-108.064V424.99H1548.06V422.782Z" fill="#B3B3B3"/>
<path d="M1548.06 369.391H-108.064V371.598H1548.06V369.391Z" fill="#B3B3B3"/>
<path d="M1548.06 315.999H-108.064V318.207H1548.06V315.999Z" fill="#B3B3B3"/>
<path d="M1548.06 262.607H-108.064V264.815H1548.06V262.607Z" fill="#B3B3B3"/>
<path d="M1548.06 209.217H-108.064V211.425H1548.06V209.217Z" fill="#B3B3B3"/>
<path d="M1548.06 155.826H-108.064V158.034H1548.06V155.826Z" fill="#B3B3B3"/>
<path d="M1548.06 102.435H-108.064V104.642H1548.06V102.435Z" fill="#B3B3B3"/>
<path d="M1548.06 49.043H-108.064V51.2507H1548.06V49.043Z" fill="#B3B3B3"/>
<path d="M1398.58 -110.026H1396.43V957.797H1398.58V-110.026Z" fill="#B3B3B3"/>
<path d="M1348.39 -110.026H1346.25V957.797H1348.39V-110.026Z" fill="#B3B3B3"/>
<path d="M1298.21 -110.026H1296.06V957.797H1298.21V-110.026Z" fill="#B3B3B3"/>
<path d="M1248.02 -110.026H1245.88V957.797H1248.02V-110.026Z" fill="#B3B3B3"/>
<path d="M1197.83 -110.026H1195.69V957.797H1197.83V-110.026Z" fill="#B3B3B3"/>
<path d="M1147.65 -110.026H1145.51V957.797H1147.65V-110.026Z" fill="#B3B3B3"/>
<path d="M1097.46 -110.026H1095.32V957.797H1097.46V-110.026Z" fill="#B3B3B3"/>
<path d="M1047.28 -110.026H1045.14V957.797H1047.28V-110.026Z" fill="#B3B3B3"/>
<path d="M997.092 -110.026H994.949V957.797H997.092V-110.026Z" fill="#B3B3B3"/>
<path d="M946.905 -110.026H944.762V957.797H946.905V-110.026Z" fill="#B3B3B3"/>
<path d="M896.721 -110.026H894.578V957.797H896.721V-110.026Z" fill="#B3B3B3"/>
<path d="M846.534 -110.026H844.391V957.797H846.534V-110.026Z" fill="#B3B3B3"/>
<path d="M796.35 -110.026H794.207V957.797H796.35V-110.026Z" fill="#B3B3B3"/>
<path d="M746.162 -110.026H744.02V957.797H746.162V-110.026Z" fill="#B3B3B3"/>
<path d="M695.979 -110.026H693.836V957.797H695.979V-110.026Z" fill="#B3B3B3"/>
<path d="M645.791 -110.026H643.648V957.797H645.791V-110.026Z" fill="#B3B3B3"/>
<path d="M595.608 -110.026H593.465V957.797H595.608V-110.026Z" fill="#B3B3B3"/>
<path d="M545.42 -110.026H543.277V957.797H545.42V-110.026Z" fill="#B3B3B3"/>
<path d="M495.233 -110.026H493.09V957.797H495.233V-110.026Z" fill="#B3B3B3"/>
<path d="M445.049 -110.026H442.906V957.797H445.049V-110.026Z" fill="#B3B3B3"/>
<path d="M394.862 -110.026H392.719V957.797H394.862V-110.026Z" fill="#B3B3B3"/>
<path d="M344.678 -110.026H342.535V957.797H344.678V-110.026Z" fill="#B3B3B3"/>
<path d="M294.491 -110.026H292.348V957.797H294.491V-110.026Z" fill="#B3B3B3"/>
<path d="M244.307 -110.026H242.164V957.797H244.307V-110.026Z" fill="#B3B3B3"/>
<path d="M194.119 -110.026H191.977V957.797H194.119V-110.026Z" fill="#B3B3B3"/>
<path d="M143.936 -110.026H141.793V957.797H143.936V-110.026Z" fill="#B3B3B3"/>
<path d="M93.7483 -110.026H91.6055V957.797H93.7483V-110.026Z" fill="#B3B3B3"/>
<path d="M43.5628 -110.026H41.4199V957.797H43.5628V-110.026Z" fill="#B3B3B3"/>
</g>
</g>
</svg>
