<svg width="72" height="72" viewBox="0 0 72 72" fill="none" xmlns="http://www.w3.org/2000/svg">
<path fill-rule="evenodd" clip-rule="evenodd" d="M36.2423 24.0303C45.9101 24.0303 46.1482 29.706 46.1482 36.7044C46.1482 43.7068 41.7127 49.3826 36.2423 49.3826C30.7677 49.3826 26.3322 43.7068 26.3322 36.7044C26.3323 29.706 26.5704 24.0303 36.2423 24.0303Z" fill="#FFBFA8"/>
<path fill-rule="evenodd" clip-rule="evenodd" d="M36.2423 24.0303C36.6283 24.0303 37.0021 24.0384 37.3635 24.059C28.8005 24.4901 28.5786 29.9853 28.5786 36.7042C28.5786 43.2219 32.4187 48.5856 37.3635 49.3003C36.9939 49.3537 36.6201 49.3824 36.2423 49.3824C30.7677 49.3824 26.3322 43.7067 26.3322 36.7042C26.3323 29.706 26.5704 24.0303 36.2423 24.0303Z" fill="#FCAC8F"/>
<path fill-rule="evenodd" clip-rule="evenodd" d="M28.8621 51.473H43.6183C49.8937 51.473 55.0316 57.0215 55.0316 63.8063V71.9297H17.4489V63.8063C17.4489 57.0215 22.5866 51.473 28.8621 51.473Z" fill="#FF656F"/>
<path fill-rule="evenodd" clip-rule="evenodd" d="M20.5619 71.9296H17.4489V63.8062C17.4489 57.4157 22.0076 52.1177 27.7861 51.5264C23.5683 53.5017 20.5619 58.3522 20.5619 63.9909V71.9296Z" fill="#FF4756"/>
<path fill-rule="evenodd" clip-rule="evenodd" d="M36.2423 24.0303C45.9101 24.0303 46.1482 29.706 46.1482 36.7044V36.7948C44.7436 37.3493 43.2076 37.6532 41.6059 37.6532C37.1745 37.6532 33.2893 35.3286 31.1003 31.8337C29.9708 33.805 28.3199 35.4355 26.3322 36.5362C26.3364 29.6158 26.6484 24.0303 36.2423 24.0303Z" fill="#4D5080"/>
<path fill-rule="evenodd" clip-rule="evenodd" d="M28.5869 34.9342C27.9011 35.5462 27.1454 36.0883 26.3323 36.5359C26.3364 30.1866 26.6034 24.9625 34.0492 24.1411C29.7656 26.7368 28.476 30.5521 28.5869 34.9342Z" fill="#434675"/>
<path fill-rule="evenodd" clip-rule="evenodd" d="M21.0466 45.7725H51.434V63.5884H21.0466V45.7725Z" fill="#4D5080"/>
<path fill-rule="evenodd" clip-rule="evenodd" d="M33.1128 61.1531H39.3677V68.8249H33.1128V61.1531Z" fill="#434675"/>
<path fill-rule="evenodd" clip-rule="evenodd" d="M33.1128 61.1531H35.1909V68.8249H33.1128V61.1531Z" fill="#3A3D6B"/>
<path fill-rule="evenodd" clip-rule="evenodd" d="M14.3851 67.3257H58.0954V71.9296H14.3851V67.3257Z" fill="#4D5080"/>
<path fill-rule="evenodd" clip-rule="evenodd" d="M38.7394 2.21414C39.1664 2.35378 39.5854 2.52633 39.9797 2.73164L41.6554 1.67203C42.8176 2.43183 43.8116 3.42577 44.5714 4.58803L43.5118 6.26372C43.7171 6.65803 43.8896 7.07273 44.0293 7.50403L45.9595 7.94348C46.0991 8.60878 46.1731 9.29461 46.1731 10.0011C46.1731 10.7075 46.0991 11.3975 45.9595 12.0628L44.0293 12.4982C43.8896 12.9293 43.7171 13.3483 43.5118 13.7426L44.5714 15.4183C43.8116 16.5805 42.8176 17.5745 41.6554 18.33L39.9797 17.2744C39.5854 17.4797 39.1664 17.6522 38.7394 17.7919L38.2999 19.7221C37.6346 19.8617 36.9486 19.9357 36.2423 19.9357C35.5359 19.9357 34.8459 19.8617 34.1806 19.7221L33.7452 17.7919C33.3141 17.6522 32.8951 17.4797 32.5008 17.2744L30.8253 18.3299C29.663 17.5742 28.6691 16.5804 27.9135 15.4181L28.969 13.7424C28.7637 13.3481 28.5912 12.9292 28.4515 12.498L26.5212 12.0627C26.3815 11.3974 26.3076 10.7073 26.3076 10.001C26.3076 9.29461 26.3815 8.60878 26.5212 7.94334L28.4515 7.50389C28.5912 7.07273 28.7637 6.65789 28.969 6.26358L27.9135 4.58789C28.6692 3.42562 29.663 2.43169 30.8253 1.67189L32.5008 2.7315C32.8951 2.52619 33.3141 2.35364 33.7452 2.214L34.1806 0.283781C34.846 0.144141 35.5359 0.0703125 36.2423 0.0703125C36.9486 0.0703125 37.6345 0.144141 38.2999 0.283922L38.7394 2.21414Z" fill="#FF656F"/>
<path fill-rule="evenodd" clip-rule="evenodd" d="M69.4347 25.3445V41.9654H53.0356V22.8762H66.9665L69.4347 25.3445Z" fill="#3BBDF3"/>
<path fill-rule="evenodd" clip-rule="evenodd" d="M53.0356 22.8762H54.6824V41.9654H53.0356V22.8762Z" fill="#2EB0E8"/>
<path d="M59.3974 36.5812C59.3835 36.5812 59.3695 36.5809 59.3555 36.5803C59.0128 36.5679 58.6933 36.4043 58.483 36.1336L56.2076 33.2053C55.8152 32.7003 55.9064 31.9726 56.4115 31.5801C56.9167 31.1879 57.6443 31.2789 58.0367 31.7842L59.4627 33.6193L64.4917 28.032C64.9196 27.5563 65.652 27.5182 66.1273 27.9459C66.6028 28.3739 66.6413 29.1061 66.2134 29.5816L60.2583 36.1978C60.0381 36.4422 59.7251 36.5812 59.3974 36.5812Z" fill="#EEF7FF"/>
<path fill-rule="evenodd" clip-rule="evenodd" d="M21.0466 45.7725H23.3835V63.5884H21.0466V45.7725Z" fill="#434675"/>
<path fill-rule="evenodd" clip-rule="evenodd" d="M13.6089 41.0577V42.1214C13.6089 43.3288 12.5411 44.3187 11.235 44.3187C9.93306 44.3187 8.8653 43.329 8.8653 42.1214V41.0577H13.6089Z" fill="#B0CFED"/>
<path fill-rule="evenodd" clip-rule="evenodd" d="M15.5514 37.8872V40.2528C15.5514 40.877 15.0012 41.3864 14.3316 41.3864H8.14245C7.47307 41.3864 6.92267 40.8772 6.92267 40.2528V37.8872H15.5514Z" fill="#C5DCF2"/>
<path fill-rule="evenodd" clip-rule="evenodd" d="M9.14874 41.3862H8.14257C7.4732 41.3862 6.92279 40.877 6.92279 40.2527V37.8872H7.92896V40.2528C7.92896 40.877 8.47923 41.3862 9.14874 41.3862Z" fill="#B0CFED"/>
<path fill-rule="evenodd" clip-rule="evenodd" d="M11.2351 20.5229C16.0279 20.5229 19.909 24.3219 19.909 29.008C19.909 34.0678 16.5905 34.0514 16.5905 37.1644C16.5905 37.69 16.151 38.1213 15.6089 38.1213H6.86108C6.32305 38.1213 5.88359 37.69 5.88359 37.1644C5.88359 34.0514 2.56512 34.0678 2.56512 29.008C2.56527 24.3219 6.44637 20.5229 11.2351 20.5229Z" fill="#FDD835"/>
<path fill-rule="evenodd" clip-rule="evenodd" d="M11.2351 20.5229C11.4568 20.5229 11.6745 20.5311 11.8881 20.5476C7.40333 20.872 3.86717 24.5354 3.86717 29.0078C3.86717 34.0677 7.18972 34.0512 7.18972 37.1642C7.18972 37.6899 7.62917 38.1212 8.1672 38.1212H6.86108C6.32305 38.1212 5.88359 37.6899 5.88359 37.1642C5.88359 34.0512 2.56512 34.0677 2.56512 29.0078C2.56527 24.3219 6.44637 20.5229 11.2351 20.5229Z" fill="#FBC02D"/>
<path fill-rule="evenodd" clip-rule="evenodd" d="M38.5381 18.6706L38.2999 19.7221C37.6346 19.8617 36.9486 19.9357 36.2423 19.9357C35.5359 19.9357 34.8459 19.8617 34.1806 19.7221L33.7452 17.7919C33.3141 17.6522 32.8951 17.4797 32.5008 17.2744L30.8253 18.3299C29.663 17.5742 28.6691 16.5804 27.9135 15.4181L28.969 13.7424C28.7637 13.3481 28.5912 12.9292 28.4515 12.498L26.5212 12.0627C26.3815 11.3974 26.3076 10.7073 26.3076 10.001C26.3076 9.29461 26.3815 8.60878 26.5212 7.94334L28.4515 7.50389C28.5912 7.07273 28.7637 6.65789 28.969 6.26358L27.9135 4.58789C28.6692 3.42562 29.663 2.43169 30.8253 1.67189L32.5008 2.7315C32.8951 2.52619 33.3141 2.35364 33.7452 2.214L34.1806 0.283781C34.846 0.144141 35.5359 0.0703125 36.2423 0.0703125C36.9486 0.0703125 37.6345 0.144141 38.2999 0.283922L38.5381 1.33523C34.9158 2.54686 32.3038 5.97192 32.3038 10.001C32.3037 14.034 34.9158 17.4551 38.5381 18.6706Z" fill="#FC4654"/>
<path fill-rule="evenodd" clip-rule="evenodd" d="M36.2423 14.1366C38.5176 14.1366 40.3738 12.2802 40.3738 10.0009C40.3738 7.72577 38.5175 5.86938 36.2423 5.86938C33.9629 5.86938 32.1065 7.72577 32.1065 10.0009C32.1066 12.2802 33.9629 14.1366 36.2423 14.1366Z" fill="#E2F0FA"/>
<path fill-rule="evenodd" clip-rule="evenodd" d="M36.2423 5.86926C36.4435 5.86926 36.6448 5.88572 36.8378 5.9144C34.8377 6.20184 33.3018 7.92267 33.3018 10.0008C33.3018 12.0831 34.8379 13.8039 36.8378 14.0913C36.6448 14.12 36.4435 14.1365 36.2423 14.1365C33.9588 14.1365 32.1065 12.2843 32.1065 10.0008C32.1066 7.72157 33.9588 5.86926 36.2423 5.86926Z" fill="#D0E4F2"/>
</svg>
