<svg width="58" height="58" viewBox="0 0 58 58" fill="none" xmlns="http://www.w3.org/2000/svg">
<g clip-path="url(#clip0_120_621)">
<path d="M55.4038 47.1994H2.59609C1.6169 47.1994 0.82312 46.4057 0.82312 45.4265V10.554C0.82312 9.57479 1.6169 8.78101 2.59609 8.78101H55.404C56.3832 8.78101 57.1769 9.57479 57.1769 10.554V45.4265C57.1768 46.4057 56.383 47.1994 55.4038 47.1994Z" fill="#131C46"/>
<path d="M3.01001 10.968H54.9899V45.0127H3.01001V10.968Z" fill="white"/>
<path d="M25.4319 14.7483H51.2095V28.6003H25.4319V14.7483Z" fill="#E2D2F7"/>
<path d="M49.2824 21.2944C45.9408 24.8557 43.9863 21.0672 43.341 19.4189C43.0508 18.6777 42.5989 18.0049 42.0009 17.4759C39.6713 15.4157 37.772 17.4739 36.902 18.7651C36.654 19.1331 36.4472 19.527 36.2675 19.9329C35.7844 21.0241 33.8483 24.6221 30.2456 22.0101C27.8908 20.3029 26.6525 20.559 26.0253 21.0849C25.6375 21.4101 25.4319 21.9043 25.4319 22.4104V28.6H51.2095V19.5083C50.6698 19.9031 50.0483 20.4781 49.2824 21.2944Z" fill="#61CEAC"/>
<path d="M26.8773 20.9652C26.8773 20.879 26.8855 20.7936 26.8973 20.709C26.5227 20.7588 26.2386 20.9063 26.0253 21.0851C25.6375 21.4103 25.4319 21.9044 25.4319 22.4106V28.6002H51.2095V27.1548H31.6953C29.0343 27.1548 26.8773 24.9976 26.8773 22.3368V20.9652Z" fill="#52C1A1"/>
<path d="M51.2096 32.6338H25.4319C25.292 32.6338 25.1786 32.5204 25.1786 32.3805C25.1786 32.2406 25.292 32.1272 25.4319 32.1272H51.2096C51.3495 32.1272 51.4629 32.2406 51.4629 32.3805C51.4629 32.5204 51.3495 32.6338 51.2096 32.6338Z" fill="#E2D2F7"/>
<path d="M51.2096 37.0445H25.4319C25.292 37.0445 25.1786 36.9311 25.1786 36.7912C25.1786 36.6512 25.292 36.5378 25.4319 36.5378H51.2096C51.3495 36.5378 51.4629 36.6512 51.4629 36.7912C51.4629 36.9311 51.3495 37.0445 51.2096 37.0445Z" fill="#E2D2F7"/>
<path d="M21.5967 32.6338H6.86159C6.72167 32.6338 6.60828 32.5204 6.60828 32.3805C6.60828 32.2406 6.72167 32.1272 6.86159 32.1272H21.5966C21.7365 32.1272 21.8499 32.2406 21.8499 32.3805C21.8499 32.5204 21.7365 32.6338 21.5967 32.6338Z" fill="#E2D2F7"/>
<path d="M21.5967 37.0445H6.86159C6.72167 37.0445 6.60828 36.9311 6.60828 36.7912C6.60828 36.6512 6.72167 36.5378 6.86159 36.5378H21.5966C21.7365 36.5378 21.8499 36.6512 21.8499 36.7912C21.8499 36.9311 21.7365 37.0445 21.5967 37.0445Z" fill="#E2D2F7"/>
<path d="M51.2096 41.4539H25.4319C25.292 41.4539 25.1786 41.3405 25.1786 41.2006C25.1786 41.0607 25.292 40.9473 25.4319 40.9473H51.2096C51.3495 40.9473 51.4629 41.0607 51.4629 41.2006C51.4629 41.3405 51.3495 41.4539 51.2096 41.4539Z" fill="#E2D2F7"/>
<path d="M21.5967 41.4539H6.86159C6.72167 41.4539 6.60828 41.3405 6.60828 41.2006C6.60828 41.0607 6.72167 40.9473 6.86159 40.9473H21.5966C21.7365 40.9473 21.8499 41.0607 21.8499 41.2006C21.8499 41.3405 21.7365 41.4539 21.5967 41.4539Z" fill="#E2D2F7"/>
<path d="M21.5967 23.813H6.86159C6.72167 23.813 6.60828 23.6996 6.60828 23.5597C6.60828 23.4198 6.72167 23.3064 6.86159 23.3064H21.5966C21.7365 23.3064 21.8499 23.4198 21.8499 23.5597C21.8499 23.6996 21.7365 23.813 21.5967 23.813Z" fill="#E2D2F7"/>
<path d="M21.5967 28.2234H6.86159C6.72167 28.2234 6.60828 28.11 6.60828 27.9701C6.60828 27.8302 6.72167 27.7168 6.86159 27.7168H21.5966C21.7365 27.7168 21.8499 27.8302 21.8499 27.9701C21.8499 28.11 21.7365 28.2234 21.5967 28.2234Z" fill="#E2D2F7"/>
<path d="M21.5967 14.9922H6.86159C6.72167 14.9922 6.60828 14.8788 6.60828 14.7389C6.60828 14.599 6.72167 14.4856 6.86159 14.4856H21.5966C21.7365 14.4856 21.8499 14.599 21.8499 14.7389C21.8499 14.8788 21.7365 14.9922 21.5967 14.9922Z" fill="#E2D2F7"/>
<path d="M21.5967 19.4026H6.86159C6.72167 19.4026 6.60828 19.2892 6.60828 19.1493C6.60828 19.0094 6.72167 18.896 6.86159 18.896H21.5966C21.7365 18.896 21.8499 19.0094 21.8499 19.1493C21.8499 19.2892 21.7365 19.4026 21.5967 19.4026Z" fill="#E2D2F7"/>
<path d="M28.2655 39.3108H55.803V58.0001H28.2655V39.3108Z" fill="#F0E8F9"/>
<path d="M54.0513 43.3191H39.7836C39.6437 43.3191 39.5303 43.2057 39.5303 43.0658C39.5303 42.9259 39.6437 42.8125 39.7836 42.8125H54.0513C54.1913 42.8125 54.3047 42.9259 54.3047 43.0658C54.3047 43.2057 54.1911 43.3191 54.0513 43.3191Z" fill="#865ACC"/>
<path d="M54.0513 47.031H49.4208C49.2809 47.031 49.1675 46.9176 49.1675 46.7777C49.1675 46.6378 49.2809 46.5244 49.4208 46.5244H54.0513C54.1912 46.5244 54.3046 46.6378 54.3046 46.7777C54.3044 46.9176 54.1911 47.031 54.0513 47.031Z" fill="#FF33A8"/>
<path d="M46.9175 47.031H42.287C42.1471 47.031 42.0337 46.9176 42.0337 46.7777C42.0337 46.6378 42.1471 46.5244 42.287 46.5244H46.9175C47.0574 46.5244 47.1708 46.6378 47.1708 46.7777C47.1707 46.9176 47.0573 47.031 46.9175 47.031Z" fill="#FF33A8"/>
<path d="M39.5763 47.031H30.0172C29.8773 47.031 29.7639 46.9176 29.7639 46.7777C29.7639 46.6378 29.8773 46.5244 30.0172 46.5244H39.5763C39.7162 46.5244 39.8296 46.6378 39.8296 46.7777C39.8295 46.9176 39.7161 47.031 39.5763 47.031Z" fill="#865ACC"/>
<path d="M54.0513 50.7862H36.0285C35.8885 50.7862 35.7751 50.6728 35.7751 50.5329C35.7751 50.3929 35.8885 50.2795 36.0285 50.2795H54.0513C54.1913 50.2795 54.3047 50.3929 54.3047 50.5329C54.3045 50.6728 54.1911 50.7862 54.0513 50.7862Z" fill="#865ACC"/>
<path d="M33.3178 50.7862H30.0172C29.8773 50.7862 29.7639 50.6728 29.7639 50.5329C29.7639 50.3929 29.8773 50.2795 30.0172 50.2795H33.3178C33.4577 50.2795 33.5711 50.3929 33.5711 50.5329C33.571 50.6728 33.4576 50.7862 33.3178 50.7862Z" fill="#FF33A8"/>
<path d="M54.0513 54.4981H38.5318C38.3918 54.4981 38.2784 54.3847 38.2784 54.2448C38.2784 54.1049 38.3918 53.9915 38.5318 53.9915H54.0512C54.1911 53.9915 54.3045 54.1049 54.3045 54.2448C54.3045 54.3847 54.1911 54.4981 54.0513 54.4981Z" fill="#FF33A8"/>
<path d="M35.8212 54.4981H30.0172C29.8773 54.4981 29.7639 54.3847 29.7639 54.2448C29.7639 54.1049 29.8773 53.9915 30.0172 53.9915H35.8212C35.9611 53.9915 36.0745 54.1049 36.0745 54.2448C36.0745 54.3847 35.961 54.4981 35.8212 54.4981Z" fill="#865ACC"/>
<path d="M28.2655 34.304H55.803V39.3108H28.2655V34.304Z" fill="#865ACC"/>
<path d="M30.7853 37.8086C31.3383 37.8086 31.7867 37.3603 31.7867 36.8073C31.7867 36.2542 31.3383 35.8059 30.7853 35.8059C30.2323 35.8059 29.7839 36.2542 29.7839 36.8073C29.7839 37.3603 30.2323 37.8086 30.7853 37.8086Z" fill="white"/>
<path d="M34.5404 37.8086C35.0935 37.8086 35.5418 37.3603 35.5418 36.8073C35.5418 36.2542 35.0935 35.8059 34.5404 35.8059C33.9874 35.8059 33.5391 36.2542 33.5391 36.8073C33.5391 37.3603 33.9874 37.8086 34.5404 37.8086Z" fill="white"/>
<path d="M38.2954 37.8086C38.8485 37.8086 39.2968 37.3603 39.2968 36.8073C39.2968 36.2542 38.8485 35.8059 38.2954 35.8059C37.7424 35.8059 37.2941 36.2542 37.2941 36.8073C37.2941 37.3603 37.7424 37.8086 38.2954 37.8086Z" fill="white"/>
<path d="M32.3862 44.5635C32.3302 44.5635 32.274 44.545 32.2271 44.5071L30.8298 43.3772C30.7056 43.2819 30.7057 43.0787 30.8298 42.9834L32.2271 41.8535C32.3358 41.7655 32.4954 41.7824 32.5833 41.8912C32.6713 42 32.6543 42.1594 32.5456 42.2474L31.3919 43.1803L32.5456 44.1133C32.7326 44.2537 32.6153 44.5721 32.3862 44.5635Z" fill="#FF33A8"/>
<path d="M35.3962 44.5635C35.1672 44.5721 35.05 44.2536 35.2369 44.1132L36.3906 43.1803L35.2369 42.2473C35.1281 42.1594 35.1112 41.9999 35.1992 41.8911C35.2872 41.7823 35.4467 41.7656 35.5554 41.8534L36.9527 42.9833C37.0769 43.0786 37.0768 43.2819 36.9527 43.3772L35.5554 44.5071C35.5084 44.545 35.4521 44.5635 35.3962 44.5635Z" fill="#FF33A8"/>
<path d="M33.5982 44.5709C33.4392 44.5727 33.3146 44.4195 33.3504 44.2641L33.8423 41.9896C33.8719 41.8529 34.0069 41.7659 34.1433 41.7956C34.28 41.8251 34.3669 41.96 34.3373 42.0967L33.8454 44.3712C33.8199 44.4899 33.7149 44.5709 33.5982 44.5709Z" fill="#FF33A8"/>
<path d="M4.71631 4.55176H29.7504V19.3595H4.71631V4.55176Z" fill="#F0E8F9"/>
<path d="M4.71631 0H29.7504V4.55164H4.71631V0Z" fill="#F955AF"/>
<path d="M7.00696 3.18628C7.50969 3.18628 7.91724 2.77873 7.91724 2.276C7.91724 1.77327 7.50969 1.36572 7.00696 1.36572C6.50423 1.36572 6.09668 1.77327 6.09668 2.276C6.09668 2.77873 6.50423 3.18628 7.00696 3.18628Z" fill="white"/>
<path d="M10.4207 3.18628C10.9234 3.18628 11.3309 2.77873 11.3309 2.276C11.3309 1.77327 10.9234 1.36572 10.4207 1.36572C9.91792 1.36572 9.51038 1.77327 9.51038 2.276C9.51038 2.77873 9.91792 3.18628 10.4207 3.18628Z" fill="white"/>
<path d="M13.8345 3.18628C14.3372 3.18628 14.7447 2.77873 14.7447 2.276C14.7447 1.77327 14.3372 1.36572 13.8345 1.36572C13.3317 1.36572 12.9242 1.77327 12.9242 2.276C12.9242 2.77873 13.3317 3.18628 13.8345 3.18628Z" fill="white"/>
<path d="M24.8029 9.31616H27.4744V19.3595H24.8029V9.31616Z" fill="#FF8F33"/>
<path d="M25.816 9.31616H24.8029V19.3595H27.4744V18.3463H27.0823C26.383 18.3463 25.816 17.7793 25.816 17.08V9.31616Z" fill="#FF740D"/>
<path d="M20.3502 10.4541H23.0218V19.3595H20.3502V10.4541Z" fill="white"/>
<path d="M21.3634 10.4541H20.3502V19.3595H23.0218V18.3463H22.6297C21.9303 18.3463 21.3634 17.7793 21.3634 17.08V10.4541Z" fill="#E2D2F7"/>
<path d="M15.8976 13.8679H18.5692V19.3596H15.8976V13.8679Z" fill="#F955AF"/>
<path d="M16.9106 13.8679H15.8975V19.3596H18.5691V18.3464H18.1769C17.4776 18.3464 16.9106 17.7795 16.9106 17.0801V13.8679Z" fill="#EF009F"/>
<path d="M11.4448 8.17822H14.1164V19.3595H11.4448V8.17822Z" fill="#865ACC"/>
<path d="M12.4578 8.17822H11.4447V19.3595H14.1163V18.3463H13.7242C13.0248 18.3463 12.4578 17.7793 12.4578 17.08V8.17822Z" fill="#6A42BA"/>
<path d="M6.99207 12.73H9.66366V19.3596H6.99207V12.73Z" fill="#FFC31A"/>
<path d="M8.00521 12.73H6.99207V19.3596H9.66366V18.3464H9.27154C8.57219 18.3464 8.00521 17.7795 8.00521 17.0801V12.73Z" fill="#FFAF00"/>
<path d="M11.6016 40.6274L10.1768 39.3491C9.9507 39.1463 9.65785 39.0342 9.35422 39.0342H4.19903C3.11054 39.0342 2.22827 39.9166 2.22827 41.0049V50.5846H23.5291V42.9073C23.5291 41.8183 22.646 40.9358 21.557 40.9365L12.425 40.9425C12.121 40.9426 11.8278 40.8304 11.6016 40.6274Z" fill="#FF8F33"/>
<path d="M5.71868 39.0339H4.19903C3.11054 39.0339 2.22827 39.9163 2.22827 41.0047V50.5844H3.74792V41.0047C3.74792 39.9163 4.63019 39.0339 5.71868 39.0339Z" fill="#FF740D"/>
<path d="M3.71277 42.8689H22.0446V48.8412H3.71277V42.8689Z" fill="white"/>
<path d="M21.5029 55.9443H4.25443C3.13545 55.9443 2.22827 55.0371 2.22827 53.9182V44.9319H23.5291V53.9182C23.529 55.0373 22.6218 55.9443 21.5029 55.9443Z" fill="#FFC31A"/>
<path d="M11.3462 54.4247C7.14972 54.4247 3.74792 51.0229 3.74792 46.8264V44.9319H2.22827V53.9182C2.22827 55.0371 3.13545 55.9443 4.25443 55.9443H21.5029C22.4657 55.9443 23.27 55.2721 23.4762 54.3719C23.3301 54.4053 23.1787 54.4247 23.0225 54.4247H11.3462Z" fill="#FFAF00"/>
<path d="M20.4315 53.3046H17.2119C17.0021 53.3046 16.8319 53.1345 16.8319 52.9248C16.8319 52.7151 17.0021 52.5449 17.2119 52.5449H20.4315C20.6413 52.5449 20.8115 52.7151 20.8115 52.9248C20.8115 53.1345 20.6412 53.3046 20.4315 53.3046Z" fill="white"/>
<path d="M20.4315 50.2847H15.1996C14.9897 50.2847 14.8196 50.1146 14.8196 49.9049C14.8196 49.6952 14.9897 49.5249 15.1996 49.5249H20.4315C20.6413 49.5249 20.8114 49.6951 20.8114 49.9049C20.8114 50.1147 20.6411 50.2847 20.4315 50.2847Z" fill="white"/>
<path d="M40.8031 12.8638C43.251 12.8638 45.2354 10.8794 45.2354 8.43156C45.2354 5.98367 43.251 3.99927 40.8031 3.99927C38.3553 3.99927 36.3708 5.98367 36.3708 8.43156C36.3708 10.8794 38.3553 12.8638 40.8031 12.8638Z" fill="#FFC31A"/>
<path d="M37.8905 8.43156C37.8905 6.2428 39.4773 4.42596 41.563 4.06545C41.316 4.02269 41.0624 3.99927 40.8031 3.99927C38.3552 3.99927 36.3708 5.98366 36.3708 8.43156C36.3708 10.8795 38.3552 12.8638 40.8031 12.8638C41.0624 12.8638 41.316 12.8403 41.563 12.7977C39.4773 12.4372 37.8905 10.6202 37.8905 8.43156Z" fill="#FFAF00"/>
<path d="M39.6811 10.0465L38.6709 9.06375C38.5804 8.97576 38.5566 8.83237 38.629 8.72889C38.7211 8.59715 38.904 8.58389 39.0143 8.69109L39.8567 9.51052L42.5812 6.82715C42.6712 6.73854 42.8149 6.71785 42.9168 6.79233C43.0465 6.88726 43.056 7.07043 42.9464 7.17825L40.0355 10.0453C39.9382 10.1412 39.7788 10.1417 39.6811 10.0465Z" fill="white"/>
</g>
<defs>
<clipPath id="clip0_120_621">
<rect width="58" height="58" fill="white"/>
</clipPath>
</defs>
</svg>
