<svg width="80" height="80" viewBox="0 0 80 80" fill="none" xmlns="http://www.w3.org/2000/svg">
<path d="M24.835 29.868C27.6953 37.2669 33.0783 42.1294 39.9991 42.1294C46.6099 42.1294 52.3387 37.4505 55.1656 29.868C58.1353 29.5915 59.6903 26.7254 60.2695 23.3454C60.9597 19.3061 59.51 17.335 56.9548 16.8937C56.0843 7.40623 53.3569 0 39.9991 0C26.5621 0 23.9106 7.40623 23.041 16.8937C20.4857 17.335 19.0352 19.3061 19.7262 23.3454C20.3111 26.7646 21.9216 29.6143 24.835 29.868ZM32.1686 22.1722C33.7081 21.6623 35.1065 20.9868 36.3523 20.2395C37.1232 20.5976 37.6625 21.3751 37.6625 22.2799C37.6625 23.5216 36.6509 24.5349 35.4075 24.5349H34.4114C33.1688 24.5349 32.1564 23.5232 32.1564 22.2799C32.1572 22.2432 32.167 22.2089 32.1686 22.1722ZM30.5606 22.6225C30.7368 24.6034 32.3864 26.1666 34.4122 26.1666H35.4083C37.5515 26.1666 39.295 24.4231 39.295 22.2799C39.295 22.0678 39.2656 21.8638 39.233 21.6615H40.7684C40.7358 21.8638 40.7064 22.0678 40.7064 22.2799C40.7064 24.4231 42.4499 26.1666 44.5931 26.1666H45.5892C47.7325 26.1666 49.4759 24.4231 49.4759 22.2799C49.4759 20.1367 47.7325 18.3932 45.5892 18.3932H44.5923C43.2886 18.3932 42.1407 19.0426 41.435 20.0298H38.5656C38.36 19.741 38.112 19.4872 37.8379 19.2645C40.8043 17.1654 42.6579 14.872 43.1295 14.2503C43.969 15.9326 46.3708 19.2221 52.6267 20.6996C52.0369 30.4391 46.9093 37.3232 39.9991 37.3232C33.4911 37.3232 28.9362 31.33 27.6488 23.0737C28.6637 23.0035 29.6313 22.842 30.5606 22.6225ZM42.3373 22.2799C42.3373 21.0373 43.3489 20.0249 44.5931 20.0249H45.5892C46.8318 20.0249 47.8442 21.0365 47.8442 22.2799C47.8442 23.5232 46.8334 24.5349 45.5892 24.5349H44.5931C43.3489 24.5349 42.3373 23.5232 42.3373 22.2799Z" fill="white"/>
<path d="M68.189 68.2617C67.2573 50.2495 60.498 41.2409 53.9843 37.3078C53.9811 37.3045 53.977 37.3021 53.9705 37.298L43.7618 55.847L42.7787 52.3283C43.7014 51.5296 44.2978 50.3645 44.2978 49.0469C44.2978 46.6378 42.3455 44.6854 39.9371 44.6854C37.5288 44.6854 35.7021 46.6378 35.7021 49.0469C35.7021 50.3645 36.2993 51.5296 37.2204 52.3283L36.181 55.847L26.0156 37.3069C19.4611 41.1953 12.7442 50.1279 11.8109 68.2592C11.6445 71.4631 13.7967 74.2108 16.6179 74.396C16.719 74.4042 22.1395 74.6799 22.1395 74.6799C25.5114 78.5054 32.4477 80 40.1207 80C48.2628 80 54.6468 78.2134 57.8588 74.6799C57.8588 74.6799 63.2776 74.4042 63.3788 74.396C66.2 74.2116 68.3538 71.4631 68.189 68.2617ZM55.9554 62.5589H48.2555V59.1903H55.9554V62.5589Z" fill="white"/>
</svg>
