<svg width="53" height="53" viewBox="0 0 53 53" fill="none" xmlns="http://www.w3.org/2000/svg">
<path d="M8.89772 45.7649C8.21515 45.1654 7.56394 44.531 6.94682 43.8646C6.68822 43.5853 6.4356 43.3003 6.18935 43.0097C2.32836 38.4563 0 32.5625 0 26.1247C0 11.6966 11.6966 0 26.1247 0C40.5529 0 52.2494 11.6966 52.2494 26.1247C52.2494 32.5625 49.921 38.4563 46.06 43.0097C45.8138 43.3003 45.5611 43.5853 45.3026 43.8646C44.6854 44.531 44.0342 45.1654 43.3517 45.7649H8.89772Z" fill="#DCDCE0"/>
<path d="M43.3523 45.7649C38.7535 49.8018 32.725 52.2495 26.1254 52.2495C19.5258 52.2495 13.4972 49.8018 8.89844 45.7649C12.7668 39.6244 19.0417 35.6318 26.1254 35.6318C33.2091 35.6318 39.4839 39.6245 43.3523 45.7649Z" fill="#AAAAB2"/>
<path d="M26.1257 31.2661C31.9532 31.2661 36.6772 26.542 36.6772 20.7146C36.6772 14.8872 31.9532 10.1631 26.1257 10.1631C20.2983 10.1631 15.5742 14.8872 15.5742 20.7146C15.5742 26.542 20.2983 31.2661 26.1257 31.2661Z" fill="#AAAAB2"/>
</svg>
