<svg width="80" height="80" viewBox="0 0 80 80" fill="none" xmlns="http://www.w3.org/2000/svg">
<path d="M64.9993 18.1247C64.6588 17.7838 64.223 17.6136 63.6932 17.6136H53.9777C53.3333 14.4707 52.1212 11.7425 50.3411 9.43209H63.579C64.1101 9.43209 64.5447 9.26174 64.8864 8.92164C65.2255 8.58094 65.3959 8.14492 65.3959 7.61476V1.81812C65.3959 1.28757 65.2257 0.852343 64.8864 0.511246C64.5443 0.170946 64.1097 0 63.5786 0H16.3067C15.7761 0 15.3409 0.170946 14.9998 0.511047C14.6597 0.852144 14.4888 1.28737 14.4888 1.81792V9.37457C14.4888 9.86691 14.6687 10.293 15.0285 10.6528C15.3883 11.0126 15.8143 11.1925 16.3067 11.1925H24.5453C32.5372 11.1925 37.6131 13.332 39.7719 17.6126H16.3067C15.7761 17.6126 15.3403 17.7828 14.9998 18.1237C14.6597 18.465 14.4888 18.9 14.4888 19.4305V25.2264C14.4888 25.7565 14.6589 26.1924 14.9998 26.5325C15.3409 26.8738 15.7769 27.0435 16.3067 27.0435H40.5685C39.7351 30.1504 37.7936 32.5174 34.744 34.1462C31.6942 35.7753 27.6705 36.5898 22.6703 36.5898H16.3067C15.8143 36.5898 15.3883 36.7699 15.0285 37.1295C14.6685 37.4895 14.4888 37.9158 14.4888 38.4078V45.6243C14.4888 46.1174 14.6589 46.534 14.9998 46.8745C22.2721 54.6015 31.7042 65.4149 43.2949 79.3174C43.6362 79.7723 44.1094 79.9992 44.7156 79.9992H55.7946C56.5909 79.9992 57.1405 79.6593 57.4426 78.9761C57.8213 78.2943 57.7471 77.6503 57.2152 77.0442C46.156 63.4833 37.4622 53.332 31.1364 46.5899C37.5759 45.8325 42.8031 43.7487 46.8185 40.3403C50.8332 36.9315 53.276 32.4989 54.1479 27.0445H63.6932C64.223 27.0445 64.659 26.8746 64.9993 26.5335C65.3406 26.1934 65.5113 25.7575 65.5113 25.2274V19.4321C65.5113 18.901 65.3406 18.4658 64.9993 18.1247Z" fill="white"/>
</svg>
