<svg width="1440" height="707" viewBox="0 0 1440 707" fill="none" xmlns="http://www.w3.org/2000/svg">
<rect width="1440" height="707" fill="url(#paint0_linear_1406_930)"/>
<g opacity="0.04">
<mask id="mask0_1406_930" style="mask-type:luminance" maskUnits="userSpaceOnUse" x="0" y="4" width="1440" height="703">
<path d="M1440 4H0V707H1440V4Z" fill="white"/>
</mask>
<g mask="url(#mask0_1406_930)">
<path d="M1549.14 799.153H-109.137V-88.1523H1549.13L1549.14 799.153ZM-106.993 797.322H1546.99V-86.3216H-106.993V797.322Z" fill="white"/>
<path d="M1548.06 664.5H-108.064V666.331H1548.06V664.5Z" fill="white"/>
<path d="M1548.06 620.227H-108.064V622.057H1548.06V620.227Z" fill="white"/>
<path d="M1548.06 575.953H-108.064V577.784H1548.06V575.953Z" fill="white"/>
<path d="M1548.06 531.68H-108.064V533.51H1548.06V531.68Z" fill="white"/>
<path d="M1548.06 487.405H-108.064V489.236H1548.06V487.405Z" fill="white"/>
<path d="M1548.06 443.133H-108.064V444.964H1548.06V443.133Z" fill="white"/>
<path d="M1548.06 398.858H-108.064V400.689H1548.06V398.858Z" fill="white"/>
<path d="M1548.06 354.585H-108.064V356.416H1548.06V354.585Z" fill="white"/>
<path d="M1548.06 310.312H-108.064V312.142H1548.06V310.312Z" fill="white"/>
<path d="M1548.06 266.037H-108.064V267.868H1548.06V266.037Z" fill="white"/>
<path d="M1548.06 221.763H-108.064V223.593H1548.06V221.763Z" fill="white"/>
<path d="M1548.06 177.489H-108.064V179.32H1548.06V177.489Z" fill="white"/>
<path d="M1548.06 133.216H-108.064V135.047H1548.06V133.216Z" fill="white"/>
<path d="M1548.06 88.9424H-108.064V90.7731H1548.06V88.9424Z" fill="white"/>
<path d="M1548.06 44.668H-108.064V46.4987H1548.06V44.668Z" fill="white"/>
<path d="M1398.58 -87.2373H1396.43V798.237H1398.58V-87.2373Z" fill="white"/>
<path d="M1348.39 -87.2373H1346.25V798.237H1348.39V-87.2373Z" fill="white"/>
<path d="M1298.21 -87.2373H1296.06V798.237H1298.21V-87.2373Z" fill="white"/>
<path d="M1248.02 -87.2373H1245.88V798.237H1248.02V-87.2373Z" fill="white"/>
<path d="M1197.83 -87.2373H1195.69V798.237H1197.83V-87.2373Z" fill="white"/>
<path d="M1147.65 -87.2373H1145.51V798.237H1147.65V-87.2373Z" fill="white"/>
<path d="M1097.46 -87.2373H1095.32V798.237H1097.46V-87.2373Z" fill="white"/>
<path d="M1047.28 -87.2373H1045.14V798.237H1047.28V-87.2373Z" fill="white"/>
<path d="M997.092 -87.2373H994.949V798.237H997.092V-87.2373Z" fill="white"/>
<path d="M946.905 -87.2373H944.762V798.237H946.905V-87.2373Z" fill="white"/>
<path d="M896.721 -87.2373H894.578V798.237H896.721V-87.2373Z" fill="white"/>
<path d="M846.534 -87.2373H844.391V798.237H846.534V-87.2373Z" fill="white"/>
<path d="M796.35 -87.2373H794.207V798.237H796.35V-87.2373Z" fill="white"/>
<path d="M746.162 -87.2373H744.02V798.237H746.162V-87.2373Z" fill="white"/>
<path d="M695.979 -87.2373H693.836V798.237H695.979V-87.2373Z" fill="white"/>
<path d="M645.791 -87.2373H643.648V798.237H645.791V-87.2373Z" fill="white"/>
<path d="M595.608 -87.2373H593.465V798.237H595.608V-87.2373Z" fill="white"/>
<path d="M545.42 -87.2373H543.277V798.237H545.42V-87.2373Z" fill="white"/>
<path d="M495.233 -87.2373H493.09V798.237H495.233V-87.2373Z" fill="white"/>
<path d="M445.049 -87.2373H442.906V798.237H445.049V-87.2373Z" fill="white"/>
<path d="M394.862 -87.2373H392.719V798.237H394.862V-87.2373Z" fill="white"/>
<path d="M344.678 -87.2373H342.535V798.237H344.678V-87.2373Z" fill="white"/>
<path d="M294.491 -87.2373H292.348V798.237H294.491V-87.2373Z" fill="white"/>
<path d="M244.307 -87.2373H242.164V798.237H244.307V-87.2373Z" fill="white"/>
<path d="M194.119 -87.2373H191.977V798.237H194.119V-87.2373Z" fill="white"/>
<path d="M143.936 -87.2373H141.793V798.237H143.936V-87.2373Z" fill="white"/>
<path d="M93.7483 -87.2373H91.6055V798.237H93.7483V-87.2373Z" fill="white"/>
<path d="M43.5628 -87.2373H41.4199V798.237H43.5628V-87.2373Z" fill="white"/>
</g>
</g>
<defs>
<linearGradient id="paint0_linear_1406_930" x1="0" y1="353.5" x2="1440" y2="353.5" gradientUnits="userSpaceOnUse">
<stop stop-color="#0D81FE"/>
<stop offset="1" stop-color="#B37ADE"/>
</linearGradient>
</defs>
</svg>
