<svg width="68" height="68" viewBox="0 0 68 68" fill="none" xmlns="http://www.w3.org/2000/svg">
<path d="M49.6721 28.236C49.6721 28.5415 49.6588 28.8469 49.6455 29.1657C49.3932 33.761 47.2682 37.8383 44.0143 40.6805C40.8002 43.4696 38.9939 47.5469 38.9939 51.8102V52.1954H33.1768V13.1485C33.1768 12.3649 33.8408 11.7407 34.6244 11.8071C41.2119 12.3782 46.6838 16.8274 48.7689 22.8571C49.3533 24.5438 49.6721 26.3501 49.6721 28.236Z" fill="white"/>
<path d="M45.5284 29.2984C44.944 29.2984 44.4659 28.8203 44.4659 28.2359C44.4659 26.9742 44.2534 25.739 43.8549 24.557C42.726 21.3031 40.2291 18.7664 36.9752 17.6109C36.4174 17.4117 36.1385 16.8007 36.3245 16.2429C36.5237 15.6851 37.1346 15.3929 37.6924 15.5921C41.544 16.9734 44.5323 19.975 45.8604 23.8531C46.3385 25.2609 46.5909 26.7218 46.5909 28.2226C46.5909 28.8203 46.1127 29.2984 45.5284 29.2984Z" fill="white"/>
<path d="M24.4907 10.7446C21.861 10.7446 19.5501 12.4048 18.6735 14.8087C18.5407 14.7954 18.4079 14.7954 18.2884 14.7954C14.2774 14.7954 11.0103 18.0493 11.0103 22.0735C11.0103 22.8571 11.1431 23.654 11.3954 24.3978C8.46025 25.7524 6.56104 28.6743 6.56104 31.9946C6.56104 35.3149 8.46025 38.2235 11.3954 39.5915C11.1431 40.3353 11.0103 41.1321 11.0103 41.9157C11.0103 45.9267 14.2774 49.1938 18.2884 49.1938C18.4212 49.1938 18.5407 49.1806 18.6735 49.1806C19.5501 51.5978 21.861 53.2579 24.4907 53.2579C27.9173 53.2579 30.6931 50.4688 30.6931 47.0556V16.947C30.6931 13.5204 27.9173 10.7446 24.4907 10.7446ZM28.5548 47.0556C28.5548 49.3001 26.7353 51.1196 24.4907 51.1196C22.5384 51.1196 20.8649 49.7251 20.4931 47.8126C20.4665 47.6532 20.254 46.3118 21.0509 45.5017C21.2501 45.3157 21.4892 45.1563 21.7681 45.0501C22.3126 44.8376 22.5915 44.2267 22.3923 43.6821C22.1798 43.1243 21.5556 42.8587 21.011 43.0579C20.4532 43.2704 19.9485 43.5892 19.5501 44.0009C18.6868 44.8642 18.3681 46.0064 18.3149 47.0423C15.4462 47.0821 13.1353 44.7579 13.1353 41.9024C13.1353 41.0524 13.3478 40.2423 13.7329 39.4985C14.1181 38.8743 14.6095 38.3298 15.1938 37.8915C15.8313 37.4134 16.5353 37.0814 17.3056 36.8821C17.8767 36.736 18.222 36.1517 18.0759 35.5938C17.9298 35.0228 17.3454 34.6774 16.7876 34.8235C15.7384 35.0892 14.7821 35.5673 13.9188 36.2048C13.3478 36.6431 12.8431 37.1478 12.4181 37.7056C10.1603 36.7228 8.69932 34.5048 8.69932 31.9946C8.69932 29.2188 10.479 26.8149 13.122 26.0181C13.1353 26.0048 13.1353 26.0048 13.1353 26.0048C13.547 25.8853 14.3837 25.7126 15.3399 25.9915C16.3228 26.2837 16.9337 26.8813 17.2259 27.2267C17.4384 27.479 17.7438 27.5985 18.036 27.5985C18.2751 27.5985 18.5142 27.5188 18.7134 27.3462C19.1649 26.9743 19.2181 26.297 18.8462 25.8454C18.0892 24.9423 17.0532 24.2649 15.9243 23.9462C14.9813 23.6806 14.1446 23.6806 13.4407 23.7735C13.2548 23.229 13.1485 22.6579 13.1485 22.0735C13.1485 19.2313 15.4595 16.9337 18.2884 16.9337C18.6071 16.9337 18.9259 16.9603 19.2579 17.0267H19.2712C19.8157 17.1196 20.6259 17.372 21.3962 17.9962C21.8478 18.3548 22.2196 18.7931 22.5118 19.2978C22.711 19.6431 23.0696 19.829 23.4282 19.829C23.6142 19.829 23.8001 19.7892 23.9728 19.6829C24.4774 19.3907 24.6501 18.7267 24.3579 18.222C23.9329 17.4915 23.3751 16.854 22.7243 16.3228C22.1532 15.8579 21.4892 15.5126 20.8118 15.2603C21.4626 13.8392 22.8837 12.8696 24.504 12.8696C26.7485 12.8696 28.5681 14.6892 28.5681 16.9337V47.0556H28.5548Z" fill="white"/>
<path d="M28.5547 16.947V47.0556C28.5547 49.3001 26.7352 51.1196 24.4906 51.1196C22.5383 51.1196 20.8648 49.7251 20.493 47.8126C20.4664 47.6532 20.2539 46.3118 21.0508 45.5017C21.25 45.3157 21.4891 45.1563 21.768 45.0501C22.3125 44.8376 22.5914 44.2267 22.3922 43.6821C22.1797 43.1243 21.5555 42.8587 21.0109 43.0579C20.4531 43.2704 19.9484 43.5892 19.55 44.0009C18.6867 44.8642 18.368 46.0064 18.3148 47.0423C15.4461 47.0821 13.1352 44.7579 13.1352 41.9024C13.1352 41.0524 13.3477 40.2423 13.7328 39.4985C14.118 38.8743 14.6094 38.3298 15.1938 37.8915C15.8313 37.4134 16.5352 37.0814 17.3055 36.8821C17.8766 36.736 18.2219 36.1517 18.0758 35.5938C17.9297 35.0228 17.3453 34.6774 16.7875 34.8235C15.7383 35.0892 14.782 35.5673 13.9188 36.2048C13.3477 36.6431 12.843 37.1478 12.418 37.7056C10.1602 36.7228 8.69922 34.5048 8.69922 31.9946C8.69922 29.2188 10.4789 26.8149 13.1219 26.0181C13.1352 26.0048 13.1352 26.0048 13.1352 26.0048C13.5469 25.8853 14.3836 25.7126 15.3398 25.9915C16.3227 26.2837 16.9336 26.8813 17.2258 27.2267C17.4383 27.479 17.7438 27.5985 18.0359 27.5985C18.275 27.5985 18.5141 27.5188 18.7133 27.3462C19.1648 26.9743 19.218 26.297 18.8461 25.8454C18.0891 24.9423 17.0531 24.2649 15.9242 23.9462C14.9813 23.6806 14.1445 23.6806 13.4406 23.7735C13.2547 23.229 13.1484 22.6579 13.1484 22.0735C13.1484 19.2313 15.4594 16.9337 18.2883 16.9337C18.607 16.9337 18.9258 16.9603 19.2578 17.0267H19.2711C19.8156 17.1196 20.6258 17.372 21.3961 17.9962C21.8477 18.3548 22.2195 18.7931 22.5117 19.2978C22.7109 19.6431 23.0695 19.829 23.4281 19.829C23.6141 19.829 23.8 19.7892 23.9727 19.6829C24.4773 19.3907 24.65 18.7267 24.3578 18.222C23.9328 17.4915 23.375 16.854 22.7242 16.3228C22.1531 15.8579 21.4891 15.5126 20.8117 15.2603C21.4625 13.8392 22.8836 12.8696 24.5039 12.8696C26.7352 12.8696 28.5547 14.7024 28.5547 16.947Z" fill="white"/>
<path d="M47.4804 15.1538C47.2015 15.1538 46.9358 15.0476 46.7233 14.8483C46.3116 14.4366 46.3116 13.7593 46.7233 13.3476L51.664 8.40693C52.0757 7.99521 52.753 7.99521 53.1647 8.40693C53.5765 8.81865 53.5765 9.496 53.1647 9.90771L48.2374 14.8351C48.0382 15.0476 47.7593 15.1538 47.4804 15.1538Z" fill="white"/>
<path d="M60.3769 29.4578H53.4175C52.8331 29.4578 52.355 28.9796 52.355 28.3953C52.355 27.8109 52.8331 27.3328 53.4175 27.3328H60.3769C60.9612 27.3328 61.4394 27.8109 61.4394 28.3953C61.4394 28.9796 60.9612 29.4578 60.3769 29.4578Z" fill="white"/>
<path d="M52.4077 48.6757C52.1288 48.6757 51.8632 48.5694 51.6507 48.3702L46.7233 43.4429C46.3116 43.0312 46.3116 42.3538 46.7233 41.9421C47.1351 41.5304 47.8124 41.5304 48.2241 41.9421L53.1515 46.8694C53.5632 47.2812 53.5632 47.9585 53.1515 48.3702C52.9522 48.5694 52.6866 48.6757 52.4077 48.6757Z" fill="white"/>
<path d="M33.1899 9.23047C32.6056 9.23047 32.1274 8.75234 32.1274 8.16797V1.19531C32.1274 0.610937 32.6056 0.132812 33.1899 0.132812C33.7743 0.132812 34.2524 0.610937 34.2524 1.19531V8.15469C34.2524 8.75234 33.7743 9.23047 33.1899 9.23047Z" fill="white"/>
<path d="M43.0313 54.9181C43.0313 55.6751 42.7259 56.3524 42.2345 56.8438C41.7431 57.3353 41.0657 57.6407 40.3087 57.6407H20.9181C19.922 57.6407 19.0587 57.1095 18.5806 56.3126C18.9923 56.5649 19.4704 56.6978 19.9884 56.6978H39.379C40.136 56.6978 40.8134 56.3923 41.3048 55.9009C41.7962 55.4095 42.1017 54.7321 42.1017 53.9751C42.1017 53.4704 41.9556 52.979 41.7165 52.5806C42.5001 53.0587 43.0313 53.922 43.0313 54.9181Z" fill="white"/>
<path d="M43.0313 60.3767C43.0313 61.1337 42.7259 61.811 42.2345 62.3024C41.7431 62.7938 41.0657 63.0993 40.3087 63.0993H20.9181C19.922 63.0993 19.0587 62.5681 18.5806 61.7712C18.9923 62.0235 19.4704 62.1563 19.9751 62.1563H39.3657C40.1228 62.1563 40.8001 61.8509 41.2915 61.3595C41.7829 60.8681 42.0884 60.1907 42.0884 59.4337C42.0884 58.9157 41.9423 58.4376 41.7032 58.0259C42.5001 58.5173 43.0313 59.3938 43.0313 60.3767Z" fill="white"/>
<path d="M42.0884 53.975C42.0884 54.732 41.7829 55.4227 41.2915 55.9008C40.8001 56.3922 40.1228 56.6977 39.3657 56.6977H19.9751C19.4704 56.6977 18.979 56.5516 18.5673 56.3125C18.3282 55.9008 18.1821 55.4227 18.1821 54.918C18.1821 54.1609 18.4876 53.4703 18.979 52.9922C19.4704 52.5008 20.161 52.1953 20.9048 52.1953H40.2954C40.8134 52.1953 41.2915 52.3414 41.6899 52.5805C41.9423 52.9789 42.0884 53.4703 42.0884 53.975Z" fill="white"/>
<path d="M42.0883 59.4469C42.0883 60.204 41.7828 60.8813 41.2914 61.3727C40.8 61.8641 40.1227 62.1696 39.3656 62.1696H19.975C19.4703 62.1696 18.9922 62.0235 18.5805 61.7844C18.3281 61.386 18.1953 60.8946 18.1953 60.3899C18.1953 59.6329 18.5008 58.9422 18.9922 58.4641C19.4836 57.9727 20.1742 57.6672 20.918 57.6672H40.3086C40.8266 57.6672 41.3047 57.8133 41.7031 58.0524C41.9422 58.4375 42.0883 58.929 42.0883 59.4469Z" fill="white"/>
<path d="M38.1041 63.1125V64.4008C38.1041 66.3133 36.5502 67.8672 34.6377 67.8672H26.576C25.3674 67.8672 24.2916 67.243 23.6807 66.3C24.2252 66.6719 24.876 66.8844 25.5932 66.8844H33.6549C35.5674 66.8844 37.1213 65.3305 37.1213 63.418V63.1125H38.1041Z" fill="white"/>
<path d="M37.1212 63.1124V63.4179C37.1212 65.3304 35.5673 66.8843 33.6548 66.8843H25.5931C24.8892 66.8843 24.2251 66.6718 23.6806 66.2999C23.3087 65.7554 23.0962 65.1046 23.0962 64.3874V63.0991H37.1212V63.1124Z" fill="white"/>
</svg>
