<svg width="80" height="80" viewBox="0 0 80 80" fill="none" xmlns="http://www.w3.org/2000/svg">
<path d="M75 74.375C74.9992 75.2036 74.6697 75.998 74.0839 76.5839C73.498 77.1698 72.7036 77.4993 71.875 77.5H8.125C7.2962 77.5 6.50134 77.1708 5.91529 76.5847C5.32924 75.9987 5 75.2038 5 74.375C5 73.5462 5.32924 72.7514 5.91529 72.1653C6.50134 71.5793 7.2962 71.25 8.125 71.25H71.875C72.7036 71.2508 73.498 71.5803 74.0839 72.1662C74.6697 72.7521 74.9992 73.5465 75 74.375ZM38.75 63.1156C32.8239 59.907 25.8767 61.5249 19.7162 62.9749C16.9586 63.7479 14.1236 64.2122 11.2634 64.3592C10.7165 64.3669 10.1775 64.4909 9.68219 64.723C9.18689 64.9551 8.74664 65.2899 8.39069 65.7052C8.03473 66.1205 7.77122 66.6068 7.61765 67.1318C7.46408 67.6567 7.42398 68.2084 7.5 68.75H38.75V63.1156ZM68.7366 64.3592C65.8749 64.2245 63.0384 63.76 60.2832 62.9749C54.1237 61.5248 47.1782 59.9059 41.25 63.1156V68.75H72.5C72.5765 68.2083 72.5367 67.6565 72.3834 67.1313C72.23 66.6061 71.9665 66.1196 71.6104 65.7042C71.2544 65.2888 70.814 64.954 70.3184 64.7221C69.8229 64.4902 69.2836 64.3664 68.7366 64.3592ZM12.3961 61.7981L12.5 51.7C12.5157 49.3246 13.3714 47.0313 14.9157 45.2263C16.46 43.4212 18.5931 42.2208 20.9375 41.8375L28.275 40.075L31.5375 38.15C32.034 37.8559 32.6165 37.7412 33.1875 37.825L34.2167 35.918C32.247 35.056 30.4965 33.7616 29.0952 32.1309C27.6939 30.5001 26.6777 28.5749 26.1218 26.4978C26.116 26.4773 26.1132 26.4557 26.1076 26.4352C25.0644 25.572 24.2246 24.4893 23.648 23.2643C23.0714 22.0393 22.7721 20.7021 22.7716 19.3482V12.2864C22.7716 12.2309 22.7753 12.1754 22.7826 12.1204C22.9203 10.8171 23.352 9.5621 24.0451 8.44988C24.7382 7.33765 25.6747 6.39724 26.7841 5.6995C33.9837 1.06449 48.4082 5.04399 50.2612 5.58354C54.5471 5.64335 56.825 7.80033 57.2229 12.1729L57.2278 19.3482C57.2268 20.7352 56.9127 22.1042 56.3089 23.3529C55.7051 24.6016 54.8272 25.698 53.7407 26.5602C53.1723 28.6003 52.1628 30.4907 50.7835 32.0979C49.4043 33.7051 47.689 34.9898 45.7587 35.8613L46.825 37.825C47.392 37.74 47.9709 37.8549 48.4625 38.15L51.725 40.075L59 41.85C61.3256 42.2505 63.4358 43.4573 64.9604 45.2585C66.485 47.0596 67.3266 49.3402 67.3375 51.7L67.4413 61.787C65.2204 61.5213 63.0201 61.1049 60.8557 60.5408C57.0618 59.5023 53.1615 58.9015 49.231 58.75C46.0169 58.679 42.8385 59.4344 40.0001 60.9439C37.1617 59.4342 33.9832 58.6788 30.769 58.75C26.8383 58.9017 22.9378 59.5025 19.1437 60.5408C16.9279 61.1229 14.6728 61.5431 12.3961 61.7981ZM40.025 46.1125C41.525 43.925 43.9 40.5875 44.8 39.3375L43.3683 36.6944C42.3118 36.9664 41.2258 37.1075 40.1348 37.1143C38.9487 37.1412 37.764 37.0133 36.6109 36.734L35.2 39.3375C36.1125 40.625 38.5875 44.075 40.025 46.1125ZM41.7 47.975L44.525 50.15C44.6205 50.2606 44.7423 50.3453 44.8793 50.3963C45.0162 50.4473 45.1638 50.4629 45.3083 50.4417C45.4529 50.4205 45.5898 50.3632 45.7063 50.2751C45.8228 50.187 45.9152 50.0709 45.975 49.9375L49.65 41.75L47.1875 40.3C47.1875 40.3 41.8875 47.7 41.7 47.975ZM39.9524 34.6131C41.5005 34.6199 43.0342 34.3158 44.4626 33.7188C45.891 33.1218 47.185 32.2441 48.2678 31.1377C49.375 30.0465 50.2532 28.7452 50.851 27.3102C51.4488 25.8752 51.7542 24.3353 51.7493 22.7808V22.7662C51.7418 20.9026 51.2938 19.0672 50.4419 17.4097C47.7856 18.0811 41.8347 19.0186 39.0466 19.4422C38.8688 19.4681 38.6876 19.4556 38.515 19.4055C38.3425 19.3554 38.1827 19.2689 38.0464 19.1518C37.9102 19.0348 37.8006 18.8898 37.7251 18.7268C37.6495 18.5638 37.6098 18.3865 37.6086 18.2069V17.2938L29.1113 18.075C28.0556 20.5276 27.8525 23.2633 28.5346 25.8448C29.204 28.3611 30.6867 30.5854 32.7519 32.1713C34.817 33.7572 37.3486 34.6157 39.9524 34.6131ZM30.35 41.75L34.025 49.9375C34.0823 50.0614 34.1678 50.1702 34.2746 50.2551C34.3815 50.3401 34.5067 50.3988 34.6403 50.4268C34.7739 50.4547 34.9121 50.451 35.0441 50.416C35.176 50.381 35.2979 50.3156 35.4 50.225L38.3 47.975C38.1125 47.7 32.8125 40.3 32.8125 40.3L30.35 41.75Z" fill="white"/>
</svg>
