<svg width="56" height="56" viewBox="0 0 56 56" fill="none" xmlns="http://www.w3.org/2000/svg">
<g clip-path="url(#clip0_110_27)">
<path d="M20.889 34.9231C19.8549 33.0728 19.2995 30.8745 19.2995 28.5665C19.2995 23.3558 19.2995 17.45 28.1945 17.45C37.087 17.45 37.087 23.3559 37.087 28.5665C37.087 30.8768 36.5316 33.0751 35.4999 34.9231H33.2969C34.3018 33.5328 34.9398 31.8071 35.1495 29.9371C34.2913 30.1514 33.4064 30.2597 32.5051 30.2597C29.2041 30.2597 26.1498 28.7972 24.0946 26.289C23.2924 27.3474 22.3014 28.2522 21.1685 28.959C21.2384 31.2016 21.9114 33.2906 23.091 34.9231H20.889ZM15.0552 42.7701C13.2108 44.7926 12.1605 47.5325 12.1605 50.348V52.246H14.0224H24.7489V51.1037H15.9856C15.4721 51.1037 15.0552 50.6869 15.0552 50.1721V46.021V42.7701ZM29.7792 49.1463H26.6108V54.1067H11.5632V55.9453H44.8268V54.1067H29.7792V49.1463ZM24.7489 48.2148C24.7489 47.7013 25.1659 47.2844 25.6793 47.2844H30.7094C31.2241 47.2844 31.641 47.7013 31.641 48.2148V49.2418H39.4728V36.785H16.9171V49.2418H24.7489V48.2148ZM31.6411 52.246H42.3653H44.226V50.348C44.226 47.5302 43.1781 44.7903 41.3348 42.7701V46.0245V50.1721C41.3348 50.6868 40.9179 51.1037 40.4044 51.1037H31.6411V52.246ZM21.1963 7.99157C21.1602 7.69812 21.1416 7.40117 21.1416 7.10542C21.1416 6.81087 21.1602 6.51501 21.1963 6.22167L22.143 6.00631C22.4655 5.93292 22.7252 5.69306 22.8253 5.37751C22.9161 5.08646 23.0338 4.80231 23.1747 4.53215C23.3284 4.2387 23.3133 3.88585 23.1374 3.60531L22.6204 2.78674C22.9825 2.31982 23.4053 1.89709 23.8722 1.53265L24.6907 2.04967C24.9702 2.22663 25.3218 2.24184 25.6153 2.09046C25.8877 1.94959 26.1777 1.8296 26.4746 1.73303C26.7879 1.63174 27.0243 1.37318 27.0964 1.05184L27.3084 0.109791C27.8964 0.0364009 28.495 0.0364009 29.0795 0.109791L29.2938 1.05414C29.3672 1.37439 29.6035 1.63164 29.9156 1.73303C30.2136 1.82971 30.5013 1.94959 30.769 2.08937C31.0625 2.24195 31.4153 2.22795 31.6959 2.04978L32.5144 1.53276C32.9849 1.8972 33.4041 2.31643 33.7685 2.78565L33.2504 3.60421C33.0735 3.88487 33.0583 4.2376 33.2119 4.53226C33.3517 4.80012 33.4705 5.08657 33.5683 5.38582C33.6685 5.69787 33.9269 5.93313 34.2472 6.00642L35.1915 6.22177C35.2299 6.51873 35.2486 6.81448 35.2486 7.10552C35.2486 7.39777 35.23 7.69353 35.1915 7.99168L34.2484 8.20474C33.9282 8.27693 33.6685 8.51329 33.5684 8.82534C33.4694 9.13038 33.3495 9.41804 33.212 9.68229C33.0584 9.97574 33.0735 10.3297 33.2505 10.6091L33.7675 11.4277C33.4042 11.8946 32.9804 12.3172 32.5147 12.6794L31.6996 12.1636C31.4201 11.9877 31.0685 11.9726 30.7762 12.124C30.5026 12.2649 30.2126 12.3848 29.9158 12.4814C29.6037 12.5827 29.3674 12.8401 29.294 13.1603L29.0797 14.1034C28.4952 14.1768 27.8967 14.1768 27.3086 14.1034L27.0967 13.1614C27.0245 12.8411 26.7881 12.5827 26.4749 12.4814C26.1779 12.3847 25.888 12.2649 25.6155 12.124C25.322 11.9726 24.9716 11.9877 24.6922 12.1636L23.8724 12.6794C23.4066 12.3172 22.9839 11.8946 22.6206 11.4277L23.1376 10.6079C23.3135 10.3285 23.3286 9.97563 23.1749 9.68218C23.0363 9.41432 22.9188 9.12907 22.8256 8.83332C22.7255 8.51657 22.4646 8.27671 22.1409 8.20343L21.1963 7.99157ZM25.4466 7.1052C25.4466 8.62026 26.6795 9.85313 28.1946 9.85313C29.7082 9.85313 30.9399 8.62026 30.9399 7.1052C30.9399 5.59145 29.7083 4.36131 28.1946 4.36131C26.6795 4.36131 25.4466 5.59145 25.4466 7.1052ZM10.9158 33.2324C10.7529 34.5737 9.55225 35.6171 8.1003 35.6171C6.64714 35.6171 5.44423 34.5737 5.28127 33.2324C4.38461 33.081 3.70112 32.3241 3.70112 31.4183V30.3924C3.20041 30.0955 2.86506 29.5541 2.86506 28.9358C2.86506 28.2092 2.56581 27.818 1.99061 27.1333C1.23373 26.232 0.198608 24.9989 0.198608 22.3814C0.198608 18.108 3.74301 14.6311 8.1003 14.6311C12.4552 14.6311 15.9985 18.108 15.9985 22.3814C15.9985 24.9989 14.9633 26.232 14.2064 27.1333C13.6324 27.818 13.3319 28.2092 13.3319 28.9358C13.3319 29.5541 12.9966 30.0967 12.4971 30.3936V31.4183C12.4971 32.3253 11.8136 33.081 10.9158 33.2324ZM11.4735 28.7739C11.5236 27.4348 12.1908 26.6396 12.7812 25.9363C13.4787 25.106 14.1378 24.3213 14.1378 22.3814C14.1378 19.1338 11.4295 16.493 8.10041 16.493C4.77015 16.493 2.06061 19.1338 2.06061 22.3814C2.06061 24.3213 2.7185 25.1061 3.41598 25.9363C4.00748 26.6396 4.67467 27.4348 4.72477 28.7739H11.4735ZM55.8014 19.433V32.7945C55.8014 33.3081 55.3856 33.7249 54.871 33.7249H41.6946C41.1811 33.7249 40.7643 33.3081 40.7643 32.7945V17.4535C40.7643 16.9388 41.1811 16.5219 41.6946 16.5219H52.8868C53.1337 16.5219 53.3701 16.6197 53.5447 16.7944L55.5289 18.7751C55.7036 18.9497 55.8014 19.1861 55.8014 19.433ZM52.2127 21.5278C51.8307 21.1832 51.2427 21.2146 50.8981 21.5965L46.8565 26.0865L45.7106 24.6123C45.3951 24.206 44.8106 24.1326 44.4042 24.4481C43.9989 24.7637 43.9256 25.3482 44.2412 25.7546L46.0693 28.1079C46.2382 28.3257 46.4954 28.4573 46.7703 28.4666C46.7819 28.4678 46.7936 28.4678 46.8041 28.4678C47.0672 28.4678 47.3188 28.356 47.4958 28.1592L52.2827 22.8425C52.626 22.4593 52.5946 21.8713 52.2127 21.5278Z" fill="white"/>
</g>
<defs>
<clipPath id="clip0_110_27">
<rect width="56" height="56" fill="white"/>
</clipPath>
</defs>
</svg>
