<svg width="60" height="60" viewBox="0 0 60 60" fill="none" xmlns="http://www.w3.org/2000/svg">
<g clip-path="url(#clip0_120_871)">
<path d="M27.1875 21.3188V26.2501L23.4375 30.0001L19.6875 26.2501V21.3188C20.7868 22.0877 22.096 22.5001 23.4375 22.5001C24.779 22.5001 26.0882 22.0877 27.1875 21.3188Z" fill="#EFAEAC"/>
<path d="M59.025 24.9375L59.0157 24.9281C58.8017 24.7002 58.5397 24.5229 58.2486 24.409C57.9575 24.2951 57.6447 24.2475 57.3329 24.2696C57.0212 24.2918 56.7182 24.3831 56.4462 24.537C56.1741 24.6909 55.9398 24.9035 55.7602 25.1594L55.3219 25.7437L55.7904 7.92118C55.8005 7.55741 55.9521 7.21192 56.213 6.95819C56.4738 6.70446 56.8234 6.5625 57.1873 6.5625C57.5513 6.5625 57.9009 6.70452 58.1618 6.95834C58.4227 7.21216 58.5742 7.55775 58.5842 7.92159L59.025 24.9375Z" fill="#FFD07B"/>
<path d="M59.0156 23.9905C58.7543 23.796 58.457 23.655 58.141 23.5756C57.825 23.4962 57.4964 23.48 57.1742 23.5279C56.8519 23.5758 56.5422 23.6869 56.263 23.8547C55.9837 24.0226 55.7404 24.244 55.5469 24.5062L46.4156 36.9655L39.375 30.9374L31.875 28.1249L27.1875 25.3124L23.4375 29.0624L19.6875 25.3124L15 28.1249L11.1499 29.5687C10.0777 29.9707 9.15382 30.6904 8.50162 31.6316C7.84942 32.5727 7.49998 33.6905 7.5 34.8355V59.0624H38.4375C38.6861 59.0624 38.9246 58.9636 39.1004 58.7878C39.2762 58.612 39.375 58.3736 39.375 58.1249V44.0624L46.9599 47.2838C47.1696 47.3729 47.4047 47.3825 47.621 47.3109C47.8373 47.2392 48.0202 47.0913 48.1353 46.8946L59.6625 27.2062C59.8826 26.8274 59.999 26.3973 60 25.9593C59.9998 25.5773 59.9107 25.2006 59.7399 24.8589C59.569 24.5172 59.3211 24.2199 59.0156 23.9905Z" fill="#DBEDFF"/>
<path d="M23.4375 54.375L27.1875 51.5625L25.3125 33.75L29.1488 26.4891L27.1875 25.3125L23.4375 29.0625L19.6875 25.3125L17.7263 26.4891L21.5625 33.75L19.6875 51.5625L23.4375 54.375Z" fill="#FF8086"/>
<path d="M27.1875 0.9375H19.6875C18.8431 0.938691 18.0237 1.22425 17.3615 1.74812C16.6993 2.27199 16.2328 3.00364 16.0373 3.82508C14.9576 4.02263 13.9813 4.59221 13.278 5.43485C12.5747 6.27749 12.1888 7.33992 12.1875 8.4375V16.4062C12.1875 16.5294 12.2117 16.6513 12.2588 16.7651C12.3059 16.8788 12.375 16.9822 12.462 17.0692C12.5491 17.1563 12.6524 17.2253 12.7662 17.2725C12.88 17.3196 13.0019 17.3438 13.125 17.3438H33.75C33.8731 17.3438 33.995 17.3196 34.1088 17.2725C34.2226 17.2253 34.3259 17.1563 34.413 17.0692C34.5 16.9822 34.5691 16.8788 34.6162 16.7651C34.6633 16.6513 34.6875 16.5294 34.6875 16.4062V8.4375C34.6852 6.44907 33.8943 4.54274 32.4883 3.13671C31.0823 1.73068 29.1759 0.939775 27.1875 0.9375Z" fill="#414151"/>
<path d="M19.6875 51.5625L23.4375 54.375L27.1875 51.5625L25.3125 33.75H21.5625L19.6875 51.5625Z" fill="#EA6060"/>
<path d="M59.0156 23.9905C58.7543 23.796 58.457 23.655 58.141 23.5756C57.825 23.4962 57.4964 23.48 57.1742 23.5279C56.8519 23.5758 56.5422 23.6869 56.263 23.8547C55.9837 24.0226 55.7404 24.244 55.5469 24.5062L46.4156 36.9655L39.375 30.9374L31.875 28.1249V59.0624H38.4375C38.6861 59.0624 38.9246 58.9636 39.1004 58.7878C39.2762 58.612 39.375 58.3736 39.375 58.1249V44.0624L46.9599 47.2838C47.1696 47.3729 47.4047 47.3825 47.621 47.3109C47.8373 47.2392 48.0202 47.0913 48.1353 46.8946L59.6625 27.2062C59.8826 26.8274 59.999 26.3973 60 25.9593C59.9998 25.5773 59.9107 25.2006 59.7399 24.8589C59.569 24.5172 59.3211 24.2199 59.0156 23.9905Z" fill="#676072"/>
<path d="M15 28.125L11.1499 29.5688C10.0778 29.9708 9.15387 30.6905 8.50166 31.6316C7.84945 32.5728 7.49999 33.6906 7.5 34.8356V59.0625H15V28.125Z" fill="#676072"/>
<path d="M30.9375 13.125C30.5217 13.1226 30.108 13.1853 29.7116 13.3109C29.523 13.3719 29.3586 13.4911 29.2419 13.6514C29.1253 13.8117 29.0625 14.0048 29.0625 14.203V15.9375C29.0655 16.6665 28.9242 17.3888 28.6468 18.0629C28.556 18.2818 28.5515 18.527 28.6343 18.7492C28.717 18.9713 28.8808 19.1538 29.0927 19.26C29.6663 19.5432 30.2978 19.6895 30.9375 19.6875C31.8687 19.7444 32.7847 19.4318 33.4867 18.8175C34.1888 18.2031 34.6203 17.3367 34.6875 16.4063C34.6203 15.4758 34.1888 14.6094 33.4867 13.9951C32.7847 13.3807 31.8687 13.0681 30.9375 13.125Z" fill="#EFAEAC"/>
<path d="M17.8125 15.9375V14.203C17.8125 14.0048 17.7497 13.8117 17.633 13.6514C17.5164 13.4911 17.352 13.3719 17.1634 13.3109C16.767 13.1853 16.3533 13.1226 15.9375 13.125C15.0063 13.0681 14.0903 13.3807 13.3882 13.9951C12.6862 14.6094 12.2547 15.4758 12.1875 16.4063C12.2547 17.3367 12.6862 18.2031 13.3882 18.8175C14.0903 19.4318 15.0063 19.7444 15.9375 19.6875C16.5771 19.6893 17.2085 19.5432 17.7823 19.2604C17.9945 19.1542 18.1586 18.9715 18.2415 18.7491C18.3244 18.5267 18.32 18.2812 18.2291 18.062C17.9508 17.3884 17.8092 16.6663 17.8125 15.9375Z" fill="#EFAEAC"/>
<path d="M12.1875 53.4375C12.1861 53.9343 11.9881 54.4104 11.6367 54.7617C11.2854 55.113 10.8094 55.311 10.3125 55.3125V59.0625H1.87503C1.62884 59.0638 1.38491 59.0155 1.1578 58.9205C0.93069 58.8254 0.72505 58.6856 0.553151 58.5094C0.376899 58.3375 0.237085 58.1318 0.142052 57.9047C0.047019 57.6776 -0.00128394 57.4337 2.59443e-05 57.1875C0.00147777 56.6907 0.199488 56.2146 0.550805 55.8633C0.902121 55.512 1.37819 55.314 1.87503 55.3125V51.5625C1.62884 51.5638 1.38491 51.5155 1.1578 51.4205C0.93069 51.3254 0.72505 51.1856 0.553151 51.0094C0.376899 50.8375 0.237085 50.6318 0.142052 50.4047C0.047019 50.1776 -0.00128394 49.9337 2.59443e-05 49.6875C0.00147777 49.1907 0.199488 48.7146 0.550805 48.3633C0.902121 48.012 1.37819 47.814 1.87503 47.8125H10.3125V51.5625C10.8087 51.5661 11.2835 51.7648 11.6344 52.1156C11.9853 52.4665 12.184 52.9413 12.1875 53.4375Z" fill="#FFD07B"/>
<path d="M1.875 55.3125C1.37772 55.3125 0.900806 55.51 0.549175 55.8617C0.197544 56.2133 0 56.6902 0 57.1875C0 57.6848 0.197544 58.1617 0.549175 58.5133C0.900806 58.865 1.37772 59.0625 1.875 59.0625H10.3125V55.3125H1.875Z" fill="#FF8086"/>
<path d="M1.875 47.8125C1.37772 47.8125 0.900806 48.01 0.549175 48.3617C0.197544 48.7133 0 49.1902 0 49.6875C0 50.1848 0.197544 50.6617 0.549175 51.0133C0.900806 51.365 1.37772 51.5625 1.875 51.5625H10.3125V47.8125H1.875Z" fill="#C99AE8"/>
<path d="M59.0156 23.9905C58.7543 23.796 58.457 23.655 58.141 23.5756C57.825 23.4962 57.4965 23.48 57.1742 23.5279C56.8519 23.5758 56.5422 23.6869 56.263 23.8547C55.9837 24.0226 55.7404 24.244 55.5469 24.5062L53.6959 27.0318L53.6964 27.0359L57.9114 30.1971L59.6625 27.2062C59.8826 26.8274 59.999 26.3973 60 25.9593C59.9998 25.5773 59.9107 25.2006 59.7399 24.8589C59.5691 24.5172 59.3211 24.2199 59.0156 23.9905Z" fill="#EFAEAC"/>
<path d="M28.125 31.875L23.4375 29.0625L27.1875 25.3125L31.875 28.125L28.125 31.875Z" fill="#BBD5EF"/>
<path d="M18.75 31.875L23.4375 29.0625L19.6875 25.3125L15 28.125L18.75 31.875Z" fill="#BBD5EF"/>
<path d="M30 10.3124C23.8705 10.3124 21.1661 8.60864 21.145 8.59494C21.0387 8.52403 20.919 8.47563 20.7932 8.4527C20.6675 8.42977 20.5384 8.43281 20.4139 8.46162C20.2894 8.49044 20.1721 8.54441 20.0692 8.62024C19.9663 8.69607 19.88 8.79214 19.8156 8.90255C19.0118 10.2799 16.8924 10.3124 16.875 10.3124C16.7519 10.3124 16.63 10.3366 16.5162 10.3837C16.4024 10.4308 16.2991 10.4999 16.212 10.587C16.125 10.674 16.0559 10.7774 16.0088 10.8911C15.9617 11.0049 15.9375 11.1268 15.9375 11.2499V15.9374C15.9375 17.9266 16.7277 19.8342 18.1342 21.2407C19.5407 22.6473 21.4484 23.4374 23.4375 23.4374C25.4266 23.4374 27.3343 22.6473 28.7408 21.2407C30.1473 19.8342 30.9375 17.9266 30.9375 15.9374V11.2499C30.9375 11.1268 30.9133 11.0049 30.8662 10.8911C30.8191 10.7774 30.75 10.674 30.663 10.587C30.5759 10.4999 30.4726 10.4308 30.3588 10.3837C30.245 10.3366 30.1231 10.3124 30 10.3124Z" fill="#FFD3CA"/>
<path d="M41.25 41.25V44.8594L39.375 44.0625V41.25C39.375 41.0014 39.4738 40.7629 39.6496 40.5871C39.8254 40.4113 40.0639 40.3125 40.3125 40.3125C40.5611 40.3125 40.7996 40.4113 40.9754 40.5871C41.1512 40.7629 41.25 41.0014 41.25 41.25Z" fill="#4D4B5E"/>
<path d="M46.4156 36.9657L44.9906 38.9063C44.9038 39.024 44.7909 39.1199 44.6608 39.1866C44.5306 39.2533 44.3868 39.2889 44.2406 39.2907C44.0381 39.2888 43.8413 39.2232 43.6781 39.1032C43.4781 38.9551 43.3451 38.7337 43.3082 38.4876C43.2713 38.2416 43.3335 37.9909 43.4812 37.7907L44.9812 35.7375L46.4156 36.9657Z" fill="#4D4B5E"/>
</g>
<defs>
<clipPath id="clip0_120_871">
<rect width="60" height="60" fill="white"/>
</clipPath>
</defs>
</svg>
