<svg width="70" height="70" viewBox="0 0 70 70" fill="none" xmlns="http://www.w3.org/2000/svg">
<g clip-path="url(#clip0_110_157)">
<path d="M50.8065 31.0483V31.8406C50.8065 32.8115 50.9631 33.7759 51.27 34.6968L53.0646 40.0805H56.4516V27.6611H54.1936C52.323 27.6613 50.8065 29.1776 50.8065 31.0483Z" fill="#5A4146"/>
<path d="M66.2653 33.3936L64.3548 40.0805L55.3225 32.1773C54.0754 32.1773 53.0645 31.1663 53.0645 29.9193C53.0645 28.0487 54.5809 26.5322 56.4515 26.5322H64.3547C65.6018 26.5322 66.6127 27.5433 66.6127 28.7903V30.9124C66.6129 31.7515 66.4958 32.5865 66.2653 33.3936Z" fill="#694B4B"/>
<path d="M62.096 43.4683H55.3219V48.4652H62.096V43.4683Z" fill="#E6AF78"/>
<path d="M55.3225 45.5417C56.3696 45.9671 57.5115 46.2067 58.7096 46.2067C59.9076 46.2067 61.0495 45.9671 62.0967 45.5417V43.4678H55.3225V45.5417Z" fill="#D29B6E"/>
<path d="M67.5433 47.7628L62.0965 46.2067L58.7097 48.4542L55.3226 46.2065L49.876 47.7628C48.4219 48.1783 47.4194 49.5073 47.4194 51.0196V59.2741C47.4194 59.8977 47.9249 60.4031 48.5485 60.4031H68.871C69.4946 60.4031 70 59.8977 70 59.2741V51.0196C70 49.5072 68.9975 48.1783 67.5433 47.7628Z" fill="#D5DCED"/>
<path d="M59.8386 60.403H57.5806L58.1451 48.4646H59.2741L59.8386 60.403Z" fill="#AFB9D2"/>
<path d="M58.7097 44.5967C54.9684 44.5967 51.9355 41.5637 51.9355 37.8226V36.4998C51.9355 35.901 52.1734 35.3266 52.5969 34.9031L54.6442 32.8557C55.0778 32.4222 55.6706 32.1729 56.2833 32.1922C59.8924 32.3061 63.087 33.0792 64.8333 34.7848C65.2608 35.2023 65.484 35.7864 65.484 36.3839V37.8226C65.484 41.5639 62.451 44.5967 58.7097 44.5967Z" fill="#F0C087"/>
<path d="M55.3226 36.7797C55.3226 35.4773 56.4164 34.4421 57.7162 34.5249C59.9954 34.6704 63.3775 35.0513 65.4525 36.0493C65.3848 35.573 65.1802 35.1233 64.8333 34.7846C63.087 33.079 59.8924 32.3058 56.2833 32.192L56.2832 32.1921C55.6706 32.1728 55.0776 32.4221 54.6442 32.8555L52.597 34.9027C52.1734 35.3261 51.9355 35.9005 51.9355 36.4994V37.8222C51.9355 40.9115 54.0056 43.5125 56.8328 44.3271C55.8918 43.1661 55.3228 41.6923 55.3228 40.0802L55.3226 36.7797Z" fill="#E6AF78"/>
<path d="M65.4839 54.3838C65.4839 53.4854 65.8407 52.6239 66.4759 51.9887L69.3821 49.0825C69.7706 49.6377 70 50.3062 70 51.0197V59.2742C70 59.8978 69.4945 60.4032 68.871 60.4032H65.4839V54.3838Z" fill="#C7CFE2"/>
<path d="M59.2741 50.7226H58.1451C57.8334 50.7226 57.5806 50.4699 57.5806 50.1581V48.4646H59.8386V50.1581C59.8386 50.4699 59.586 50.7226 59.2741 50.7226Z" fill="#959CB5"/>
<path d="M58.7096 48.4544L56.7959 49.916C56.4663 50.1679 55.9897 50.067 55.7905 49.703L54.0739 46.5681L54.7648 45.5141C54.9181 45.2803 55.2447 45.2405 55.4497 45.4306L58.7096 48.4544Z" fill="#C7CFE2"/>
<path d="M58.7096 48.4545L60.6232 49.9163C60.9529 50.1681 61.4295 50.0672 61.6287 49.7033L63.3453 46.5683L62.6543 45.5144C62.5011 45.2806 62.1745 45.2408 61.9695 45.4308L58.7096 48.4545Z" fill="#C7CFE2"/>
<path d="M20.21 44.1252C19.2452 41.5689 18.48 37.1743 18.3147 34.8863C18.0002 30.5324 14.7191 26.9832 10.2837 26.9832C5.84825 26.9832 2.56714 30.5325 2.25269 34.8863C2.08739 37.1742 1.32218 41.5689 0.357354 44.1252C0.144757 44.6888 0.390167 45.3102 0.945108 45.5617C1.97898 46.0303 4.18329 46.9482 6.84179 47.3057H13.7254C16.3715 46.9474 18.5913 46.0289 19.6221 45.5617C20.1772 45.3102 20.4226 44.6888 20.21 44.1252Z" fill="#5A4146"/>
<path d="M19.6222 45.562C20.177 45.3104 20.4226 44.689 20.2099 44.1255C19.2452 41.5691 18.4798 37.1746 18.3147 34.8866C18.0003 30.5326 14.7191 26.9834 10.2838 26.9834C10.2726 26.9834 10.2615 26.9834 10.2503 26.9835C6.84696 26.9973 5.64425 31.6388 8.57399 33.3706C8.74995 33.4747 8.86274 33.5247 8.86274 33.5247L11.4288 47.306H13.7256C16.3716 46.9473 18.5914 46.029 19.6222 45.562Z" fill="#694B4B"/>
<path d="M18.4502 49.5727L14.7965 47.746C14.0314 47.3634 13.5481 46.5814 13.5483 45.7261L13.5486 42.3389H6.77414V45.7262C6.77414 46.5815 6.29098 47.3633 5.5259 47.7458L1.87223 49.5727C0.724746 50.1463 0 51.3191 0 52.6019V59.2741C0 59.8975 0.505449 60.4031 1.12902 60.4031H19.1935C19.8171 60.4031 20.3226 59.8975 20.3226 59.2741V52.6021C20.3226 51.3191 19.5977 50.1463 18.4502 49.5727Z" fill="#E6AF78"/>
<path d="M10.1613 46.8547C11.377 46.8547 12.5415 46.6041 13.609 46.158C13.5809 46.0157 13.5483 45.8742 13.5483 45.7258L13.5485 42.3386H6.77411V45.726C6.77411 45.8751 6.74144 46.0173 6.71313 46.1602C7.78132 46.604 8.9452 46.8547 10.1613 46.8547Z" fill="#D29B6E"/>
<path d="M18.4502 49.5726L15.8473 48.2711C14.6404 50.1349 12.5471 51.371 10.1613 51.371C7.77561 51.371 5.68217 50.1349 4.47521 48.271L1.87236 49.5726C0.724883 50.1462 0 51.319 0 52.6018V59.274C0 59.8976 0.505449 60.403 1.12902 60.403H19.1935C19.8171 60.403 20.3226 59.8976 20.3226 59.274V52.602C20.3226 51.319 19.5977 50.1462 18.4502 49.5726Z" fill="#D5DCED"/>
<path d="M10.1613 44.5968C6.7171 44.5968 3.87335 42.0265 3.44337 38.6994C3.38103 38.2174 3.61277 37.7447 4.04671 37.5259C4.56652 37.2636 5.32189 36.8215 6.04513 36.1762C6.85054 35.4576 7.32304 34.6997 7.58992 34.1434C7.81974 33.6644 8.34802 33.3934 8.8629 33.5248C12.8381 34.5387 15.5445 36.6068 16.5264 37.4512C16.79 37.6779 16.9419 38.0122 16.9148 38.3589C16.6412 41.8493 13.7222 44.5968 10.1613 44.5968Z" fill="#F0C087"/>
<path d="M16.5262 37.451C15.5445 36.6066 12.838 34.5384 8.86273 33.5245C8.34785 33.3931 7.81957 33.6641 7.58975 34.1432C7.38767 34.5646 7.05367 35.1013 6.55807 35.6493C6.55793 35.6506 6.55752 35.6517 6.55738 35.6531C6.40357 35.8274 6.23978 36.0021 6.0451 36.1761C5.32185 36.8215 4.56648 37.2635 4.04668 37.5257C3.61273 37.7446 3.38113 38.2174 3.44334 38.6995C3.82957 41.6875 6.16773 44.0658 9.13426 44.5195C7.78252 43.5999 6.77422 42.3352 6.77422 40.0807V38.4707C7.0307 38.2814 7.28896 38.0926 7.54846 37.861C8.176 37.301 8.72383 36.6533 9.16311 35.9561C12.2041 36.905 14.2659 38.4856 15.0475 39.1578C15.2614 39.3453 15.7925 39.8348 16.4137 40.4176C16.681 39.7744 16.8578 39.0842 16.9145 38.3589C16.9417 38.0121 16.7898 37.6778 16.5262 37.451Z" fill="#E6AF78"/>
<path d="M0.688242 50.5667C0.25334 51.1439 0 51.8519 0 52.6018V59.274C0 59.8976 0.505449 60.403 1.12902 60.403H4.51609V54.7142C4.51609 54.0282 4.20424 53.3794 3.66857 52.9509L0.688242 50.5667Z" fill="#C7CFE2"/>
<path d="M51.2208 48.0319L41.7742 44.5967L35.0001 46.8549L28.2259 44.5968L18.7793 48.032C16.9946 48.681 15.8065 50.3772 15.8065 52.2762V59.2743C15.8065 59.8977 16.312 60.4033 16.9355 60.4033H53.0646C53.6881 60.4033 54.1936 59.8977 54.1936 59.2743V52.2762C54.1936 50.377 53.0056 48.6809 51.2208 48.0319Z" fill="#FF507D"/>
<path d="M33.8172 49.113L32.7419 60.4031H37.258L36.1827 49.113H33.8172Z" fill="#707487"/>
<path d="M36.1854 50.664H33.8147C33.3781 50.664 33.0243 50.3102 33.0243 49.8736V46.8547H36.9756V49.8736C36.9757 50.31 36.6219 50.664 36.1854 50.664Z" fill="#5B5D6E"/>
<path d="M52.9783 49.199C53.7406 50.0172 54.1936 51.107 54.1936 52.276V59.2741C54.1936 59.8976 53.6881 60.4031 53.0646 60.4031H47.4194V56.6285C47.4194 55.4307 47.8952 54.282 48.7422 53.4352L52.9783 49.199Z" fill="#D23C69"/>
<path d="M47.4194 21.3129V11.8547C47.4194 10.6076 46.4083 9.59668 45.1613 9.59668H31.6129C26.6246 9.59668 22.5806 13.6405 22.5806 18.629V21.3129C22.5806 22.5264 22.7762 23.732 23.16 24.8832L23.5358 26.0107C23.6509 26.3561 23.7096 26.7177 23.7096 27.0818V27.6612H46.2902V27.0818C46.2902 26.7177 46.3489 26.3561 46.464 26.0107L46.8398 24.8832C47.2237 23.7319 47.4194 22.5263 47.4194 21.3129Z" fill="#5A4146"/>
<path d="M28.2258 14.1833C28.2258 16.7164 30.2793 18.77 32.8125 18.77H33.4475L33.7541 27.6611H46.2902V27.0816C46.2902 26.7176 46.3489 26.3559 46.464 26.0106L46.8398 24.8831C47.2236 23.7319 47.4192 22.5263 47.4192 21.3128V11.8547C47.4192 10.6076 46.4082 9.59668 45.1612 9.59668H32.8125C30.2793 9.59668 28.2258 11.6502 28.2258 14.1833Z" fill="#694B4B"/>
<path d="M41.7744 36.6938H28.2256V46.8548H41.7744V36.6938Z" fill="#E6AF78"/>
<path d="M28.2258 40.5111C30.2203 41.6665 32.5293 42.3385 35 42.3385C37.4706 42.3385 39.7798 41.6665 41.7741 40.5111V36.6934H28.2257L28.2258 40.5111Z" fill="#D29B6E"/>
<path d="M35 46.8547L31.3991 50.4556C30.9151 50.9396 30.1151 50.8851 29.7014 50.3398L25.9678 45.4201L26.9444 43.3621C27.2326 42.7548 27.9842 42.5322 28.5565 42.885L35 46.8547Z" fill="#D23C69"/>
<path d="M35 46.8547L38.6009 50.4556C39.0849 50.9396 39.8848 50.8851 40.2985 50.3398L44.0322 45.4201L43.0556 43.3621C42.7674 42.7548 42.0157 42.5322 41.4434 42.885L35 46.8547Z" fill="#D23C69"/>
<path d="M35 40.0806C28.7645 40.0806 23.7096 35.0257 23.7096 28.7902V27.4675C23.7096 26.8686 23.9475 26.2943 24.3709 25.8707L25.3062 24.9354C25.7296 24.512 25.9675 23.9377 25.9675 23.3387V20.6322C25.9675 20.1094 26.3186 19.6552 26.8273 19.5351C29.4976 18.9044 37.8069 17.4104 43.4618 21.5694C43.829 21.8394 44.032 22.2831 44.032 22.7389V23.3387C44.032 23.9375 44.2699 24.5119 44.6933 24.9354L45.6286 25.8707C46.052 26.2942 46.2899 26.8685 46.2899 27.4675V28.7902C46.2903 35.0257 41.2354 40.0806 35 40.0806Z" fill="#F0C087"/>
<path d="M43.4619 21.5695C39.4847 18.6444 34.2018 18.5178 30.4839 18.9182C28.9156 19.0871 27.6198 19.3481 26.8276 19.5351C26.3189 19.6553 25.9678 20.1095 25.9678 20.6323V23.3386C25.9678 23.9376 25.7299 24.512 25.3063 24.9355L24.371 25.8708C23.9475 26.2944 23.7096 26.8687 23.7096 27.4677V28.7903C23.7096 34.5631 28.0449 39.3156 33.6356 39.9903C31.6875 37.9615 30.4837 35.2122 30.4837 32.1774V23.9249C30.4837 22.7807 31.3345 21.8245 32.4697 21.6821C35.1792 21.3424 40.1418 21.1381 44.032 23.3389V22.739C44.0323 22.2832 43.8288 21.8394 43.4619 21.5695Z" fill="#E6AF78"/>
<path d="M17.0218 49.199C16.2595 50.0172 15.8065 51.107 15.8065 52.276V59.2741C15.8065 59.8976 16.312 60.4031 16.9355 60.4031H22.5807V56.6285C22.5807 55.4307 22.1049 54.282 21.2579 53.4352L17.0218 49.199Z" fill="#D23C69"/>
</g>
<defs>
<clipPath id="clip0_110_157">
<rect width="70" height="70" fill="white"/>
</clipPath>
</defs>
</svg>
