<svg width="96" height="97" viewBox="0 0 96 97" fill="none" xmlns="http://www.w3.org/2000/svg">
<g clip-path="url(#clip0_241_2)">
<rect x="27" y="24" width="48" height="52" fill="black"/>
<path d="M48 0C21.5312 0 0 21.7576 0 48.5C0 75.2424 21.5312 97 48 97C74.4688 97 96 75.2424 96 48.5C96 21.7576 74.4688 0 48 0ZM67.0821 50.1992L39.0821 68.3867C38.754 68.6017 38.3751 68.7084 38.0001 68.7084C37.6719 68.7084 37.3399 68.6254 37.0431 68.4617C36.3984 68.1065 36 67.4275 36 66.6875V30.3125C36 29.5725 36.3984 28.8935 37.0431 28.5383C37.6759 28.187 38.4688 28.2086 39.0821 28.6133L67.0821 46.8008C67.6524 47.1717 68.0001 47.8132 68.0001 48.5C68.0001 49.1868 67.6524 49.8281 67.0821 50.1992Z" fill="#FFD900"/>
</g>
<defs>
<clipPath id="clip0_241_2">
<rect width="96" height="97" fill="white"/>
</clipPath>
</defs>
</svg>
