<svg width="1440" height="395" viewBox="0 0 1440 395" fill="none" xmlns="http://www.w3.org/2000/svg">
<rect width="1440" height="395" fill="url(#paint0_linear_120_1236)"/>
<g opacity="0.04">
<mask id="mask0_120_1236" style="mask-type:luminance" maskUnits="userSpaceOnUse" x="0" y="0" width="1441" height="395">
<path d="M1440 0H0V395H1440V0Z" fill="white"/>
</mask>
<g mask="url(#mask0_120_1236)">
<path d="M1549.14 446.779H-109.136V-51.7784H1549.14L1549.14 446.779ZM-106.993 445.75H1546.99V-50.7498H-106.993V445.75Z" fill="white"/>
<path d="M1548.06 371.12H-108.065V372.149H1548.06V371.12Z" fill="white"/>
<path d="M1548.06 346.244H-108.065V347.272H1548.06V346.244Z" fill="white"/>
<path d="M1548.06 321.368H-108.065V322.396H1548.06V321.368Z" fill="white"/>
<path d="M1548.06 296.491H-108.065V297.52H1548.06V296.491Z" fill="white"/>
<path d="M1548.06 271.615H-108.065V272.643H1548.06V271.615Z" fill="white"/>
<path d="M1548.06 246.739H-108.065V247.767H1548.06V246.739Z" fill="white"/>
<path d="M1548.06 221.862H-108.065V222.891H1548.06V221.862Z" fill="white"/>
<path d="M1548.06 196.986H-108.065V198.014H1548.06V196.986Z" fill="white"/>
<path d="M1548.06 172.109H-108.065V173.138H1548.06V172.109Z" fill="white"/>
<path d="M1548.06 147.233H-108.065V148.261H1548.06V147.233Z" fill="white"/>
<path d="M1548.06 122.356H-108.065V123.385H1548.06V122.356Z" fill="white"/>
<path d="M1548.06 97.4797H-108.065V98.5084H1548.06V97.4797Z" fill="white"/>
<path d="M1548.06 72.6035H-108.065V73.6322H1548.06V72.6035Z" fill="white"/>
<path d="M1548.06 47.7271H-108.065V48.7557H1548.06V47.7271Z" fill="white"/>
<path d="M1548.06 22.8507H-108.065V23.8794H1548.06V22.8507Z" fill="white"/>
<path d="M1398.58 -51.2642H1396.43V446.264H1398.58V-51.2642Z" fill="white"/>
<path d="M1348.39 -51.2642H1346.25V446.264H1348.39V-51.2642Z" fill="white"/>
<path d="M1298.21 -51.2642H1296.06V446.264H1298.21V-51.2642Z" fill="white"/>
<path d="M1248.02 -51.2642H1245.88V446.264H1248.02V-51.2642Z" fill="white"/>
<path d="M1197.84 -51.2642H1195.69V446.264H1197.84V-51.2642Z" fill="white"/>
<path d="M1147.65 -51.2642H1145.51V446.264H1147.65V-51.2642Z" fill="white"/>
<path d="M1097.46 -51.2642H1095.32V446.264H1097.46V-51.2642Z" fill="white"/>
<path d="M1047.28 -51.2642H1045.14V446.264H1047.28V-51.2642Z" fill="white"/>
<path d="M997.094 -51.2642H994.951V446.264H997.094V-51.2642Z" fill="white"/>
<path d="M946.906 -51.2642H944.764V446.264H946.906V-51.2642Z" fill="white"/>
<path d="M896.721 -51.2642H894.578V446.264H896.721V-51.2642Z" fill="white"/>
<path d="M846.535 -51.2642H844.393V446.264H846.535V-51.2642Z" fill="white"/>
<path d="M796.35 -51.2642H794.207V446.264H796.35V-51.2642Z" fill="white"/>
<path d="M746.164 -51.2642H744.021V446.264H746.164V-51.2642Z" fill="white"/>
<path d="M695.979 -51.2642H693.836V446.264H695.979V-51.2642Z" fill="white"/>
<path d="M645.793 -51.2642H643.65V446.264H645.793V-51.2642Z" fill="white"/>
<path d="M595.607 -51.2642H593.465V446.264H595.607V-51.2642Z" fill="white"/>
<path d="M545.422 -51.2642H543.279V446.264H545.422V-51.2642Z" fill="white"/>
<path d="M495.235 -51.2642H493.092V446.264H495.235V-51.2642Z" fill="white"/>
<path d="M445.049 -51.2642H442.906V446.264H445.049V-51.2642Z" fill="white"/>
<path d="M394.864 -51.2642H392.721V446.264H394.864V-51.2642Z" fill="white"/>
<path d="M344.679 -51.2642H342.536V446.264H344.679V-51.2642Z" fill="white"/>
<path d="M294.493 -51.2642H292.35V446.264H294.493V-51.2642Z" fill="white"/>
<path d="M244.307 -51.2642H242.164V446.264H244.307V-51.2642Z" fill="white"/>
<path d="M194.122 -51.2642H191.979V446.264H194.122V-51.2642Z" fill="white"/>
<path d="M143.936 -51.2642H141.793V446.264H143.936V-51.2642Z" fill="white"/>
<path d="M93.7509 -51.2642H91.608V446.264H93.7509V-51.2642Z" fill="white"/>
<path d="M43.5637 -51.2642H41.4208V446.264H43.5637V-51.2642Z" fill="white"/>
</g>
</g>
<defs>
<linearGradient id="paint0_linear_120_1236" x1="0" y1="197.5" x2="1440" y2="197.5" gradientUnits="userSpaceOnUse">
<stop stop-color="#B37ADE"/>
<stop offset="1" stop-color="#0D81FE"/>
</linearGradient>
</defs>
</svg>
