<svg width="34" height="34" viewBox="0 0 34 34" fill="none" xmlns="http://www.w3.org/2000/svg">
<g clip-path="url(#clip0_12_38)">
<path d="M33.2974 8.66732C32.9106 7.2111 31.7712 6.06428 30.3243 5.675C27.7019 4.96777 17.1863 4.96777 17.1863 4.96777C17.1863 4.96777 6.67069 4.96777 4.04827 5.675C2.60143 6.06421 1.46197 7.2111 1.07526 8.66732C0.372559 11.3068 0.372559 16.8138 0.372559 16.8138C0.372559 16.8138 0.372559 22.3209 1.07526 24.9604C1.46197 26.4166 2.60143 27.5634 4.04827 27.9527C6.67069 28.6599 17.1863 28.6599 17.1863 28.6599C17.1863 28.6599 27.7019 28.6599 30.3243 27.9527C31.7712 27.5634 32.9106 26.4166 33.2974 24.9604C34.0001 22.3209 34.0001 16.8138 34.0001 16.8138C34.0001 16.8138 34.0001 11.3068 33.2974 8.66732Z" fill="#FF0000"/>
<path d="M13.7471 21.8139L22.5361 16.8141L13.7471 11.814V21.8139Z" fill="white"/>
</g>
<defs>
<clipPath id="clip0_12_38">
<rect width="33.6275" height="33.6275" fill="white" transform="translate(0.372559)"/>
</clipPath>
</defs>
</svg>
